STARTFONT 2.1
COMMENT
COMMENT Converted from OpenType font "novamono.ttf" by "otf2bdf 3.0".
COMMENT
FONT -FreeType-NovaMono-Medium-R-Normal--128-960-96-96-P-312-ISO10646-1
SIZE 96 96 96
FONTBOUNDINGBOX 408 104 0 -20
STARTPROPERTIES 19
FOUNDRY "FreeType"
FAMILY_NAME "NovaMono"
WEIGHT_NAME "Medium"
SLANT "R"
SETWIDTH_NAME "Normal"
ADD_STYLE_NAME ""
PIXEL_SIZE 128
POINT_SIZE 960
RESOLUTION_X 96
RESOLUTION_Y 96
SPACING "P"
AVERAGE_WIDTH 312
CHARSET_REGISTRY "ISO10646"
CHARSET_ENCODING "1"
FONT_ASCENT 84
FONT_DESCENT 20
COPYRIGHT "Copyright fontcollector 2009  NovaMono is based on PortraitTextMono by fontcollector (http://fontstruct.com/fontstructors/fontcollector), which is based on PortraitMono by fontcollector (http://fontstruct.com/fontstructors/fontcollector)"
_OTF_FONTFILE "novamono.ttf"
_OTF_PSNAME "NovaMono"
ENDPROPERTIES
CHARS 195
STARTCHAR 0000
ENCODING 0
SWIDTH 281 0
DWIDTH 36 0
BBX 0 0 0 0
BITMAP
ENDCHAR
STARTCHAR 000D
ENCODING 13
SWIDTH 0 0
DWIDTH 0 0
BBX 0 0 0 0
BITMAP
ENDCHAR
STARTCHAR 0020
ENCODING 32
SWIDTH 281 0
DWIDTH 36 0
BBX 0 0 0 0
BITMAP
ENDCHAR
STARTCHAR 0021
ENCODING 33
SWIDTH 281 0
DWIDTH 36 0
BBX 8 56 12 0
BITMAP
FF
FF
FF
FF
FF
FF
FF
FF
FF
FF
FF
FF
FF
FF
FF
FF
FF
FF
FF
FF
FF
FF
FF
FF
FF
FF
FF
FF
FF
FF
FF
FF
FF
FF
FF
FF
FF
FF
FF
FF
00
00
00
00
00
00
00
00
FF
FF
FF
FF
FF
FF
FF
FF
ENDCHAR
STARTCHAR 0022
ENCODING 34
SWIDTH 281 0
DWIDTH 36 0
BBX 20 20 4 36
BITMAP
FF0FF0
FF0FF0
FF0FF0
FF0FF0
FF0FF0
FF0FF0
FF0FF0
FF0FF0
0F00F0
1E01E0
1E01E0
3C03C0
3C03C0
780780
780780
F00F00
F00F00
E00E00
E00E00
C00C00
ENDCHAR
STARTCHAR 0023
ENCODING 35
SWIDTH 281 0
DWIDTH 36 0
BBX 32 32 0 24
BITMAP
0FF00FF0
0FF00FF0
0FF00FF0
0FF00FF0
FFFFFFFF
FFFFFFFF
FFFFFFFF
FFFFFFFF
FFFFFFFF
FFFFFFFF
FFFFFFFF
FFFFFFFF
0FF00FF0
0FF00FF0
0FF00FF0
0FF00FF0
0FF00FF0
0FF00FF0
0FF00FF0
0FF00FF0
FFFFFFFF
FFFFFFFF
FFFFFFFF
FFFFFFFF
FFFFFFFF
FFFFFFFF
FFFFFFFF
FFFFFFFF
0FF00FF0
0FF00FF0
0FF00FF0
0FF00FF0
ENDCHAR
STARTCHAR 0024
ENCODING 36
SWIDTH 281 0
DWIDTH 36 0
BBX 32 72 0 -8
BITMAP
000FF000
000FF000
000FF000
000FF000
000FF000
000FF000
000FF000
000FF000
01FFFF80
03FFFFC0
07FFFFE0
0FFFFFF0
1FFFFFF8
3FFFFFFC
7FFFFFFE
FFFFFFFF
FFFFFFFF
FFEFF7FF
FFCFF3FF
FF8FF1FF
FF0FF0FF
FF0FF0FF
FF0FF0FF
FF0FF0FF
FF0FF000
FF0FF000
FF0FF000
FF0FF000
FF8FF000
FFCFF000
FFEFF000
FFFFF000
FFFFFF80
7FFFFFC0
3FFFFFE0
1FFFFFF0
0FFFFFF8
07FFFFFC
03FFFFFE
01FFFFFF
000FFFFF
000FF7FF
000FF3FF
000FF1FF
000FF0FF
000FF0FF
000FF0FF
000FF0FF
FF0FF0FF
FF0FF0FF
FF0FF0FF
FF0FF0FF
FF8FF1FF
FFCFF3FF
FFEFF7FF
FFFFFFFF
FFFFFFFF
7FFFFFFE
3FFFFFFC
1FFFFFF8
0FFFFFF0
07FFFFE0
03FFFFC0
01FFFF80
000FF000
000FF000
000FF000
000FF000
000FF000
000FF000
000FF000
000FF000
ENDCHAR
STARTCHAR 0025
ENCODING 37
SWIDTH 281 0
DWIDTH 36 0
BBX 32 56 0 0
BITMAP
1FF800FF
3FFC00FF
7FFE00FF
FFFF00FF
FFFF00FF
FE7F01FE
FC3F01FE
F81F03FC
F81F03FC
FC3F07F8
FE7F07F8
FFFF0FF0
FFFF0FF0
7FFE1FE0
3FFC1FE0
1FF83FC0
00003FC0
00007F80
00007F80
0000FF00
0000FF00
0001FE00
0001FE00
0003FC00
0003FC00
0007F800
0007F800
000FF000
000FF000
001FE000
001FE000
003FC000
003FC000
007F8000
007F8000
00FF0000
00FF0000
01FE0000
01FE0000
03FC0000
03FC1FF8
07F83FFC
07F87FFE
0FF0FFFF
0FF0FFFF
1FE0FE7F
1FE0FC3F
3FC0F81F
3FC0F81F
7F80FC3F
7F80FE7F
FF00FFFF
FF00FFFF
FF007FFE
FF003FFC
FF001FF8
ENDCHAR
STARTCHAR 0026
ENCODING 38
SWIDTH 281 0
DWIDTH 36 0
BBX 32 56 0 0
BITMAP
03FFC000
07FFE000
07FFE000
0FFFF000
0FFFF000
1FFFF800
1FFFF800
3FFFFC00
3FC3FC00
3FC3FC00
3FC3FC00
3FC3FC00
3FC3FC00
1FE7F800
1FE7F800
0FFFF000
0FFFF000
07FFE000
07FFE000
03FFC000
03FFC000
01FF8000
01FF8000
00FF0000
00FF00FF
01FF81FE
01FF81FE
03FFC3FC
03FFC3FC
07FFE7F8
07FFE7F8
0FFFFFF0
0FFFFFF0
1FE7FFE0
1FE7FFE0
3FC3FFC0
3FC3FFC0
7F81FF80
7F81FF80
FF00FF00
FF00FF00
FF01FF80
FF01FF80
FF03FFC0
FF03FFC0
7F87FFE0
7F87FFE0
3FCFFFF0
3FFFFFF0
1FFFE7F8
1FFFE7F8
0FFFC3FC
0FFFC3FC
07FF81FE
07FF81FE
03FF00FF
ENDCHAR
STARTCHAR 0027
ENCODING 39
SWIDTH 281 0
DWIDTH 36 0
BBX 8 20 12 36
BITMAP
FF
FF
FF
FF
FF
FF
FF
FF
0F
1E
1E
3C
3C
78
78
F0
F0
E0
E0
C0
ENDCHAR
STARTCHAR 0028
ENCODING 40
SWIDTH 281 0
DWIDTH 36 0
BBX 16 72 8 -8
BITMAP
01FF
03FF
07FF
0FFF
1FFF
3FFF
7FFF
FFFF
FFF0
FFE0
FFC0
FF80
FF00
FF00
FF00
FF00
FF00
FF00
FF00
FF00
FF00
FF00
FF00
FF00
FF00
FF00
FF00
FF00
FF00
FF00
FF00
FF00
FF00
FF00
FF00
FF00
FF00
FF00
FF00
FF00
FF00
FF00
FF00
FF00
FF00
FF00
FF00
FF00
FF00
FF00
FF00
FF00
FF00
FF00
FF00
FF00
FF00
FF00
FF00
FF00
FF80
FFC0
FFE0
FFF0
FFFF
7FFF
3FFF
1FFF
0FFF
07FF
03FF
01FF
ENDCHAR
STARTCHAR 0029
ENCODING 41
SWIDTH 281 0
DWIDTH 36 0
BBX 16 72 8 -8
BITMAP
FF80
FFC0
FFE0
FFF0
FFF8
FFFC
FFFE
FFFF
0FFF
07FF
03FF
01FF
00FF
00FF
00FF
00FF
00FF
00FF
00FF
00FF
00FF
00FF
00FF
00FF
00FF
00FF
00FF
00FF
00FF
00FF
00FF
00FF
00FF
00FF
00FF
00FF
00FF
00FF
00FF
00FF
00FF
00FF
00FF
00FF
00FF
00FF
00FF
00FF
00FF
00FF
00FF
00FF
00FF
00FF
00FF
00FF
00FF
00FF
00FF
00FF
01FF
03FF
07FF
0FFF
FFFF
FFFE
FFFC
FFF8
FFF0
FFE0
FFC0
FF80
ENDCHAR
STARTCHAR 002A
ENCODING 42
SWIDTH 281 0
DWIDTH 36 0
BBX 32 32 0 24
BITMAP
00010000
00018000
00018000
0003C000
0003C000
0007E000
0387E1C0
03EFF7C0
03FFFFC0
01FFFF80
01FFFF80
00FFFF00
01FFFF80
07FFFFE0
1FFFFFF8
7FFFFFFE
FFFFFFFF
1FFFFFF8
07FFFFE0
01FFFF80
00FFFF00
01FFFF80
01FFFF80
03FFFFC0
03EFF7C0
0387E1C0
0007E000
0003C000
0003C000
00018000
00018000
00010000
ENDCHAR
STARTCHAR 002B
ENCODING 43
SWIDTH 281 0
DWIDTH 36 0
BBX 32 32 0 12
BITMAP
000FF000
000FF000
000FF000
000FF000
000FF000
000FF000
000FF000
000FF000
000FF000
000FF000
000FF000
000FF000
FFFFFFFF
FFFFFFFF
FFFFFFFF
FFFFFFFF
FFFFFFFF
FFFFFFFF
FFFFFFFF
FFFFFFFF
000FF000
000FF000
000FF000
000FF000
000FF000
000FF000
000FF000
000FF000
000FF000
000FF000
000FF000
000FF000
ENDCHAR
STARTCHAR 002C
ENCODING 44
SWIDTH 281 0
DWIDTH 36 0
BBX 8 20 12 -12
BITMAP
FF
FF
FF
FF
FF
FF
FF
FF
0F
1E
1E
3C
3C
78
78
F0
F0
E0
E0
C0
ENDCHAR
STARTCHAR 002D
ENCODING 45
SWIDTH 281 0
DWIDTH 36 0
BBX 32 8 0 24
BITMAP
FFFFFFFF
FFFFFFFF
FFFFFFFF
FFFFFFFF
FFFFFFFF
FFFFFFFF
FFFFFFFF
FFFFFFFF
ENDCHAR
STARTCHAR 002E
ENCODING 46
SWIDTH 281 0
DWIDTH 36 0
BBX 8 8 12 0
BITMAP
FF
FF
FF
FF
FF
FF
FF
FF
ENDCHAR
STARTCHAR 002F
ENCODING 47
SWIDTH 281 0
DWIDTH 36 0
BBX 32 56 0 0
BITMAP
000000FF
000000FF
000000FF
000000FF
000000FF
000001FE
000001FE
000003FC
000003FC
000007F8
000007F8
00000FF0
00000FF0
00001FE0
00001FE0
00003FC0
00003FC0
00007F80
00007F80
0000FF00
0000FF00
0001FE00
0001FE00
0003FC00
0003FC00
0007F800
0007F800
000FF000
000FF000
001FE000
001FE000
003FC000
003FC000
007F8000
007F8000
00FF0000
00FF0000
01FE0000
01FE0000
03FC0000
03FC0000
07F80000
07F80000
0FF00000
0FF00000
1FE00000
1FE00000
3FC00000
3FC00000
7F800000
7F800000
FF000000
FF000000
FF000000
FF000000
FF000000
ENDCHAR
STARTCHAR 0030
ENCODING 48
SWIDTH 281 0
DWIDTH 36 0
BBX 32 56 0 0
BITMAP
01FFFF80
03FFFFC0
07FFFFE0
0FFFFFF0
1FFFFFF8
3FFFFFFC
7FFFFFFE
FFFFFFFF
FFF00FFF
FFE007FF
FFC003FF
FF8001FF
FF0000FF
FF0000FF
FF0000FF
FF0000FF
FF0000FF
FF0000FF
FF0000FF
FF0000FF
FF0000FF
FF0000FF
FF0000FF
FF0000FF
FF0FF0FF
FF0FF0FF
FF0FF0FF
FF0FF0FF
FF0FF0FF
FF0FF0FF
FF0FF0FF
FF0FF0FF
FF0000FF
FF0000FF
FF0000FF
FF0000FF
FF0000FF
FF0000FF
FF0000FF
FF0000FF
FF0000FF
FF0000FF
FF0000FF
FF0000FF
FF8001FF
FFC003FF
FFE007FF
FFF00FFF
FFFFFFFF
7FFFFFFE
3FFFFFFC
1FFFFFF8
0FFFFFF0
07FFFFE0
03FFFFC0
01FFFF80
ENDCHAR
STARTCHAR 0031
ENCODING 49
SWIDTH 281 0
DWIDTH 36 0
BBX 32 56 0 0
BITMAP
001FF000
003FF000
007FF000
00FFF000
01FFF000
03FFF000
07FFF000
0FFFF000
0FFFF000
0FFFF000
0FFFF000
0FFFF000
0FFFF000
0FEFF000
0FCFF000
0F8FF000
0F0FF000
0E0FF000
0C0FF000
080FF000
000FF000
000FF000
000FF000
000FF000
000FF000
000FF000
000FF000
000FF000
000FF000
000FF000
000FF000
000FF000
000FF000
000FF000
000FF000
000FF000
000FF000
000FF000
000FF000
000FF000
000FF000
000FF000
000FF000
000FF000
000FF000
000FF000
000FF000
000FF000
FFFFFFFF
FFFFFFFF
FFFFFFFF
FFFFFFFF
FFFFFFFF
FFFFFFFF
FFFFFFFF
FFFFFFFF
ENDCHAR
STARTCHAR 0032
ENCODING 50
SWIDTH 281 0
DWIDTH 36 0
BBX 32 56 0 0
BITMAP
01FFFF80
03FFFFC0
07FFFFE0
0FFFFFF0
1FFFFFF8
3FFFFFFC
7FFFFFFE
FFFFFFFF
FFF00FFF
FFE007FF
FFC003FF
FF8001FF
FF0000FF
FF0000FF
FF0000FF
FF0000FF
000000FF
000000FF
000000FF
000000FF
000001FF
000003FF
000007FF
00000FFF
00001FFF
00003FFE
00007FFC
0000FFF8
0001FFF0
0003FFE0
0007FFC0
000FFF80
001FFF00
003FFE00
007FFC00
00FFF800
01FFF000
03FFE000
07FFC000
0FFF8000
1FFF0000
3FFE0000
7FFC0000
FFF80000
FFF00000
FFE00000
FFC00000
FF800000
FFFFFFFF
FFFFFFFF
FFFFFFFF
FFFFFFFF
FFFFFFFF
FFFFFFFF
FFFFFFFF
FFFFFFFF
ENDCHAR
STARTCHAR 0033
ENCODING 51
SWIDTH 281 0
DWIDTH 36 0
BBX 32 56 0 0
BITMAP
01FFFF80
03FFFFC0
07FFFFE0
0FFFFFF0
1FFFFFF8
3FFFFFFC
7FFFFFFE
FFFFFFFF
FFF00FFF
FFE007FF
FFC003FF
FF8001FF
FF0000FF
FF0000FF
FF0000FF
FF0000FF
000000FF
000000FF
000000FF
000000FF
000001FF
000003FF
000007FF
00000FFF
000FFFFF
000FFFFE
000FFFFC
000FFFF8
000FFFF8
000FFFFC
000FFFFE
000FFFFF
00000FFF
000007FF
000003FF
000001FF
000000FF
000000FF
000000FF
000000FF
FF0000FF
FF0000FF
FF0000FF
FF0000FF
FF8001FF
FFC003FF
FFE007FF
FFF00FFF
FFFFFFFF
7FFFFFFE
3FFFFFFC
1FFFFFF8
0FFFFFF0
07FFFFE0
03FFFFC0
01FFFF80
ENDCHAR
STARTCHAR 0034
ENCODING 52
SWIDTH 281 0
DWIDTH 36 0
BBX 32 56 0 0
BITMAP
0000FFC0
0001FFC0
0001FFC0
0003FFC0
0003FFC0
0007FFC0
0007FFC0
000FFFC0
000FFFC0
001FFFC0
001FFFC0
003FFFC0
003FFFC0
007FBFC0
007FBFC0
00FF3FC0
00FF3FC0
01FE3FC0
01FE3FC0
03FC3FC0
03FC3FC0
07F83FC0
07F83FC0
0FF03FC0
0FF03FC0
1FE03FC0
1FE03FC0
3FC03FC0
3FC03FC0
7F803FC0
7F803FC0
FF003FC0
FFFFFFFF
FFFFFFFF
FFFFFFFF
FFFFFFFF
FFFFFFFF
FFFFFFFF
FFFFFFFF
FFFFFFFF
00003FC0
00003FC0
00003FC0
00003FC0
00003FC0
00003FC0
00003FC0
00003FC0
00003FC0
00003FC0
00003FC0
00003FC0
00003FC0
00003FC0
00003FC0
00003FC0
ENDCHAR
STARTCHAR 0035
ENCODING 53
SWIDTH 281 0
DWIDTH 36 0
BBX 32 56 0 0
BITMAP
FFFFFFFF
FFFFFFFF
FFFFFFFF
FFFFFFFF
FFFFFFFF
FFFFFFFF
FFFFFFFF
FFFFFFFF
FF000000
FF000000
FF000000
FF000000
FF000000
FF000000
FF000000
FF000000
FF000000
FF000000
FF000000
FF000000
FF1FFF80
FF3FFFC0
FF7FFFE0
FFFFFFF0
FFFFFFF8
FFFFFFFC
FFFFFFFE
FFFFFFFF
FFF00FFF
FFE007FF
FFC003FF
FF8001FF
000000FF
000000FF
000000FF
000000FF
000000FF
000000FF
000000FF
000000FF
FF0000FF
FF0000FF
FF0000FF
FF0000FF
FF8001FF
FFC003FF
FFE007FF
FFF00FFF
FFFFFFFF
7FFFFFFE
3FFFFFFC
1FFFFFF8
0FFFFFF0
07FFFFE0
03FFFFC0
01FFFF80
ENDCHAR
STARTCHAR 0036
ENCODING 54
SWIDTH 281 0
DWIDTH 36 0
BBX 32 56 0 0
BITMAP
01FFFF80
03FFFFC0
07FFFFE0
0FFFFFF0
1FFFFFF8
3FFFFFFC
7FFFFFFE
FFFFFFFF
FFF00FFF
FFE007FF
FFC003FF
FF8001FF
FF0000FF
FF0000FF
FF000000
FF000000
FF000000
FF000000
FF000000
FF000000
FF1FFF80
FF3FFFC0
FF7FFFE0
FFFFFFF0
FFFFFFF8
FFFFFFFC
FFFFFFFE
FFFFFFFF
FFF00FFF
FFE007FF
FFC003FF
FF8001FF
FF0000FF
FF0000FF
FF0000FF
FF0000FF
FF0000FF
FF0000FF
FF0000FF
FF0000FF
FF0000FF
FF0000FF
FF0000FF
FF0000FF
FF8001FF
FFC003FF
FFE007FF
FFF00FFF
FFFFFFFF
7FFFFFFE
3FFFFFFC
1FFFFFF8
0FFFFFF0
07FFFFE0
03FFFFC0
01FFFF80
ENDCHAR
STARTCHAR 0037
ENCODING 55
SWIDTH 281 0
DWIDTH 36 0
BBX 32 56 0 0
BITMAP
FFFFFFFF
FFFFFFFF
FFFFFFFF
FFFFFFFF
FFFFFFFF
FFFFFFFF
FFFFFFFF
FFFFFFFF
000000FF
000001FE
000001FE
000003FC
000003FC
000007F8
000007F8
00000FF0
00000FF0
00001FE0
00001FE0
00003FC0
00003FC0
00007F80
00007F80
0000FF00
0000FF00
0001FE00
0001FE00
0003FC00
0003FC00
0007F800
0007F800
000FF000
000FF000
000FF000
000FF000
000FF000
000FF000
000FF000
000FF000
000FF000
000FF000
000FF000
000FF000
000FF000
000FF000
000FF000
000FF000
000FF000
000FF000
000FF000
000FF000
000FF000
000FF000
000FF000
000FF000
000FF000
ENDCHAR
STARTCHAR 0038
ENCODING 56
SWIDTH 281 0
DWIDTH 36 0
BBX 32 56 0 0
BITMAP
01FFFF80
03FFFFC0
07FFFFE0
0FFFFFF0
1FFFFFF8
3FFFFFFC
7FFFFFFE
FFFFFFFF
FFF00FFF
FFE007FF
FFC003FF
FF8001FF
FF8001FF
FFC003FF
FFE007FF
FFF00FFF
FFF81FFF
7FFC3FFE
3FFE7FFC
1FFFFFF8
0FFFFFF0
07FFFFE0
03FFFFC0
01FFFF80
00FFFF00
007FFE00
007FFE00
00FFFF00
01FFFF80
03FFFFC0
07FFFFE0
0FFFFFF0
1FFFFFF8
3FFE7FFC
7FFC3FFE
FFF81FFF
FFF00FFF
FFE007FF
FFC003FF
FF8001FF
FF0000FF
FF0000FF
FF0000FF
FF0000FF
FF8001FF
FFC003FF
FFE007FF
FFF00FFF
FFFFFFFF
7FFFFFFE
3FFFFFFC
1FFFFFF8
0FFFFFF0
07FFFFE0
03FFFFC0
01FFFF80
ENDCHAR
STARTCHAR 0039
ENCODING 57
SWIDTH 281 0
DWIDTH 36 0
BBX 32 56 0 0
BITMAP
01FFFF80
03FFFFC0
07FFFFE0
0FFFFFF0
1FFFFFF8
3FFFFFFC
7FFFFFFE
FFFFFFFF
FFF00FFF
FFE007FF
FFC003FF
FF8001FF
FF0000FF
FF0000FF
FF0000FF
FF0000FF
FF0000FF
FF0000FF
FF0000FF
FF0000FF
FF0000FF
FF0000FF
FF0000FF
FF0000FF
FF8001FF
FFC003FF
FFE007FF
FFF00FFF
FFFFFFFF
7FFFFFFF
3FFFFFFF
1FFFFFFF
0FFFFFFF
07FFFEFF
03FFFCFF
01FFF8FF
000000FF
000000FF
000000FF
000000FF
000000FF
000000FF
FF0000FF
FF0000FF
FF8001FF
FFC003FF
FFE007FF
FFF00FFF
FFFFFFFF
7FFFFFFE
3FFFFFFC
1FFFFFF8
0FFFFFF0
07FFFFE0
03FFFFC0
01FFFF80
ENDCHAR
STARTCHAR 003A
ENCODING 58
SWIDTH 281 0
DWIDTH 36 0
BBX 8 32 12 0
BITMAP
FF
FF
FF
FF
FF
FF
FF
FF
00
00
00
00
00
00
00
00
00
00
00
00
00
00
00
00
FF
FF
FF
FF
FF
FF
FF
FF
ENDCHAR
STARTCHAR 003B
ENCODING 59
SWIDTH 281 0
DWIDTH 36 0
BBX 8 44 12 -12
BITMAP
FF
FF
FF
FF
FF
FF
FF
FF
00
00
00
00
00
00
00
00
00
00
00
00
00
00
00
00
FF
FF
FF
FF
FF
FF
FF
FF
0F
1E
1E
3C
3C
78
78
F0
F0
E0
E0
C0
ENDCHAR
STARTCHAR 003C
ENCODING 60
SWIDTH 281 0
DWIDTH 36 0
BBX 32 32 0 12
BITMAP
00000001
00000007
0000001F
0000007F
000001FF
000007FF
00001FFF
00007FFF
0001FFFE
0007FFF8
001FFFE0
007FFF80
01FFFE00
07FFF800
1FFFE000
7FFF8000
FFFF8000
1FFFE000
07FFF800
01FFFE00
007FFF80
001FFFE0
0007FFF8
0001FFFE
00007FFF
00001FFF
000007FF
000001FF
0000007F
0000001F
00000007
00000001
ENDCHAR
STARTCHAR 003D
ENCODING 61
SWIDTH 281 0
DWIDTH 36 0
BBX 32 24 0 16
BITMAP
FFFFFFFF
FFFFFFFF
FFFFFFFF
FFFFFFFF
FFFFFFFF
FFFFFFFF
FFFFFFFF
FFFFFFFF
00000000
00000000
00000000
00000000
00000000
00000000
00000000
00000000
FFFFFFFF
FFFFFFFF
FFFFFFFF
FFFFFFFF
FFFFFFFF
FFFFFFFF
FFFFFFFF
FFFFFFFF
ENDCHAR
STARTCHAR 003E
ENCODING 62
SWIDTH 281 0
DWIDTH 36 0
BBX 32 32 0 12
BITMAP
80000000
E0000000
F8000000
FE000000
FF800000
FFE00000
FFF80000
FFFE0000
7FFF8000
1FFFE000
07FFF800
01FFFE00
007FFF80
001FFFE0
0007FFF8
0001FFFE
0001FFFF
0007FFF8
001FFFE0
007FFF80
01FFFE00
07FFF800
1FFFE000
7FFF8000
FFFE0000
FFF80000
FFE00000
FF800000
FE000000
F8000000
E0000000
80000000
ENDCHAR
STARTCHAR 003F
ENCODING 63
SWIDTH 281 0
DWIDTH 36 0
BBX 32 56 0 0
BITMAP
01FFFF80
03FFFFC0
07FFFFE0
0FFFFFF0
1FFFFFF8
3FFFFFFC
7FFFFFFE
FFFFFFFF
FFF00FFF
FFE007FF
FFC003FF
FF8001FF
FF0000FF
FF0000FF
FF0000FF
FF0000FF
000001FF
000003FF
000007FF
00000FFF
00001FFF
00003FFE
00007FFC
0000FFF8
0001FFF0
0003FFE0
0007FFC0
000FFF80
000FFF00
000FFE00
000FFC00
000FF800
000FF000
000FF000
000FF000
000FF000
000FF000
000FF000
000FF000
000FF000
00000000
00000000
00000000
00000000
00000000
00000000
00000000
00000000
000FF000
000FF000
000FF000
000FF000
000FF000
000FF000
000FF000
000FF000
ENDCHAR
STARTCHAR 0040
ENCODING 64
SWIDTH 281 0
DWIDTH 36 0
BBX 32 52 0 -4
BITMAP
0FFFFFF0
1FFFFFF8
1FFFFFF8
3FFFFFFC
3C00003C
7800001E
7800001E
F000000F
F00F0FCF
F01F8FCF
F01F8FCF
F03FCFCF
F03FCFCF
F07FEFCF
F07FEFCF
F0FFFFCF
F0FFFFCF
F1F9FFCF
F1F9FFCF
F3F0FFCF
F3F0FFCF
F3F07FCF
F3F07FCF
F3F03FCF
F3F03FCF
F3F03FCF
F3F03FCF
F3F03FCF
F3F03FCF
F3F07FCF
F3F07FCF
F3F0FFCF
F3F0FFCF
F1F9FFDE
F1F9FFDE
F0FFFFFC
F0FFFFFC
F07FEFF8
F07FEFF8
F03FCFF0
F03FCFF0
F01F8FE0
F01F8FE0
F00F0FC0
F0000000
78000000
78000000
3C000000
3FFFFFF0
1FFFFFF0
1FFFFFF0
0FFFFFF0
ENDCHAR
STARTCHAR 0041
ENCODING 65
SWIDTH 281 0
DWIDTH 36 0
BBX 32 56 0 0
BITMAP
01FFFF80
03FFFFC0
07FFFFE0
0FFFFFF0
1FFFFFF8
3FFFFFFC
7FFFFFFE
FFFFFFFF
FFF00FFF
FFE007FF
FFC003FF
FF8001FF
FF0000FF
FF0000FF
FF0000FF
FF0000FF
FF0000FF
FF0000FF
FF0000FF
FF0000FF
FF0000FF
FF0000FF
FF0000FF
FF0000FF
FFFFFFFF
FFFFFFFF
FFFFFFFF
FFFFFFFF
FFFFFFFF
FFFFFFFF
FFFFFFFF
FFFFFFFF
FF0000FF
FF0000FF
FF0000FF
FF0000FF
FF0000FF
FF0000FF
FF0000FF
FF0000FF
FF0000FF
FF0000FF
FF0000FF
FF0000FF
FF0000FF
FF0000FF
FF0000FF
FF0000FF
FF0000FF
FF0000FF
FF0000FF
FF0000FF
FF0000FF
FF0000FF
FF0000FF
FF0000FF
ENDCHAR
STARTCHAR 0042
ENCODING 66
SWIDTH 281 0
DWIDTH 36 0
BBX 32 56 0 0
BITMAP
FFFFFF80
FFFFFFC0
FFFFFFE0
FFFFFFF0
FFFFFFF8
FFFFFFFC
FFFFFFFE
FFFFFFFF
FF000FFF
FF0007FF
FF0003FF
FF0001FF
FF0000FF
FF0000FF
FF0000FF
FF0000FF
FF0000FF
FF0000FF
FF0000FF
FF0000FF
FF0001FF
FF0003FF
FF0007FF
FF000FFF
FFFFFFFF
FFFFFFFE
FFFFFFFC
FFFFFFF8
FFFFFFF8
FFFFFFFC
FFFFFFFE
FFFFFFFF
FF000FFF
FF0007FF
FF0003FF
FF0001FF
FF0000FF
FF0000FF
FF0000FF
FF0000FF
FF0000FF
FF0000FF
FF0000FF
FF0000FF
FF0001FF
FF0003FF
FF0007FF
FF000FFF
FFFFFFFF
FFFFFFFE
FFFFFFFC
FFFFFFF8
FFFFFFF0
FFFFFFE0
FFFFFFC0
FFFFFF80
ENDCHAR
STARTCHAR 0043
ENCODING 67
SWIDTH 281 0
DWIDTH 36 0
BBX 32 56 0 0
BITMAP
01FFFF80
03FFFFC0
07FFFFE0
0FFFFFF0
1FFFFFF8
3FFFFFFC
7FFFFFFE
FFFFFFFF
FFF00FFF
FFE007FF
FFC003FF
FF8001FF
FF0000FF
FF0000FF
FF0000FF
FF0000FF
FF000000
FF000000
FF000000
FF000000
FF000000
FF000000
FF000000
FF000000
FF000000
FF000000
FF000000
FF000000
FF000000
FF000000
FF000000
FF000000
FF000000
FF000000
FF000000
FF000000
FF000000
FF000000
FF000000
FF000000
FF0000FF
FF0000FF
FF0000FF
FF0000FF
FF8001FF
FFC003FF
FFE007FF
FFF00FFF
FFFFFFFF
7FFFFFFE
3FFFFFFC
1FFFFFF8
0FFFFFF0
07FFFFE0
03FFFFC0
01FFFF80
ENDCHAR
STARTCHAR 0044
ENCODING 68
SWIDTH 281 0
DWIDTH 36 0
BBX 32 56 0 0
BITMAP
FFFFF800
FFFFFC00
FFFFFE00
FFFFFF00
FFFFFF80
FFFFFFC0
FFFFFFE0
FFFFFFF0
FF00FFF8
FF007FFC
FF003FFE
FF001FFF
FF000FFF
FF0007FF
FF0003FF
FF0001FF
FF0000FF
FF0000FF
FF0000FF
FF0000FF
FF0000FF
FF0000FF
FF0000FF
FF0000FF
FF0000FF
FF0000FF
FF0000FF
FF0000FF
FF0000FF
FF0000FF
FF0000FF
FF0000FF
FF0000FF
FF0000FF
FF0000FF
FF0000FF
FF0000FF
FF0000FF
FF0000FF
FF0000FF
FF0001FF
FF0003FF
FF0007FF
FF000FFF
FF001FFF
FF003FFE
FF007FFC
FF00FFF8
FFFFFFF0
FFFFFFE0
FFFFFFC0
FFFFFF80
FFFFFF00
FFFFFE00
FFFFFC00
FFFFF800
ENDCHAR
STARTCHAR 0045
ENCODING 69
SWIDTH 281 0
DWIDTH 36 0
BBX 32 56 0 0
BITMAP
FFFFFFFF
FFFFFFFF
FFFFFFFF
FFFFFFFF
FFFFFFFF
FFFFFFFF
FFFFFFFF
FFFFFFFF
FF000000
FF000000
FF000000
FF000000
FF000000
FF000000
FF000000
FF000000
FF000000
FF000000
FF000000
FF000000
FF000000
FF000000
FF000000
FF000000
FFFFFF00
FFFFFF00
FFFFFF00
FFFFFF00
FFFFFF00
FFFFFF00
FFFFFF00
FFFFFF00
FF000000
FF000000
FF000000
FF000000
FF000000
FF000000
FF000000
FF000000
FF000000
FF000000
FF000000
FF000000
FF000000
FF000000
FF000000
FF000000
FFFFFFFF
FFFFFFFF
FFFFFFFF
FFFFFFFF
FFFFFFFF
FFFFFFFF
FFFFFFFF
FFFFFFFF
ENDCHAR
STARTCHAR 0046
ENCODING 70
SWIDTH 281 0
DWIDTH 36 0
BBX 32 56 0 0
BITMAP
FFFFFFFF
FFFFFFFF
FFFFFFFF
FFFFFFFF
FFFFFFFF
FFFFFFFF
FFFFFFFF
FFFFFFFF
FF000000
FF000000
FF000000
FF000000
FF000000
FF000000
FF000000
FF000000
FF000000
FF000000
FF000000
FF000000
FF000000
FF000000
FF000000
FF000000
FFFFFF00
FFFFFF00
FFFFFF00
FFFFFF00
FFFFFF00
FFFFFF00
FFFFFF00
FFFFFF00
FF000000
FF000000
FF000000
FF000000
FF000000
FF000000
FF000000
FF000000
FF000000
FF000000
FF000000
FF000000
FF000000
FF000000
FF000000
FF000000
FF000000
FF000000
FF000000
FF000000
FF000000
FF000000
FF000000
FF000000
ENDCHAR
STARTCHAR 0047
ENCODING 71
SWIDTH 281 0
DWIDTH 36 0
BBX 32 56 0 0
BITMAP
01FFFF80
03FFFFC0
07FFFFE0
0FFFFFF0
1FFFFFF8
3FFFFFFC
7FFFFFFE
FFFFFFFF
FFF00FFF
FFE007FF
FFC003FF
FF8001FF
FF0000FF
FF0000FF
FF0000FF
FF0000FF
FF000000
FF000000
FF000000
FF000000
FF000000
FF000000
FF000000
FF000000
FF00FFFF
FF00FFFF
FF00FFFF
FF00FFFF
FF00FFFF
FF00FFFF
FF00FFFF
FF00FFFF
FF0000FF
FF0000FF
FF0000FF
FF0000FF
FF0000FF
FF0000FF
FF0000FF
FF0000FF
FF0000FF
FF0000FF
FF0000FF
FF0000FF
FF8001FF
FFC003FF
FFE007FF
FFF00FFF
FFFFFFFF
7FFFFFFE
3FFFFFFC
1FFFFFF8
0FFFFFF0
07FFFFE0
03FFFFC0
01FFFF80
ENDCHAR
STARTCHAR 0048
ENCODING 72
SWIDTH 281 0
DWIDTH 36 0
BBX 32 56 0 0
BITMAP
FF0000FF
FF0000FF
FF0000FF
FF0000FF
FF0000FF
FF0000FF
FF0000FF
FF0000FF
FF0000FF
FF0000FF
FF0000FF
FF0000FF
FF0000FF
FF0000FF
FF0000FF
FF0000FF
FF0000FF
FF0000FF
FF0000FF
FF0000FF
FF0000FF
FF0000FF
FF0000FF
FF0000FF
FFFFFFFF
FFFFFFFF
FFFFFFFF
FFFFFFFF
FFFFFFFF
FFFFFFFF
FFFFFFFF
FFFFFFFF
FF0000FF
FF0000FF
FF0000FF
FF0000FF
FF0000FF
FF0000FF
FF0000FF
FF0000FF
FF0000FF
FF0000FF
FF0000FF
FF0000FF
FF0000FF
FF0000FF
FF0000FF
FF0000FF
FF0000FF
FF0000FF
FF0000FF
FF0000FF
FF0000FF
FF0000FF
FF0000FF
FF0000FF
ENDCHAR
STARTCHAR 0049
ENCODING 73
SWIDTH 281 0
DWIDTH 36 0
BBX 32 56 0 0
BITMAP
FFFFFFFF
FFFFFFFF
FFFFFFFF
FFFFFFFF
FFFFFFFF
FFFFFFFF
FFFFFFFF
FFFFFFFF
000FF000
000FF000
000FF000
000FF000
000FF000
000FF000
000FF000
000FF000
000FF000
000FF000
000FF000
000FF000
000FF000
000FF000
000FF000
000FF000
000FF000
000FF000
000FF000
000FF000
000FF000
000FF000
000FF000
000FF000
000FF000
000FF000
000FF000
000FF000
000FF000
000FF000
000FF000
000FF000
000FF000
000FF000
000FF000
000FF000
000FF000
000FF000
000FF000
000FF000
FFFFFFFF
FFFFFFFF
FFFFFFFF
FFFFFFFF
FFFFFFFF
FFFFFFFF
FFFFFFFF
FFFFFFFF
ENDCHAR
STARTCHAR 004A
ENCODING 74
SWIDTH 281 0
DWIDTH 36 0
BBX 32 56 0 0
BITMAP
0000FFFF
0000FFFF
0000FFFF
0000FFFF
0000FFFF
0000FFFF
0000FFFF
0000FFFF
000000FF
000000FF
000000FF
000000FF
000000FF
000000FF
000000FF
000000FF
000000FF
000000FF
000000FF
000000FF
000000FF
000000FF
000000FF
000000FF
000000FF
000000FF
000000FF
000000FF
000000FF
000000FF
000000FF
000000FF
000000FF
000000FF
000000FF
000000FF
000000FF
000000FF
000000FF
000000FF
FF0000FF
FF0000FF
FF0000FF
FF0000FF
FF8001FF
FFC003FF
FFE007FF
FFF00FFF
FFFFFFFF
7FFFFFFE
3FFFFFFC
1FFFFFF8
0FFFFFF0
07FFFFE0
03FFFFC0
01FFFF80
ENDCHAR
STARTCHAR 004B
ENCODING 75
SWIDTH 281 0
DWIDTH 36 0
BBX 32 56 0 0
BITMAP
FF0000FF
FF0000FF
FF0000FF
FF0000FF
FF0000FF
FF0000FF
FF0000FF
FF0000FF
FF0000FF
FF0000FF
FF0000FF
FF0000FF
FF0000FF
FF0000FF
FF0000FF
FF0000FF
FF0000FF
FF0000FF
FF0001FF
FF0007FF
FF001FFF
FF007FFF
FF01FFFE
FF07FFF8
FF1FFFE0
FF7FFF80
FFFFFE00
FFFFF800
FFFFF800
FFFFFE00
FFFFFF80
FFFFFFE0
FFE7FFF8
FF81FFFE
FF007FFF
FF001FFF
FF0007FF
FF0001FF
FF0000FF
FF0000FF
FF0000FF
FF0000FF
FF0000FF
FF0000FF
FF0000FF
FF0000FF
FF0000FF
FF0000FF
FF0000FF
FF0000FF
FF0000FF
FF0000FF
FF0000FF
FF0000FF
FF0000FF
FF0000FF
ENDCHAR
STARTCHAR 004C
ENCODING 76
SWIDTH 281 0
DWIDTH 36 0
BBX 32 56 0 0
BITMAP
FF000000
FF000000
FF000000
FF000000
FF000000
FF000000
FF000000
FF000000
FF000000
FF000000
FF000000
FF000000
FF000000
FF000000
FF000000
FF000000
FF000000
FF000000
FF000000
FF000000
FF000000
FF000000
FF000000
FF000000
FF000000
FF000000
FF000000
FF000000
FF000000
FF000000
FF000000
FF000000
FF000000
FF000000
FF000000
FF000000
FF000000
FF000000
FF000000
FF000000
FF000000
FF000000
FF000000
FF000000
FF000000
FF000000
FF000000
FF000000
FFFFFFFF
FFFFFFFF
FFFFFFFF
FFFFFFFF
FFFFFFFF
FFFFFFFF
FFFFFFFF
FFFFFFFF
ENDCHAR
STARTCHAR 004D
ENCODING 77
SWIDTH 281 0
DWIDTH 36 0
BBX 32 56 0 0
BITMAP
FF0000FF
FF8001FF
FF8001FF
FFC003FF
FFC003FF
FFE007FF
FFE007FF
FFF00FFF
FFF00FFF
FFF81FFF
FFF81FFF
FFFC3FFF
FFFC3FFF
FFFE7FFF
FFFE7FFF
FFFFFFFF
FFFFFFFF
FF7FFEFF
FF7FFEFF
FF3FFCFF
FF3FFCFF
FF1FF8FF
FF1FF8FF
FF0FF0FF
FF0FF0FF
FF07E0FF
FF07E0FF
FF03C0FF
FF03C0FF
FF0180FF
FF0180FF
FF0100FF
FF0000FF
FF0000FF
FF0000FF
FF0000FF
FF0000FF
FF0000FF
FF0000FF
FF0000FF
FF0000FF
FF0000FF
FF0000FF
FF0000FF
FF0000FF
FF0000FF
FF0000FF
FF0000FF
FF0000FF
FF0000FF
FF0000FF
FF0000FF
FF0000FF
FF0000FF
FF0000FF
FF0000FF
ENDCHAR
STARTCHAR 004E
ENCODING 78
SWIDTH 281 0
DWIDTH 36 0
BBX 32 56 0 0
BITMAP
FC0000FF
FE0000FF
FE0000FF
FF0000FF
FF0000FF
FF8000FF
FF8000FF
FFC000FF
FFC000FF
FFE000FF
FFE000FF
FFF000FF
FFF000FF
FFF800FF
FFF800FF
FFFC00FF
FFFC00FF
FFFE00FF
FFFE00FF
FFFF00FF
FFFF00FF
FF7F80FF
FF7F80FF
FF3FC0FF
FF3FC0FF
FF1FE0FF
FF1FE0FF
FF0FF0FF
FF0FF0FF
FF07F8FF
FF07F8FF
FF03FCFF
FF03FCFF
FF01FEFF
FF01FEFF
FF00FFFF
FF00FFFF
FF007FFF
FF007FFF
FF003FFF
FF003FFF
FF001FFF
FF001FFF
FF000FFF
FF000FFF
FF0007FF
FF0007FF
FF0003FF
FF0003FF
FF0001FF
FF0001FF
FF0000FF
FF0000FF
FF00007F
FF00007F
FF00003F
ENDCHAR
STARTCHAR 004F
ENCODING 79
SWIDTH 281 0
DWIDTH 36 0
BBX 32 56 0 0
BITMAP
01FFFF80
03FFFFC0
07FFFFE0
0FFFFFF0
1FFFFFF8
3FFFFFFC
7FFFFFFE
FFFFFFFF
FFF00FFF
FFE007FF
FFC003FF
FF8001FF
FF0000FF
FF0000FF
FF0000FF
FF0000FF
FF0000FF
FF0000FF
FF0000FF
FF0000FF
FF0000FF
FF0000FF
FF0000FF
FF0000FF
FF0000FF
FF0000FF
FF0000FF
FF0000FF
FF0000FF
FF0000FF
FF0000FF
FF0000FF
FF0000FF
FF0000FF
FF0000FF
FF0000FF
FF0000FF
FF0000FF
FF0000FF
FF0000FF
FF0000FF
FF0000FF
FF0000FF
FF0000FF
FF8001FF
FFC003FF
FFE007FF
FFF00FFF
FFFFFFFF
7FFFFFFE
3FFFFFFC
1FFFFFF8
0FFFFFF0
07FFFFE0
03FFFFC0
01FFFF80
ENDCHAR
STARTCHAR 0050
ENCODING 80
SWIDTH 281 0
DWIDTH 36 0
BBX 32 56 0 0
BITMAP
FFFFFF80
FFFFFFC0
FFFFFFE0
FFFFFFF0
FFFFFFF8
FFFFFFFC
FFFFFFFE
FFFFFFFF
FF000FFF
FF0007FF
FF0003FF
FF0001FF
FF0000FF
FF0000FF
FF0000FF
FF0000FF
FF0000FF
FF0000FF
FF0000FF
FF0000FF
FF0001FF
FF0003FF
FF0007FF
FF000FFF
FFFFFFFF
FFFFFFFE
FFFFFFFC
FFFFFFF8
FFFFFFF0
FFFFFFE0
FFFFFFC0
FFFFFF80
FF000000
FF000000
FF000000
FF000000
FF000000
FF000000
FF000000
FF000000
FF000000
FF000000
FF000000
FF000000
FF000000
FF000000
FF000000
FF000000
FF000000
FF000000
FF000000
FF000000
FF000000
FF000000
FF000000
FF000000
ENDCHAR
STARTCHAR 0051
ENCODING 81
SWIDTH 281 0
DWIDTH 36 0
BBX 32 68 0 -12
BITMAP
01FFFF80
03FFFFC0
07FFFFE0
0FFFFFF0
1FFFFFF8
3FFFFFFC
7FFFFFFE
FFFFFFFF
FFF00FFF
FFE007FF
FFC003FF
FF8001FF
FF0000FF
FF0000FF
FF0000FF
FF0000FF
FF0000FF
FF0000FF
FF0000FF
FF0000FF
FF0000FF
FF0000FF
FF0000FF
FF0000FF
FF0000FF
FF0000FF
FF0000FF
FF0000FF
FF0000FF
FF0000FF
FF0000FF
FF0000FF
FF0000FF
FF0000FF
FF0000FF
FF0000FF
FF0000FF
FF0000FF
FF0000FF
FF0000FF
FF0000FF
FF0000FF
FF0000FF
FF0000FF
FF8001FF
FFC003FF
FFE007FF
FFF00FFF
FFFFFFFF
7FFFFFFE
3FFFFFFC
1FFFFFF8
0FFFFFF0
07FFFFE0
03FFFFC0
01FFFF80
000FF000
000FF000
000FF800
000FFC00
000FFFF0
000FFFF0
000FFFF0
000FFFF0
000FFFF0
0007FFF0
0003FFF0
0001FFF0
ENDCHAR
STARTCHAR 0052
ENCODING 82
SWIDTH 281 0
DWIDTH 36 0
BBX 32 56 0 0
BITMAP
FFFFFF80
FFFFFFC0
FFFFFFE0
FFFFFFF0
FFFFFFF8
FFFFFFFC
FFFFFFFE
FFFFFFFF
FF000FFF
FF0007FF
FF0003FF
FF0001FF
FF0000FF
FF0000FF
FF0000FF
FF0000FF
FF0000FF
FF0000FF
FF0000FF
FF0000FF
FF0001FF
FF0003FF
FF0007FF
FF000FFF
FFFFFFFF
FFFFFFFE
FFFFFFFC
FFFFFFF8
FFFFFFF0
FFFFFFE0
FFFFFFC0
FFFFFF80
FF00FF00
FF007F80
FF007F80
FF003FC0
FF003FC0
FF001FE0
FF001FE0
FF000FF0
FF000FF0
FF0007F8
FF0007F8
FF0003FC
FF0003FC
FF0001FE
FF0001FE
FF0000FF
FF0000FF
FF0000FF
FF0000FF
FF0000FF
FF0000FF
FF0000FF
FF0000FF
FF0000FF
ENDCHAR
STARTCHAR 0053
ENCODING 83
SWIDTH 281 0
DWIDTH 36 0
BBX 32 56 0 0
BITMAP
01FFFF80
03FFFFC0
07FFFFE0
0FFFFFF0
1FFFFFF8
3FFFFFFC
7FFFFFFE
FFFFFFFF
FFF00FFF
FFE007FF
FFC003FF
FF8001FF
FF0000FF
FF0000FF
FF0000FF
FF0000FF
FF000000
FF000000
FF000000
FF000000
FF800000
FFC00000
FFE00000
FFF00000
FFFFFF80
7FFFFFC0
3FFFFFE0
1FFFFFF0
0FFFFFF8
07FFFFFC
03FFFFFE
01FFFFFF
00000FFF
000007FF
000003FF
000001FF
000000FF
000000FF
000000FF
000000FF
FF0000FF
FF0000FF
FF0000FF
FF0000FF
FF8001FF
FFC003FF
FFE007FF
FFF00FFF
FFFFFFFF
7FFFFFFE
3FFFFFFC
1FFFFFF8
0FFFFFF0
07FFFFE0
03FFFFC0
01FFFF80
ENDCHAR
STARTCHAR 0054
ENCODING 84
SWIDTH 281 0
DWIDTH 36 0
BBX 32 56 0 0
BITMAP
FFFFFFFF
FFFFFFFF
FFFFFFFF
FFFFFFFF
FFFFFFFF
FFFFFFFF
FFFFFFFF
FFFFFFFF
000FF000
000FF000
000FF000
000FF000
000FF000
000FF000
000FF000
000FF000
000FF000
000FF000
000FF000
000FF000
000FF000
000FF000
000FF000
000FF000
000FF000
000FF000
000FF000
000FF000
000FF000
000FF000
000FF000
000FF000
000FF000
000FF000
000FF000
000FF000
000FF000
000FF000
000FF000
000FF000
000FF000
000FF000
000FF000
000FF000
000FF000
000FF000
000FF000
000FF000
000FF000
000FF000
000FF000
000FF000
000FF000
000FF000
000FF000
000FF000
ENDCHAR
STARTCHAR 0055
ENCODING 85
SWIDTH 281 0
DWIDTH 36 0
BBX 32 56 0 0
BITMAP
FF0000FF
FF0000FF
FF0000FF
FF0000FF
FF0000FF
FF0000FF
FF0000FF
FF0000FF
FF0000FF
FF0000FF
FF0000FF
FF0000FF
FF0000FF
FF0000FF
FF0000FF
FF0000FF
FF0000FF
FF0000FF
FF0000FF
FF0000FF
FF0000FF
FF0000FF
FF0000FF
FF0000FF
FF0000FF
FF0000FF
FF0000FF
FF0000FF
FF0000FF
FF0000FF
FF0000FF
FF0000FF
FF0000FF
FF0000FF
FF0000FF
FF0000FF
FF0000FF
FF0000FF
FF0000FF
FF0000FF
FF0000FF
FF0000FF
FF0000FF
FF0000FF
FF8001FF
FFC003FF
FFE007FF
FFF00FFF
FFFFFFFF
7FFFFFFE
3FFFFFFC
1FFFFFF8
0FFFFFF0
07FFFFE0
03FFFFC0
01FFFF80
ENDCHAR
STARTCHAR 0056
ENCODING 86
SWIDTH 281 0
DWIDTH 36 0
BBX 32 56 0 0
BITMAP
FF0000FF
FF0000FF
FF0000FF
FF0000FF
FF0000FF
FF0000FF
FF0000FF
FF0000FF
FF0000FF
FF0000FF
FF0000FF
FF0000FF
FF0000FF
FF0000FF
FF0000FF
FF0000FF
FF0000FF
FF0000FF
FF0000FF
FF0000FF
FF0000FF
FF0000FF
FF0000FF
FF0000FF
FF0000FF
FF0000FF
FF0000FF
FF0000FF
FF0000FF
FF0000FF
FF0000FF
FF0000FF
FF0000FF
7F8001FE
7F8001FE
3FC003FC
3FC003FC
1FE007F8
1FE007F8
0FF00FF0
0FF00FF0
07F81FE0
07F81FE0
03FC3FC0
03FC3FC0
01FE7F80
01FE7F80
00FFFF00
00FFFF00
007FFE00
007FFE00
003FFC00
003FFC00
001FF800
001FF800
000FF000
ENDCHAR
STARTCHAR 0057
ENCODING 87
SWIDTH 281 0
DWIDTH 36 0
BBX 32 56 0 0
BITMAP
FF0000FF
FF0000FF
FF0000FF
FF0000FF
FF0000FF
FF0000FF
FF0000FF
FF0000FF
FF0000FF
FF0000FF
FF0000FF
FF0000FF
FF0000FF
FF0000FF
FF0000FF
FF0000FF
FF0000FF
FF0000FF
FF0000FF
FF0000FF
FF0000FF
FF0000FF
FF0000FF
FF0000FF
FF0100FF
FF0180FF
FF0180FF
FF03C0FF
FF03C0FF
FF07E0FF
FF07E0FF
FF0FF0FF
FF0FF0FF
FF1FF8FF
FF1FF8FF
FF3FFCFF
FF3FFCFF
FF7FFEFF
FF7FFEFF
FFFFFFFF
FFFFFFFF
FFFE7FFF
FFFE7FFF
FFFC3FFF
FFFC3FFF
FFF81FFF
FFF81FFF
FFF00FFF
FFF00FFF
FFE007FF
FFE007FF
FFC003FF
FFC003FF
FF8001FF
FF8001FF
FF0000FF
ENDCHAR
STARTCHAR 0058
ENCODING 88
SWIDTH 281 0
DWIDTH 36 0
BBX 32 56 0 0
BITMAP
FF0000FF
FF0000FF
FF0000FF
FF0000FF
FF0000FF
7F8001FE
7F8001FE
3FC003FC
3FC003FC
1FE007F8
1FE007F8
0FF00FF0
0FF00FF0
07F81FE0
07F81FE0
03FC3FC0
03FC3FC0
01FE7F80
01FE7F80
00FFFF00
00FFFF00
007FFE00
007FFE00
003FFC00
003FFC00
001FF800
001FF800
000FF000
000FF000
001FF800
001FF800
003FFC00
003FFC00
007FFE00
007FFE00
00FFFF00
00FFFF00
01FE7F80
01FE7F80
03FC3FC0
03FC3FC0
07F81FE0
07F81FE0
0FF00FF0
0FF00FF0
1FE007F8
1FE007F8
3FC003FC
3FC003FC
7F8001FE
7F8001FE
FF0000FF
FF0000FF
FF0000FF
FF0000FF
FF0000FF
ENDCHAR
STARTCHAR 0059
ENCODING 89
SWIDTH 281 0
DWIDTH 36 0
BBX 32 56 0 0
BITMAP
FF0000FF
FF0000FF
FF0000FF
FF0000FF
FF0000FF
7F8001FE
7F8001FE
3FC003FC
3FC003FC
1FE007F8
1FE007F8
0FF00FF0
0FF00FF0
07F81FE0
07F81FE0
03FC3FC0
03FC3FC0
01FE7F80
01FE7F80
00FFFF00
00FFFF00
007FFE00
007FFE00
003FFC00
003FFC00
001FF800
001FF800
000FF000
000FF000
000FF000
000FF000
000FF000
000FF000
000FF000
000FF000
000FF000
000FF000
000FF000
000FF000
000FF000
000FF000
000FF000
000FF000
000FF000
000FF000
000FF000
000FF000
000FF000
000FF000
000FF000
000FF000
000FF000
000FF000
000FF000
000FF000
000FF000
ENDCHAR
STARTCHAR 005A
ENCODING 90
SWIDTH 281 0
DWIDTH 36 0
BBX 32 56 0 0
BITMAP
FFFFFFFF
FFFFFFFF
FFFFFFFF
FFFFFFFF
FFFFFFFF
FFFFFFFE
FFFFFFFE
FFFFFFFC
000003FC
000007F8
000007F8
00000FF0
00000FF0
00001FE0
00001FE0
00003FC0
00003FC0
00007F80
00007F80
0000FF00
0000FF00
0001FE00
0001FE00
0003FC00
0003FC00
0007F800
0007F800
000FF000
000FF000
001FE000
001FE000
003FC000
003FC000
007F8000
007F8000
00FF0000
00FF0000
01FE0000
01FE0000
03FC0000
03FC0000
07F80000
07F80000
0FF00000
0FF00000
1FE00000
1FE00000
3FC00000
3FFFFFFF
7FFFFFFF
7FFFFFFF
FFFFFFFF
FFFFFFFF
FFFFFFFF
FFFFFFFF
FFFFFFFF
ENDCHAR
STARTCHAR 005B
ENCODING 91
SWIDTH 281 0
DWIDTH 36 0
BBX 16 72 8 -8
BITMAP
FFFF
FFFF
FFFF
FFFF
FFFF
FFFF
FFFF
FFFF
FF00
FF00
FF00
FF00
FF00
FF00
FF00
FF00
FF00
FF00
FF00
FF00
FF00
FF00
FF00
FF00
FF00
FF00
FF00
FF00
FF00
FF00
FF00
FF00
FF00
FF00
FF00
FF00
FF00
FF00
FF00
FF00
FF00
FF00
FF00
FF00
FF00
FF00
FF00
FF00
FF00
FF00
FF00
FF00
FF00
FF00
FF00
FF00
FF00
FF00
FF00
FF00
FF00
FF00
FF00
FF00
FFFF
FFFF
FFFF
FFFF
FFFF
FFFF
FFFF
FFFF
ENDCHAR
STARTCHAR 005C
ENCODING 92
SWIDTH 281 0
DWIDTH 36 0
BBX 32 56 0 0
BITMAP
FF000000
FF000000
FF000000
FF000000
FF000000
7F800000
7F800000
3FC00000
3FC00000
1FE00000
1FE00000
0FF00000
0FF00000
07F80000
07F80000
03FC0000
03FC0000
01FE0000
01FE0000
00FF0000
00FF0000
007F8000
007F8000
003FC000
003FC000
001FE000
001FE000
000FF000
000FF000
0007F800
0007F800
0003FC00
0003FC00
0001FE00
0001FE00
0000FF00
0000FF00
00007F80
00007F80
00003FC0
00003FC0
00001FE0
00001FE0
00000FF0
00000FF0
000007F8
000007F8
000003FC
000003FC
000001FE
000001FE
000000FF
000000FF
000000FF
000000FF
000000FF
ENDCHAR
STARTCHAR 005D
ENCODING 93
SWIDTH 281 0
DWIDTH 36 0
BBX 16 72 8 -8
BITMAP
FFFF
FFFF
FFFF
FFFF
FFFF
FFFF
FFFF
FFFF
00FF
00FF
00FF
00FF
00FF
00FF
00FF
00FF
00FF
00FF
00FF
00FF
00FF
00FF
00FF
00FF
00FF
00FF
00FF
00FF
00FF
00FF
00FF
00FF
00FF
00FF
00FF
00FF
00FF
00FF
00FF
00FF
00FF
00FF
00FF
00FF
00FF
00FF
00FF
00FF
00FF
00FF
00FF
00FF
00FF
00FF
00FF
00FF
00FF
00FF
00FF
00FF
00FF
00FF
00FF
00FF
FFFF
FFFF
FFFF
FFFF
FFFF
FFFF
FFFF
FFFF
ENDCHAR
STARTCHAR 005E
ENCODING 94
SWIDTH 281 0
DWIDTH 36 0
BBX 24 24 4 32
BITMAP
001000
001800
001800
003C00
003C00
007E00
007E00
00FF00
00FF00
01FF80
01FF80
03FFC0
03FFC0
07E7E0
07E7E0
0FC3F0
0FC3F0
1F81F8
1F81F8
3F00FC
3F00FC
7E007E
7E007E
FC003F
ENDCHAR
STARTCHAR 005F
ENCODING 95
SWIDTH 281 0
DWIDTH 36 0
BBX 32 8 0 -8
BITMAP
FFFFFFFF
FFFFFFFF
FFFFFFFF
FFFFFFFF
FFFFFFFF
FFFFFFFF
FFFFFFFF
FFFFFFFF
ENDCHAR
STARTCHAR 0060
ENCODING 96
SWIDTH 281 0
DWIDTH 36 0
BBX 16 20 8 36
BITMAP
FC00
7E00
7E00
3F00
3F00
1F80
1F80
0FC0
0FC0
07E0
07E0
03F0
03F0
01F8
01F8
00FC
00FC
007E
007E
003F
ENDCHAR
STARTCHAR 0061
ENCODING 97
SWIDTH 281 0
DWIDTH 36 0
BBX 32 40 0 0
BITMAP
01FFF8FF
03FFFCFF
07FFFEFF
0FFFFFFF
1FFFFFFF
3FFFFFFF
7FFFFFFF
FFFFFFFF
FFF00FFF
FFE007FF
FFC003FF
FF8001FF
FF0000FF
FF0000FF
FF0000FF
FF0000FF
FF0000FF
FF0000FF
FF0000FF
FF0000FF
FF0000FF
FF0000FF
FF0000FF
FF0000FF
FF0000FF
FF0000FF
FF0000FF
FF0000FF
FF8001FF
FFC003FF
FFE007FF
FFF00FFF
FFFFFFFF
7FFFFFFF
3FFFFFFF
1FFFFFFF
0FFFFFFF
07FFFEFF
03FFFCFF
01FFF8FF
ENDCHAR
STARTCHAR 0062
ENCODING 98
SWIDTH 281 0
DWIDTH 36 0
BBX 32 56 0 0
BITMAP
FF000000
FF000000
FF000000
FF000000
FF000000
FF000000
FF000000
FF000000
FF000000
FF000000
FF000000
FF000000
FF000000
FF000000
FF000000
FF000000
FF1FFF80
FF3FFFC0
FF7FFFE0
FFFFFFF0
FFFFFFF8
FFFFFFFC
FFFFFFFE
FFFFFFFF
FFF00FFF
FFE007FF
FFC003FF
FF8001FF
FF0000FF
FF0000FF
FF0000FF
FF0000FF
FF0000FF
FF0000FF
FF0000FF
FF0000FF
FF0000FF
FF0000FF
FF0000FF
FF0000FF
FF0000FF
FF0000FF
FF0000FF
FF0000FF
FF8001FF
FFC003FF
FFE007FF
FFF00FFF
FFFFFFFF
FFFFFFFE
FFFFFFFC
FFFFFFF8
FFFFFFF0
FF7FFFE0
FF3FFFC0
FF1FFF80
ENDCHAR
STARTCHAR 0063
ENCODING 99
SWIDTH 281 0
DWIDTH 36 0
BBX 32 40 0 0
BITMAP
01FFFF80
03FFFFC0
07FFFFE0
0FFFFFF0
1FFFFFF8
3FFFFFFC
7FFFFFFE
FFFFFFFF
FFF00FFF
FFE007FF
FFC003FF
FF8001FF
FF0000FF
FF0000FF
FF000000
FF000000
FF000000
FF000000
FF000000
FF000000
FF000000
FF000000
FF000000
FF000000
FF000000
FF000000
FF0000FF
FF0000FF
FF8001FF
FFC003FF
FFE007FF
FFF00FFF
FFFFFFFF
7FFFFFFE
3FFFFFFC
1FFFFFF8
0FFFFFF0
07FFFFE0
03FFFFC0
01FFFF80
ENDCHAR
STARTCHAR 0064
ENCODING 100
SWIDTH 281 0
DWIDTH 36 0
BBX 32 56 0 0
BITMAP
000000FF
000000FF
000000FF
000000FF
000000FF
000000FF
000000FF
000000FF
000000FF
000000FF
000000FF
000000FF
000000FF
000000FF
000000FF
000000FF
01FFF8FF
03FFFCFF
07FFFEFF
0FFFFFFF
1FFFFFFF
3FFFFFFF
7FFFFFFF
FFFFFFFF
FFF00FFF
FFE007FF
FFC003FF
FF8001FF
FF0000FF
FF0000FF
FF0000FF
FF0000FF
FF0000FF
FF0000FF
FF0000FF
FF0000FF
FF0000FF
FF0000FF
FF0000FF
FF0000FF
FF0000FF
FF0000FF
FF0000FF
FF0000FF
FF8001FF
FFC003FF
FFE007FF
FFF00FFF
FFFFFFFF
7FFFFFFF
3FFFFFFF
1FFFFFFF
0FFFFFFF
07FFFEFF
03FFFCFF
01FFF8FF
ENDCHAR
STARTCHAR 0065
ENCODING 101
SWIDTH 281 0
DWIDTH 36 0
BBX 32 40 0 0
BITMAP
01FFFF80
03FFFFC0
07FFFFE0
0FFFFFF0
1FFFFFF8
3FFFFFFC
7FFFFFFE
FFFFFFFF
FFF00FFF
FFE007FF
FFC003FF
FF8001FF
FF0000FF
FF0000FF
FF0000FF
FF0000FF
FFFFFFFF
FFFFFFFF
FFFFFFFF
FFFFFFFF
FFFFFFFF
FFFFFFFF
FFFFFFFF
FFFFFFFF
FF000000
FF000000
FF000000
FF000000
FF8001FF
FFC003FF
FFE007FF
FFF00FFF
FFFFFFFF
7FFFFFFE
3FFFFFFC
1FFFFFF8
0FFFFFF0
07FFFFE0
03FFFFC0
01FFFF80
ENDCHAR
STARTCHAR 0066
ENCODING 102
SWIDTH 281 0
DWIDTH 36 0
BBX 32 56 0 0
BITMAP
001FFF80
003FFFC0
007FFFE0
00FFFFF0
01FFFFF8
03FFFFFC
07FFFFFE
0FFFFFFF
0FFF0FFF
0FFE07FF
0FFC03FF
0FF801FF
0FF00000
0FF00000
0FF00000
0FF00000
FFFFFFF0
FFFFFFF0
FFFFFFF0
FFFFFFF0
FFFFFFF0
FFFFFFF0
FFFFFFF0
FFFFFFF0
0FF00000
0FF00000
0FF00000
0FF00000
0FF00000
0FF00000
0FF00000
0FF00000
0FF00000
0FF00000
0FF00000
0FF00000
0FF00000
0FF00000
0FF00000
0FF00000
0FF00000
0FF00000
0FF00000
0FF00000
0FF00000
0FF00000
0FF00000
0FF00000
0FF00000
0FF00000
0FF00000
0FF00000
0FF00000
0FF00000
0FF00000
0FF00000
ENDCHAR
STARTCHAR 0067
ENCODING 103
SWIDTH 281 0
DWIDTH 36 0
BBX 32 60 0 -20
BITMAP
01FFF8FF
03FFFCFF
07FFFEFF
0FFFFFFF
1FFFFFFF
3FFFFFFF
7FFFFFFF
FFFFFFFF
FFF00FFF
FFE007FF
FFC003FF
FF8001FF
FF0000FF
FF0000FF
FF0000FF
FF0000FF
FF0000FF
FF0000FF
FF0000FF
FF0000FF
FF0000FF
FF0000FF
FF0000FF
FF0000FF
FF0000FF
FF0000FF
FF0000FF
FF0000FF
FF8001FF
FFC003FF
FFE007FF
FFF00FFF
FFFFFFFF
7FFFFFFF
3FFFFFFF
1FFFFFFF
0FFFFFFF
07FFFEFF
03FFFCFF
01FFF8FF
000000FF
000000FF
000000FF
000000FF
FF0000FF
FF0000FF
FF0000FF
FF0000FF
FF8001FF
FFC003FF
FFE007FF
FFF00FFF
FFFFFFFF
7FFFFFFE
3FFFFFFC
1FFFFFF8
0FFFFFF0
07FFFFE0
03FFFFC0
01FFFF80
ENDCHAR
STARTCHAR 0068
ENCODING 104
SWIDTH 281 0
DWIDTH 36 0
BBX 32 56 0 0
BITMAP
FF000000
FF000000
FF000000
FF000000
FF000000
FF000000
FF000000
FF000000
FF000000
FF000000
FF000000
FF000000
FF000000
FF000000
FF000000
FF000000
FF1FFF80
FF3FFFC0
FF7FFFE0
FFFFFFF0
FFFFFFF8
FFFFFFFC
FFFFFFFE
FFFFFFFF
FFF00FFF
FFE007FF
FFC003FF
FF8001FF
FF0000FF
FF0000FF
FF0000FF
FF0000FF
FF0000FF
FF0000FF
FF0000FF
FF0000FF
FF0000FF
FF0000FF
FF0000FF
FF0000FF
FF0000FF
FF0000FF
FF0000FF
FF0000FF
FF0000FF
FF0000FF
FF0000FF
FF0000FF
FF0000FF
FF0000FF
FF0000FF
FF0000FF
FF0000FF
FF0000FF
FF0000FF
FF0000FF
ENDCHAR
STARTCHAR 0069
ENCODING 105
SWIDTH 281 0
DWIDTH 36 0
BBX 32 56 0 0
BITMAP
000FF000
000FF000
000FF000
000FF000
000FF000
000FF000
000FF000
000FF000
00000000
00000000
00000000
00000000
00000000
00000000
00000000
00000000
00FFF000
00FFF000
00FFF000
00FFF000
00FFF000
00FFF000
00FFF000
00FFF000
000FF000
000FF000
000FF000
000FF000
000FF000
000FF000
000FF000
000FF000
000FF000
000FF000
000FF000
000FF000
000FF000
000FF000
000FF000
000FF000
000FF000
000FF000
000FF000
000FF000
000FF000
000FF000
000FF000
000FF000
FFFFFFFF
FFFFFFFF
FFFFFFFF
FFFFFFFF
FFFFFFFF
FFFFFFFF
FFFFFFFF
FFFFFFFF
ENDCHAR
STARTCHAR 006A
ENCODING 106
SWIDTH 281 0
DWIDTH 36 0
BBX 32 76 0 -20
BITMAP
000000FF
000000FF
000000FF
000000FF
000000FF
000000FF
000000FF
000000FF
00000000
00000000
00000000
00000000
00000000
00000000
00000000
00000000
00000FFF
00000FFF
00000FFF
00000FFF
00000FFF
00000FFF
00000FFF
00000FFF
000000FF
000000FF
000000FF
000000FF
000000FF
000000FF
000000FF
000000FF
000000FF
000000FF
000000FF
000000FF
000000FF
000000FF
000000FF
000000FF
000000FF
000000FF
000000FF
000000FF
000000FF
000000FF
000000FF
000000FF
000000FF
000000FF
000000FF
000000FF
000000FF
000000FF
000000FF
000000FF
000000FF
000000FF
000000FF
000000FF
FF0000FF
FF0000FF
FF0000FF
FF0000FF
FF8001FF
FFC003FF
FFE007FF
FFF00FFF
FFFFFFFF
7FFFFFFE
3FFFFFFC
1FFFFFF8
0FFFFFF0
07FFFFE0
03FFFFC0
01FFFF80
ENDCHAR
STARTCHAR 006B
ENCODING 107
SWIDTH 281 0
DWIDTH 36 0
BBX 32 56 0 0
BITMAP
FF000000
FF000000
FF000000
FF000000
FF000000
FF000000
FF000000
FF000000
FF000000
FF000000
FF000000
FF000000
FF000000
FF000000
FF000000
FF000000
FF0000FF
FF0000FF
FF0000FF
FF0000FF
FF0000FF
FF0000FF
FF0000FF
FF0000FF
FF0001FF
FF0007FF
FF001FFF
FF007FFF
FF01FFFE
FF07FFF8
FF1FFFE0
FF7FFF80
FFFFFE00
FFFFF800
FFFFF800
FFFFFE00
FFFFFF80
FFFFFFE0
FFE7FFF8
FF81FFFE
FF007FFF
FF001FFF
FF0007FF
FF0001FF
FF0000FF
FF0000FF
FF0000FF
FF0000FF
FF0000FF
FF0000FF
FF0000FF
FF0000FF
FF0000FF
FF0000FF
FF0000FF
FF0000FF
ENDCHAR
STARTCHAR 006C
ENCODING 108
SWIDTH 281 0
DWIDTH 36 0
BBX 32 56 0 0
BITMAP
0FFFF000
0FFFF000
0FFFF000
0FFFF000
0FFFF000
0FFFF000
0FFFF000
0FFFF000
000FF000
000FF000
000FF000
000FF000
000FF000
000FF000
000FF000
000FF000
000FF000
000FF000
000FF000
000FF000
000FF000
000FF000
000FF000
000FF000
000FF000
000FF000
000FF000
000FF000
000FF000
000FF000
000FF000
000FF000
000FF000
000FF000
000FF000
000FF000
000FF000
000FF000
000FF000
000FF000
000FF000
000FF000
000FF000
000FF000
000FF000
000FF000
000FF000
000FF000
FFFFFFFF
FFFFFFFF
FFFFFFFF
FFFFFFFF
FFFFFFFF
FFFFFFFF
FFFFFFFF
FFFFFFFF
ENDCHAR
STARTCHAR 006D
ENCODING 109
SWIDTH 281 0
DWIDTH 36 0
BBX 32 40 0 0
BITMAP
FF1F9F80
FF3FFFC0
FF7FFFE0
FFFFFFF0
FFFFFFF8
FFFFFFFC
FFFFFFFE
FFFFFFFF
FFFFFFFF
FFFFFFFF
FFFFFFFF
FF9FF9FF
FF0FF0FF
FF0FF0FF
FF0FF0FF
FF0FF0FF
FF0FF0FF
FF0FF0FF
FF0FF0FF
FF0FF0FF
FF0FF0FF
FF0FF0FF
FF0FF0FF
FF0FF0FF
FF0FF0FF
FF0FF0FF
FF0FF0FF
FF0FF0FF
FF0FF0FF
FF0FF0FF
FF0FF0FF
FF0FF0FF
FF0FF0FF
FF0FF0FF
FF0FF0FF
FF0FF0FF
FF0FF0FF
FF0FF0FF
FF0FF0FF
FF0FF0FF
ENDCHAR
STARTCHAR 006E
ENCODING 110
SWIDTH 281 0
DWIDTH 36 0
BBX 32 40 0 0
BITMAP
FF1FFF80
FF3FFFC0
FF7FFFE0
FFFFFFF0
FFFFFFF8
FFFFFFFC
FFFFFFFE
FFFFFFFF
FFF00FFF
FFE007FF
FFC003FF
FF8001FF
FF0000FF
FF0000FF
FF0000FF
FF0000FF
FF0000FF
FF0000FF
FF0000FF
FF0000FF
FF0000FF
FF0000FF
FF0000FF
FF0000FF
FF0000FF
FF0000FF
FF0000FF
FF0000FF
FF0000FF
FF0000FF
FF0000FF
FF0000FF
FF0000FF
FF0000FF
FF0000FF
FF0000FF
FF0000FF
FF0000FF
FF0000FF
FF0000FF
ENDCHAR
STARTCHAR 006F
ENCODING 111
SWIDTH 281 0
DWIDTH 36 0
BBX 32 40 0 0
BITMAP
01FFFF80
03FFFFC0
07FFFFE0
0FFFFFF0
1FFFFFF8
3FFFFFFC
7FFFFFFE
FFFFFFFF
FFF00FFF
FFE007FF
FFC003FF
FF8001FF
FF0000FF
FF0000FF
FF0000FF
FF0000FF
FF0000FF
FF0000FF
FF0000FF
FF0000FF
FF0000FF
FF0000FF
FF0000FF
FF0000FF
FF0000FF
FF0000FF
FF0000FF
FF0000FF
FF8001FF
FFC003FF
FFE007FF
FFF00FFF
FFFFFFFF
7FFFFFFE
3FFFFFFC
1FFFFFF8
0FFFFFF0
07FFFFE0
03FFFFC0
01FFFF80
ENDCHAR
STARTCHAR 0070
ENCODING 112
SWIDTH 281 0
DWIDTH 36 0
BBX 32 60 0 -20
BITMAP
FF1FFF80
FF3FFFC0
FF7FFFE0
FFFFFFF0
FFFFFFF8
FFFFFFFC
FFFFFFFE
FFFFFFFF
FFF00FFF
FFE007FF
FFC003FF
FF8001FF
FF0000FF
FF0000FF
FF0000FF
FF0000FF
FF0000FF
FF0000FF
FF0000FF
FF0000FF
FF0000FF
FF0000FF
FF0000FF
FF0000FF
FF0000FF
FF0000FF
FF0000FF
FF0000FF
FF8001FF
FFC003FF
FFE007FF
FFF00FFF
FFFFFFFF
FFFFFFFE
FFFFFFFC
FFFFFFF8
FFFFFFF0
FF7FFFE0
FF3FFFC0
FF1FFF80
FF000000
FF000000
FF000000
FF000000
FF000000
FF000000
FF000000
FF000000
FF000000
FF000000
FF000000
FF000000
FF000000
FF000000
FF000000
FF000000
FF000000
FF000000
FF000000
FF000000
ENDCHAR
STARTCHAR 0071
ENCODING 113
SWIDTH 281 0
DWIDTH 36 0
BBX 32 60 0 -20
BITMAP
01FFF8FF
03FFFCFF
07FFFEFF
0FFFFFFF
1FFFFFFF
3FFFFFFF
7FFFFFFF
FFFFFFFF
FFF00FFF
FFE007FF
FFC003FF
FF8001FF
FF0000FF
FF0000FF
FF0000FF
FF0000FF
FF0000FF
FF0000FF
FF0000FF
FF0000FF
FF0000FF
FF0000FF
FF0000FF
FF0000FF
FF0000FF
FF0000FF
FF0000FF
FF0000FF
FF8001FF
FFC003FF
FFE007FF
FFF00FFF
FFFFFFFF
7FFFFFFF
3FFFFFFF
1FFFFFFF
0FFFFFFF
07FFFEFF
03FFFCFF
01FFF8FF
000000FF
000000FF
000000FF
000000FF
000000FF
000000FF
000000FF
000000FF
000000FF
000000FF
000000FF
000000FF
000000FF
000000FF
000000FF
000000FF
000000FF
000000FF
000000FF
000000FF
ENDCHAR
STARTCHAR 0072
ENCODING 114
SWIDTH 281 0
DWIDTH 36 0
BBX 32 40 0 0
BITMAP
FF1FFF80
FF3FFFC0
FF7FFFE0
FFFFFFF0
FFFFFFF8
FFFFFFFC
FFFFFFFE
FFFFFFFF
FFF00FFF
FFE007FF
FFC003FF
FF8001FF
FF0000FF
FF0000FF
FF000000
FF000000
FF000000
FF000000
FF000000
FF000000
FF000000
FF000000
FF000000
FF000000
FF000000
FF000000
FF000000
FF000000
FF000000
FF000000
FF000000
FF000000
FF000000
FF000000
FF000000
FF000000
FF000000
FF000000
FF000000
FF000000
ENDCHAR
STARTCHAR 0073
ENCODING 115
SWIDTH 281 0
DWIDTH 36 0
BBX 32 40 0 0
BITMAP
01FFFF80
03FFFFC0
07FFFFE0
0FFFFFF0
1FFFFFF8
3FFFFFFC
7FFFFFFE
FFFFFFFF
FFF00FFF
FFE007FF
FFC003FF
FF8001FF
FF8000FF
FFC000FF
FFE00000
FFF00000
FFFFFF80
7FFFFFC0
3FFFFFE0
1FFFFFF0
0FFFFFF8
07FFFFFC
03FFFFFE
01FFFFFF
00000FFF
000007FF
FF0003FF
FF0001FF
FF8001FF
FFC003FF
FFE007FF
FFF00FFF
FFFFFFFF
7FFFFFFE
3FFFFFFC
1FFFFFF8
0FFFFFF0
07FFFFE0
03FFFFC0
01FFFF80
ENDCHAR
STARTCHAR 0074
ENCODING 116
SWIDTH 281 0
DWIDTH 36 0
BBX 32 56 0 0
BITMAP
0FF00000
0FF00000
0FF00000
0FF00000
0FF00000
0FF00000
0FF00000
0FF00000
0FF00000
0FF00000
0FF00000
0FF00000
0FF00000
0FF00000
0FF00000
0FF00000
FFFFFFF0
FFFFFFF0
FFFFFFF0
FFFFFFF0
FFFFFFF0
FFFFFFF0
FFFFFFF0
FFFFFFF0
0FF00000
0FF00000
0FF00000
0FF00000
0FF00000
0FF00000
0FF00000
0FF00000
0FF00000
0FF00000
0FF00000
0FF00000
0FF00000
0FF00000
0FF00000
0FF00000
0FF00000
0FF00000
0FF00000
0FF00000
0FF801FF
0FFC03FF
0FFE07FF
0FFF0FFF
0FFFFFFF
07FFFFFE
03FFFFFC
01FFFFF8
00FFFFF0
007FFFE0
003FFFC0
001FFF80
ENDCHAR
STARTCHAR 0075
ENCODING 117
SWIDTH 281 0
DWIDTH 36 0
BBX 32 40 0 0
BITMAP
FF0000FF
FF0000FF
FF0000FF
FF0000FF
FF0000FF
FF0000FF
FF0000FF
FF0000FF
FF0000FF
FF0000FF
FF0000FF
FF0000FF
FF0000FF
FF0000FF
FF0000FF
FF0000FF
FF0000FF
FF0000FF
FF0000FF
FF0000FF
FF0000FF
FF0000FF
FF0000FF
FF0000FF
FF0000FF
FF0000FF
FF0000FF
FF0000FF
FF8001FF
FFC003FF
FFE007FF
FFF00FFF
FFFFFFFF
7FFFFFFF
3FFFFFFF
1FFFFFFF
0FFFFFFF
07FFFEFF
03FFFCFF
01FFF8FF
ENDCHAR
STARTCHAR 0076
ENCODING 118
SWIDTH 281 0
DWIDTH 36 0
BBX 32 40 0 0
BITMAP
FF0000FF
FF0000FF
FF0000FF
FF0000FF
FF0000FF
FF0000FF
FF0000FF
FF0000FF
FF0000FF
FF0000FF
FF0000FF
FF0000FF
FF0000FF
FF0000FF
FF0000FF
FF0000FF
FF0000FF
7F8001FE
7F8001FE
3FC003FC
3FC003FC
1FE007F8
1FE007F8
0FF00FF0
0FF00FF0
07F81FE0
07F81FE0
03FC3FC0
03FC3FC0
01FE7F80
01FE7F80
00FFFF00
00FFFF00
007FFE00
007FFE00
003FFC00
003FFC00
001FF800
001FF800
000FF000
ENDCHAR
STARTCHAR 0077
ENCODING 119
SWIDTH 281 0
DWIDTH 36 0
BBX 32 40 0 0
BITMAP
FF0000FF
FF0000FF
FF0000FF
FF0000FF
FF0000FF
FF0000FF
FF0000FF
FF0000FF
FF0000FF
FF0000FF
FF0000FF
FF0000FF
FF0000FF
FF0000FF
FF0000FF
FF0000FF
FF0000FF
FF0000FF
FF0000FF
FF0000FF
FF0FF0FF
FF0FF0FF
FF0FF0FF
FF0FF0FF
FF0FF0FF
FF0FF0FF
FF0FF0FF
FF0FF0FF
FF9FF9FF
FFFFFFFF
FFFFFFFF
FFFFFFFF
FFFFFFFF
7FFFFFFE
3FFFFFFC
1FFFFFF8
0FFFFFF0
07FE7FE0
03FC3FC0
01F81F80
ENDCHAR
STARTCHAR 0078
ENCODING 120
SWIDTH 281 0
DWIDTH 36 0
BBX 32 40 0 0
BITMAP
FF0000FF
FF0000FF
FF0000FF
FF0000FF
FF0000FF
FF0000FF
FF0000FF
FF0000FF
FF0000FF
FF0000FF
FF0000FF
FF0000FF
FF8001FF
FFE007FF
FFF81FFF
FFFE7FFF
7FFFFFFE
1FFFFFF8
07FFFFE0
01FFFF80
01FFFF80
07FFFFE0
1FFFFFF8
7FFFFFFE
FFFE7FFF
FFF81FFF
FFE007FF
FF8001FF
FF0000FF
FF0000FF
FF0000FF
FF0000FF
FF0000FF
FF0000FF
FF0000FF
FF0000FF
FF0000FF
FF0000FF
FF0000FF
FF0000FF
ENDCHAR
STARTCHAR 0079
ENCODING 121
SWIDTH 281 0
DWIDTH 36 0
BBX 32 60 0 -20
BITMAP
FF0000FF
FF0000FF
FF0000FF
FF0000FF
FF0000FF
FF0000FF
FF0000FF
FF0000FF
FF0000FF
FF0000FF
FF0000FF
FF0000FF
FF0000FF
FF0000FF
FF0000FF
FF0000FF
FF0000FF
7F8001FE
7F8001FE
3FC003FC
3FC003FC
1FE007F8
1FE007F8
0FF00FF0
0FF00FF0
07F81FE0
07F81FE0
03FC3FC0
03FC3FC0
01FE7F80
01FE7F80
00FFFF00
00FFFF00
007FFE00
007FFE00
003FFC00
003FFC00
001FF800
001FF800
000FF000
000FF000
001FE000
001FE000
003FC000
003FC000
007F8000
007F8000
00FF0000
00FF0000
01FE0000
01FE0000
03FC0000
03FC0000
07F80000
07F80000
0FF00000
0FF00000
1FE00000
1FE00000
3FC00000
ENDCHAR
STARTCHAR 007A
ENCODING 122
SWIDTH 281 0
DWIDTH 36 0
BBX 32 40 0 0
BITMAP
FFFFFFFF
FFFFFFFF
FFFFFFFF
FFFFFFFF
FFFFFFFF
FFFFFFFF
FFFFFFFF
FFFFFFFF
000007FF
00000FFF
00001FFF
00003FFE
00007FFC
0000FFF8
0001FFF0
0003FFE0
0007FFC0
000FFF80
001FFF00
003FFE00
007FFC00
00FFF800
01FFF000
03FFE000
07FFC000
0FFF8000
1FFF0000
3FFE0000
7FFC0000
FFF80000
FFF00000
FFE00000
FFFFFFFF
FFFFFFFF
FFFFFFFF
FFFFFFFF
FFFFFFFF
FFFFFFFF
FFFFFFFF
FFFFFFFF
ENDCHAR
STARTCHAR 007B
ENCODING 123
SWIDTH 281 0
DWIDTH 36 0
BBX 24 72 4 -8
BITMAP
0001FF
0003FF
0007FF
000FFF
001FFF
003FFF
007FFF
00FFFF
00FFF0
00FFE0
00FFC0
00FF80
00FF00
00FF00
00FF00
00FF00
00FF00
00FF00
00FF00
00FF00
00FF00
00FF00
00FF00
00FF00
00FF00
00FF00
00FF00
00FF00
00FF00
00FF00
00FF00
00FF00
01FF00
07FF00
1FFE00
7FF800
FFF800
1FFE00
07FF00
01FF00
00FF00
00FF00
00FF00
00FF00
00FF00
00FF00
00FF00
00FF00
00FF00
00FF00
00FF00
00FF00
00FF00
00FF00
00FF00
00FF00
00FF00
00FF00
00FF00
00FF00
00FF80
00FFC0
00FFE0
00FFF0
00FFFF
007FFF
003FFF
001FFF
000FFF
0007FF
0003FF
0001FF
ENDCHAR
STARTCHAR 007C
ENCODING 124
SWIDTH 281 0
DWIDTH 36 0
BBX 8 72 12 -8
BITMAP
FF
FF
FF
FF
FF
FF
FF
FF
FF
FF
FF
FF
FF
FF
FF
FF
FF
FF
FF
FF
FF
FF
FF
FF
FF
FF
FF
FF
FF
FF
FF
FF
FF
FF
FF
FF
FF
FF
FF
FF
FF
FF
FF
FF
FF
FF
FF
FF
FF
FF
FF
FF
FF
FF
FF
FF
FF
FF
FF
FF
FF
FF
FF
FF
FF
FF
FF
FF
FF
FF
FF
FF
ENDCHAR
STARTCHAR 007D
ENCODING 125
SWIDTH 281 0
DWIDTH 36 0
BBX 24 72 4 -8
BITMAP
FF8000
FFC000
FFE000
FFF000
FFF800
FFFC00
FFFE00
FFFF00
0FFF00
07FF00
03FF00
01FF00
00FF00
00FF00
00FF00
00FF00
00FF00
00FF00
00FF00
00FF00
00FF00
00FF00
00FF00
00FF00
00FF00
00FF00
00FF00
00FF00
00FF00
00FF00
00FF00
00FF00
00FF80
00FFE0
007FF8
001FFE
001FFF
007FF8
00FFE0
00FF80
00FF00
00FF00
00FF00
00FF00
00FF00
00FF00
00FF00
00FF00
00FF00
00FF00
00FF00
00FF00
00FF00
00FF00
00FF00
00FF00
00FF00
00FF00
00FF00
00FF00
01FF00
03FF00
07FF00
0FFF00
FFFF00
FFFE00
FFFC00
FFF800
FFF000
FFE000
FFC000
FF8000
ENDCHAR
STARTCHAR 007E
ENCODING 126
SWIDTH 281 0
DWIDTH 36 0
BBX 24 16 4 20
BITMAP
1F803F
3FC03F
7FE03F
FFF03F
FFF83F
FFFC3F
FFFE3F
FFFF3F
FCFFFF
FC7FFF
FC3FFF
FC1FFF
FC0FFF
FC07FE
FC03FC
FC01F8
ENDCHAR
STARTCHAR 00A1
ENCODING 161
SWIDTH 281 0
DWIDTH 36 0
BBX 8 56 12 -20
BITMAP
FF
FF
FF
FF
FF
FF
FF
FF
00
00
00
00
00
00
00
00
FF
FF
FF
FF
FF
FF
FF
FF
FF
FF
FF
FF
FF
FF
FF
FF
FF
FF
FF
FF
FF
FF
FF
FF
FF
FF
FF
FF
FF
FF
FF
FF
FF
FF
FF
FF
FF
FF
FF
FF
ENDCHAR
STARTCHAR 00A2
ENCODING 162
SWIDTH 281 0
DWIDTH 36 0
BBX 32 56 0 0
BITMAP
000FF000
000FF000
000FF000
000FF000
000FF000
000FF000
000FF000
000FF000
01FFFF80
03FFFFC0
07FFFFE0
0FFFFFF0
1FFFFFF8
3FFFFFFC
7FFFFFFE
FFFFFFFF
FFFFFFFF
FFEFF7FF
FFCFF3FF
FF8FF1FF
FF0FF0FF
FF0FF0FF
FF0FF000
FF0FF000
FF0FF000
FF0FF000
FF0FF000
FF0FF000
FF0FF000
FF0FF000
FF0FF000
FF0FF000
FF0FF000
FF0FF000
FF0FF0FF
FF0FF0FF
FF8FF1FF
FFCFF3FF
FFEFF7FF
FFFFFFFF
FFFFFFFF
7FFFFFFE
3FFFFFFC
1FFFFFF8
0FFFFFF0
07FFFFE0
03FFFFC0
01FFFF80
000FF000
000FF000
000FF000
000FF000
000FF000
000FF000
000FF000
000FF000
ENDCHAR
STARTCHAR 00A3
ENCODING 163
SWIDTH 281 0
DWIDTH 36 0
BBX 32 56 0 0
BITMAP
0001FF80
0003FFC0
0007FFE0
000FFFF0
001FFFF8
003FFFFC
007FFFFE
00FFFFFF
00FFC3FF
00FF81FF
00FF00FF
00FF00FF
00FF0000
00FF0000
00FF0000
00FF0000
00FF0000
00FF0000
00FF0000
00FF0000
00FF0000
00FF0000
00FF0000
00FF0000
0FFFFF00
0FFFFF00
0FFFFF00
0FFFFF00
0FFFFF00
0FFFFF00
0FFFFF00
0FFFFF00
00FF0000
00FF0000
00FF0000
00FF0000
00FF0000
00FF0000
00FF0000
00FF0000
01FF0000
03FF0000
07FF0000
0FFF0000
1FFF0000
3FFE0000
7FFC0000
FFF80000
FFFFFFFF
FFFFFFFF
FFFFFFFF
FFFFFFFF
FFFFFFFF
FFFFFFFF
FFFFFFFF
FFFFFFFF
ENDCHAR
STARTCHAR 00A4
ENCODING 164
SWIDTH 281 0
DWIDTH 36 0
BBX 32 32 0 12
BITMAP
18000018
3C00003C
7E00007E
FF0000FF
FF9FF9FF
7FFFFFFE
3FFFFFFC
1FFFFFF8
0FFFFFF0
07FFFFE0
07FFFFE0
0FFE7FF0
0FFC3FF0
0FF81FF0
0FF00FF0
0FE007F0
0FE007F0
0FF00FF0
0FF81FF0
0FFC3FF0
0FFE7FF0
07FFFFE0
07FFFFE0
0FFFFFF0
1FFFFFF8
3FFFFFFC
7FFFFFFE
FF9FF9FF
FF0000FF
7E00007E
3C00003C
18000018
ENDCHAR
STARTCHAR 00A5
ENCODING 165
SWIDTH 281 0
DWIDTH 36 0
BBX 32 56 0 0
BITMAP
FF0000FF
7F8001FE
7F8001FE
3FC003FC
3FC003FC
1FE007F8
1FE007F8
0FF00FF0
0FF00FF0
07F81FE0
07F81FE0
03FC3FC0
03FC3FC0
01FE7F80
01FE7F80
00FFFF00
00FFFF00
007FFE00
007FFE00
003FFC00
003FFC00
001FF800
001FF800
000FF000
0FFFFFF0
0FFFFFF0
0FFFFFF0
0FFFFFF0
0FFFFFF0
0FFFFFF0
0FFFFFF0
0FFFFFF0
000FF000
000FF000
000FF000
000FF000
000FF000
000FF000
0FFFFFF0
0FFFFFF0
0FFFFFF0
0FFFFFF0
0FFFFFF0
0FFFFFF0
0FFFFFF0
0FFFFFF0
000FF000
000FF000
000FF000
000FF000
000FF000
000FF000
000FF000
000FF000
000FF000
000FF000
ENDCHAR
STARTCHAR 00A6
ENCODING 166
SWIDTH 281 0
DWIDTH 36 0
BBX 8 72 12 -8
BITMAP
FF
FF
FF
FF
FF
FF
FF
FF
FF
FF
FF
FF
FF
FF
FF
FF
FF
FF
FF
FF
FF
FF
FF
FF
FF
FF
FF
FF
00
00
00
00
00
00
00
00
00
00
00
00
00
00
00
00
FF
FF
FF
FF
FF
FF
FF
FF
FF
FF
FF
FF
FF
FF
FF
FF
FF
FF
FF
FF
FF
FF
FF
FF
FF
FF
FF
FF
ENDCHAR
STARTCHAR 00A7
ENCODING 167
SWIDTH 281 0
DWIDTH 36 0
BBX 32 76 0 -20
BITMAP
01FFFF80
03FFFFC0
07FFFFE0
0FFFFFF0
1FFFFFF8
3FFFFFFC
7FFFFFFE
FFFFFFFF
FFF00FFF
FFE007FF
FFC003FF
FF8001FF
FF0000FF
FF0000FF
FF000000
FF000000
FF800000
FFC00000
FFE00000
FFF00000
FFF80000
7FFC0000
3FFE0000
1FFF0000
0FFFFF80
07FFFFC0
07FFFFE0
0FFFFFF0
1FFFFFF8
3FFFFFFC
7FFFFFFE
FFFFFFFF
FFF00FFF
FFE007FF
FFC003FF
FF8001FF
FF0000FF
FF0000FF
FF0000FF
FF0000FF
FF8001FF
FFC003FF
FFE007FF
FFF00FFF
FFFFFFFF
7FFFFFFE
3FFFFFFC
1FFFFFF8
0FFFFFF0
07FFFFE0
03FFFFE0
01FFFFF0
0000FFF8
00007FFC
00003FFE
00001FFF
00000FFF
000007FF
000003FF
000001FF
000000FF
000000FF
FF0000FF
FF0000FF
FF8001FF
FFC003FF
FFE007FF
FFF00FFF
FFFFFFFF
7FFFFFFE
3FFFFFFC
1FFFFFF8
0FFFFFF0
07FFFFE0
03FFFFC0
01FFFF80
ENDCHAR
STARTCHAR 00A8
ENCODING 168
SWIDTH 281 0
DWIDTH 36 0
BBX 24 8 4 48
BITMAP
FF00FF
FF00FF
FF00FF
FF00FF
FF00FF
FF00FF
FF00FF
FF00FF
ENDCHAR
STARTCHAR 00A9
ENCODING 169
SWIDTH 281 0
DWIDTH 36 0
BBX 32 44 0 12
BITMAP
01FFFF80
03FFFFC0
07FFFFE0
0FFFFFF0
1FC003F8
3F8001FC
7F0000FE
FE00007F
FC1FF83F
F83FFC1F
F07FFE0F
F0FFFF0F
F0FC3F0F
F0F81F0F
F0F00F0F
F0F00F0F
F0F0000F
F0F0000F
F0F0000F
F0F0000F
F0F0000F
F0F0000F
F0F0000F
F0F0000F
F0F0000F
F0F0000F
F0F0000F
F0F0000F
F0F00F0F
F0F00F0F
F0F81F0F
F0FC3F0F
F0FFFF0F
F07FFE0F
F83FFC1F
FC1FF83F
FE00007F
7F0000FE
3F8001FC
1FC003F8
0FFFFFF0
07FFFFE0
03FFFFC0
01FFFF80
ENDCHAR
STARTCHAR 00AC
ENCODING 172
SWIDTH 281 0
DWIDTH 36 0
BBX 32 16 0 16
BITMAP
FFFFFFFF
FFFFFFFF
FFFFFFFF
FFFFFFFF
FFFFFFFF
FFFFFFFF
FFFFFFFF
FFFFFFFF
000000FF
000000FF
000000FF
000000FF
000000FF
000000FF
000000FF
000000FF
ENDCHAR
STARTCHAR 00AD
ENCODING 173
SWIDTH 281 0
DWIDTH 36 0
BBX 16 8 8 24
BITMAP
FFFF
FFFF
FFFF
FFFF
FFFF
FFFF
FFFF
FFFF
ENDCHAR
STARTCHAR 00AE
ENCODING 174
SWIDTH 281 0
DWIDTH 36 0
BBX 32 44 0 12
BITMAP
01FFFF80
03FFFFC0
07FFFFE0
0FFFFFF0
1FC003F8
3F8001FC
7F0000FE
FE00007F
FCFFF83F
F8FFFC1F
F0FFFE0F
F0FFFF0F
F0F03F0F
F0F01F0F
F0F00F0F
F0F00F0F
F0F00F0F
F0F00F0F
F0F01F0F
F0F03F0F
F0FFFF0F
F0FFFE0F
F0FFFC0F
F0FFF80F
F0F0F00F
F0F0780F
F0F0780F
F0F03C0F
F0F03C0F
F0F01E0F
F0F01E0F
F0F00F0F
F0F00F0F
F0F00F0F
F8F00F1F
FCF00F3F
FE00007F
7F0000FE
3F8001FC
1FC003F8
0FFFFFF0
07FFFFE0
03FFFFC0
01FFFF80
ENDCHAR
STARTCHAR 00AF
ENCODING 175
SWIDTH 281 0
DWIDTH 36 0
BBX 24 8 4 48
BITMAP
FFFFFF
FFFFFF
FFFFFF
FFFFFF
FFFFFF
FFFFFF
FFFFFF
FFFFFF
ENDCHAR
STARTCHAR 00B0
ENCODING 176
SWIDTH 281 0
DWIDTH 36 0
BBX 16 16 8 40
BITMAP
1FF8
3FFC
7FFE
FFFF
FC3F
F81F
F00F
F00F
F00F
F00F
F81F
FC3F
FFFF
7FFE
3FFC
1FF8
ENDCHAR
STARTCHAR 00B1
ENCODING 177
SWIDTH 281 0
DWIDTH 36 0
BBX 32 48 0 4
BITMAP
000FF000
000FF000
000FF000
000FF000
000FF000
000FF000
000FF000
000FF000
000FF000
000FF000
000FF000
000FF000
FFFFFFFF
FFFFFFFF
FFFFFFFF
FFFFFFFF
FFFFFFFF
FFFFFFFF
FFFFFFFF
FFFFFFFF
000FF000
000FF000
000FF000
000FF000
000FF000
000FF000
000FF000
000FF000
000FF000
000FF000
000FF000
000FF000
00000000
00000000
00000000
00000000
00000000
00000000
00000000
00000000
FFFFFFFF
FFFFFFFF
FFFFFFFF
FFFFFFFF
FFFFFFFF
FFFFFFFF
FFFFFFFF
FFFFFFFF
ENDCHAR
STARTCHAR 00B4
ENCODING 180
SWIDTH 281 0
DWIDTH 36 0
BBX 16 20 8 36
BITMAP
003F
007E
007E
00FC
00FC
01F8
01F8
03F0
03F0
07E0
07E0
0FC0
0FC0
1F80
1F80
3F00
3F00
7E00
7E00
FC00
ENDCHAR
STARTCHAR 00B5
ENCODING 181
SWIDTH 281 0
DWIDTH 36 0
BBX 32 60 0 -20
BITMAP
FF0000FF
FF0000FF
FF0000FF
FF0000FF
FF0000FF
FF0000FF
FF0000FF
FF0000FF
FF0000FF
FF0000FF
FF0000FF
FF0000FF
FF0000FF
FF0000FF
FF0000FF
FF0000FF
FF0000FF
FF0000FF
FF0000FF
FF0000FF
FF0000FF
FF0000FF
FF0000FF
FF0000FF
FF0001FF
FF0003FF
FF0007FF
FF000FFF
FF801FFF
FFC03FFF
FFE07FFF
FFF0FFFF
FFFFFFFF
FFFFFEFF
FFFFFCFF
FFFFF8FF
FFFFF0FF
FF7FE0FF
FF3FC0FF
FF1F80FF
FF000000
FF000000
FF000000
FF000000
FF000000
FF000000
FF000000
FF000000
FF000000
FF000000
FF000000
FF000000
FF000000
FF000000
FF000000
FF000000
FF000000
FF000000
FF000000
FF000000
ENDCHAR
STARTCHAR 00B6
ENCODING 182
SWIDTH 281 0
DWIDTH 36 0
BBX 32 76 0 -20
BITMAP
01FFFFFF
03FFFFFF
07FFFFFF
0FFFFFFF
1FFFFFFF
3FFFFFFF
7FFFFFFF
FFFFFFFF
FFFFF0FF
FFFFF0FF
FFFFF0FF
FFFFF0FF
FFFFF0FF
FFFFF0FF
FFFFF0FF
FFFFF0FF
FFFFF0FF
FFFFF0FF
FFFFF0FF
FFFFF0FF
FFFFF0FF
FFFFF0FF
FFFFF0FF
FFFFF0FF
FFFFF0FF
7FFFF0FF
3FFFF0FF
1FFFF0FF
0FFFF0FF
07FFF0FF
03FFF0FF
01FFF0FF
000FF0FF
000FF0FF
000FF0FF
000FF0FF
000FF0FF
000FF0FF
000FF0FF
000FF0FF
000FF0FF
000FF0FF
000FF0FF
000FF0FF
000FF0FF
000FF0FF
000FF0FF
000FF0FF
000FF0FF
000FF0FF
000FF0FF
000FF0FF
000FF0FF
000FF0FF
000FF0FF
000FF0FF
000FF0FF
000FF0FF
000FF0FF
000FF0FF
000FF0FF
000FF0FF
000FF0FF
000FF0FF
000FF0FF
000FF0FF
000FF0FF
000FF0FF
000FF0FF
000FF0FF
000FF0FF
000FF0FF
000FF0FF
000FF0FF
000FF0FF
000FF0FF
ENDCHAR
STARTCHAR 00B7
ENCODING 183
SWIDTH 281 0
DWIDTH 36 0
BBX 16 16 8 20
BITMAP
FFFF
FFFF
FFFF
FFFF
FFFF
FFFF
FFFF
FFFF
FFFF
FFFF
FFFF
FFFF
FFFF
FFFF
FFFF
FFFF
ENDCHAR
STARTCHAR 00B8
ENCODING 184
SWIDTH 281 0
DWIDTH 36 0
BBX 16 14 8 -14
BITMAP
0FF0
0FF0
0FF8
07FC
03FE
01FF
00FF
00FF
FFFF
FFFF
FFFF
FFFE
FFFC
FFF8
ENDCHAR
STARTCHAR 00BF
ENCODING 191
SWIDTH 281 0
DWIDTH 36 0
BBX 32 56 0 -20
BITMAP
000FF000
000FF000
000FF000
000FF000
000FF000
000FF000
000FF000
000FF000
00000000
00000000
00000000
00000000
00000000
00000000
00000000
00000000
000FF000
000FF000
000FF000
000FF000
000FF000
000FF000
000FF000
000FF000
001FF000
003FF000
007FF000
00FFF000
01FFF000
03FFE000
07FFC000
0FFF8000
1FFF0000
3FFE0000
7FFC0000
FFF80000
FFF00000
FFE00000
FFC00000
FF800000
FF0000FF
FF0000FF
FF0000FF
FF0000FF
FF8001FF
FFC003FF
FFE007FF
FFF00FFF
FFFFFFFF
7FFFFFFE
3FFFFFFC
1FFFFFF8
0FFFFFF0
07FFFFE0
03FFFFC0
01FFFF80
ENDCHAR
STARTCHAR 00C0
ENCODING 192
SWIDTH 281 0
DWIDTH 36 0
BBX 32 84 0 0
BITMAP
00FC0000
007E0000
007E0000
003F0000
003F0000
001F8000
001F8000
000FC000
000FC000
0007E000
0007E000
0003F000
0003F000
0001F800
0001F800
0000FC00
0000FC00
00007E00
00007E00
00003F00
00000000
00000000
00000000
00000000
00000000
00000000
00000000
00000000
01FFFF80
03FFFFC0
07FFFFE0
0FFFFFF0
1FFFFFF8
3FFFFFFC
7FFFFFFE
FFFFFFFF
FFF00FFF
FFE007FF
FFC003FF
FF8001FF
FF0000FF
FF0000FF
FF0000FF
FF0000FF
FF0000FF
FF0000FF
FF0000FF
FF0000FF
FF0000FF
FF0000FF
FF0000FF
FF0000FF
FFFFFFFF
FFFFFFFF
FFFFFFFF
FFFFFFFF
FFFFFFFF
FFFFFFFF
FFFFFFFF
FFFFFFFF
FF0000FF
FF0000FF
FF0000FF
FF0000FF
FF0000FF
FF0000FF
FF0000FF
FF0000FF
FF0000FF
FF0000FF
FF0000FF
FF0000FF
FF0000FF
FF0000FF
FF0000FF
FF0000FF
FF0000FF
FF0000FF
FF0000FF
FF0000FF
FF0000FF
FF0000FF
FF0000FF
FF0000FF
ENDCHAR
STARTCHAR 00C1
ENCODING 193
SWIDTH 281 0
DWIDTH 36 0
BBX 32 84 0 0
BITMAP
00003F00
00007E00
00007E00
0000FC00
0000FC00
0001F800
0001F800
0003F000
0003F000
0007E000
0007E000
000FC000
000FC000
001F8000
001F8000
003F0000
003F0000
007E0000
007E0000
00FC0000
00000000
00000000
00000000
00000000
00000000
00000000
00000000
00000000
01FFFF80
03FFFFC0
07FFFFE0
0FFFFFF0
1FFFFFF8
3FFFFFFC
7FFFFFFE
FFFFFFFF
FFF00FFF
FFE007FF
FFC003FF
FF8001FF
FF0000FF
FF0000FF
FF0000FF
FF0000FF
FF0000FF
FF0000FF
FF0000FF
FF0000FF
FF0000FF
FF0000FF
FF0000FF
FF0000FF
FFFFFFFF
FFFFFFFF
FFFFFFFF
FFFFFFFF
FFFFFFFF
FFFFFFFF
FFFFFFFF
FFFFFFFF
FF0000FF
FF0000FF
FF0000FF
FF0000FF
FF0000FF
FF0000FF
FF0000FF
FF0000FF
FF0000FF
FF0000FF
FF0000FF
FF0000FF
FF0000FF
FF0000FF
FF0000FF
FF0000FF
FF0000FF
FF0000FF
FF0000FF
FF0000FF
FF0000FF
FF0000FF
FF0000FF
FF0000FF
ENDCHAR
STARTCHAR 00C2
ENCODING 194
SWIDTH 281 0
DWIDTH 36 0
BBX 32 84 0 0
BITMAP
00010000
00018000
00018000
0003C000
0003C000
0007E000
0007E000
000FF000
000FF000
001FF800
001FF800
003FFC00
003FFC00
007E7E00
007E7E00
00FC3F00
00FC3F00
01F81F80
01F81F80
03F00FC0
00000000
00000000
00000000
00000000
00000000
00000000
00000000
00000000
01FFFF80
03FFFFC0
07FFFFE0
0FFFFFF0
1FFFFFF8
3FFFFFFC
7FFFFFFE
FFFFFFFF
FFF00FFF
FFE007FF
FFC003FF
FF8001FF
FF0000FF
FF0000FF
FF0000FF
FF0000FF
FF0000FF
FF0000FF
FF0000FF
FF0000FF
FF0000FF
FF0000FF
FF0000FF
FF0000FF
FFFFFFFF
FFFFFFFF
FFFFFFFF
FFFFFFFF
FFFFFFFF
FFFFFFFF
FFFFFFFF
FFFFFFFF
FF0000FF
FF0000FF
FF0000FF
FF0000FF
FF0000FF
FF0000FF
FF0000FF
FF0000FF
FF0000FF
FF0000FF
FF0000FF
FF0000FF
FF0000FF
FF0000FF
FF0000FF
FF0000FF
FF0000FF
FF0000FF
FF0000FF
FF0000FF
FF0000FF
FF0000FF
FF0000FF
FF0000FF
ENDCHAR
STARTCHAR 00C3
ENCODING 195
SWIDTH 281 0
DWIDTH 36 0
BBX 32 80 0 0
BITMAP
01F803F0
03FC03F0
07FE03F0
0FFF03F0
0FFF83F0
0FFFC3F0
0FFFE3F0
0FFFF3F0
0FCFFFF0
0FC7FFF0
0FC3FFF0
0FC1FFF0
0FC0FFF0
0FC07FE0
0FC03FC0
0FC01F80
00000000
00000000
00000000
00000000
00000000
00000000
00000000
00000000
01FFFF80
03FFFFC0
07FFFFE0
0FFFFFF0
1FFFFFF8
3FFFFFFC
7FFFFFFE
FFFFFFFF
FFF00FFF
FFE007FF
FFC003FF
FF8001FF
FF0000FF
FF0000FF
FF0000FF
FF0000FF
FF0000FF
FF0000FF
FF0000FF
FF0000FF
FF0000FF
FF0000FF
FF0000FF
FF0000FF
FFFFFFFF
FFFFFFFF
FFFFFFFF
FFFFFFFF
FFFFFFFF
FFFFFFFF
FFFFFFFF
FFFFFFFF
FF0000FF
FF0000FF
FF0000FF
FF0000FF
FF0000FF
FF0000FF
FF0000FF
FF0000FF
FF0000FF
FF0000FF
FF0000FF
FF0000FF
FF0000FF
FF0000FF
FF0000FF
FF0000FF
FF0000FF
FF0000FF
FF0000FF
FF0000FF
FF0000FF
FF0000FF
FF0000FF
FF0000FF
ENDCHAR
STARTCHAR 00C4
ENCODING 196
SWIDTH 281 0
DWIDTH 36 0
BBX 32 72 0 0
BITMAP
0FF00FF0
0FF00FF0
0FF00FF0
0FF00FF0
0FF00FF0
0FF00FF0
0FF00FF0
0FF00FF0
00000000
00000000
00000000
00000000
00000000
00000000
00000000
00000000
01FFFF80
03FFFFC0
07FFFFE0
0FFFFFF0
1FFFFFF8
3FFFFFFC
7FFFFFFE
FFFFFFFF
FFF00FFF
FFE007FF
FFC003FF
FF8001FF
FF0000FF
FF0000FF
FF0000FF
FF0000FF
FF0000FF
FF0000FF
FF0000FF
FF0000FF
FF0000FF
FF0000FF
FF0000FF
FF0000FF
FFFFFFFF
FFFFFFFF
FFFFFFFF
FFFFFFFF
FFFFFFFF
FFFFFFFF
FFFFFFFF
FFFFFFFF
FF0000FF
FF0000FF
FF0000FF
FF0000FF
FF0000FF
FF0000FF
FF0000FF
FF0000FF
FF0000FF
FF0000FF
FF0000FF
FF0000FF
FF0000FF
FF0000FF
FF0000FF
FF0000FF
FF0000FF
FF0000FF
FF0000FF
FF0000FF
FF0000FF
FF0000FF
FF0000FF
FF0000FF
ENDCHAR
STARTCHAR 00C5
ENCODING 197
SWIDTH 281 0
DWIDTH 36 0
BBX 32 80 0 0
BITMAP
001FF800
003FFC00
007FFE00
00FFFF00
00FC3F00
00F81F00
00F00F00
00F00F00
00F00F00
00F00F00
00F81F00
00FC3F00
00FFFF00
007FFE00
003FFC00
001FF800
00000000
00000000
00000000
00000000
00000000
00000000
00000000
00000000
01FFFF80
03FFFFC0
07FFFFE0
0FFFFFF0
1FFFFFF8
3FFFFFFC
7FFFFFFE
FFFFFFFF
FFF00FFF
FFE007FF
FFC003FF
FF8001FF
FF0000FF
FF0000FF
FF0000FF
FF0000FF
FF0000FF
FF0000FF
FF0000FF
FF0000FF
FF0000FF
FF0000FF
FF0000FF
FF0000FF
FFFFFFFF
FFFFFFFF
FFFFFFFF
FFFFFFFF
FFFFFFFF
FFFFFFFF
FFFFFFFF
FFFFFFFF
FF0000FF
FF0000FF
FF0000FF
FF0000FF
FF0000FF
FF0000FF
FF0000FF
FF0000FF
FF0000FF
FF0000FF
FF0000FF
FF0000FF
FF0000FF
FF0000FF
FF0000FF
FF0000FF
FF0000FF
FF0000FF
FF0000FF
FF0000FF
FF0000FF
FF0000FF
FF0000FF
FF0000FF
ENDCHAR
STARTCHAR 00C7
ENCODING 199
SWIDTH 281 0
DWIDTH 36 0
BBX 32 70 0 -14
BITMAP
01FFFF80
03FFFFC0
07FFFFE0
0FFFFFF0
1FFFFFF8
3FFFFFFC
7FFFFFFE
FFFFFFFF
FFF00FFF
FFE007FF
FFC003FF
FF8001FF
FF0000FF
FF0000FF
FF0000FF
FF0000FF
FF000000
FF000000
FF000000
FF000000
FF000000
FF000000
FF000000
FF000000
FF000000
FF000000
FF000000
FF000000
FF000000
FF000000
FF000000
FF000000
FF000000
FF000000
FF000000
FF000000
FF000000
FF000000
FF000000
FF000000
FF0000FF
FF0000FF
FF0000FF
FF0000FF
FF8001FF
FFC003FF
FFE007FF
FFF00FFF
FFFFFFFF
7FFFFFFE
3FFFFFFC
1FFFFFF8
0FFFFFF0
07FFFFE0
03FFFFC0
01FFFF80
000FF000
000FF000
000FF800
0007FC00
0003FE00
0001FF00
0000FF00
0000FF00
00FFFF00
00FFFF00
00FFFF00
00FFFE00
00FFFC00
00FFF800
ENDCHAR
STARTCHAR 00C8
ENCODING 200
SWIDTH 281 0
DWIDTH 36 0
BBX 32 84 0 0
BITMAP
00FC0000
007E0000
007E0000
003F0000
003F0000
001F8000
001F8000
000FC000
000FC000
0007E000
0007E000
0003F000
0003F000
0001F800
0001F800
0000FC00
0000FC00
00007E00
00007E00
00003F00
00000000
00000000
00000000
00000000
00000000
00000000
00000000
00000000
FFFFFFFF
FFFFFFFF
FFFFFFFF
FFFFFFFF
FFFFFFFF
FFFFFFFF
FFFFFFFF
FFFFFFFF
FF000000
FF000000
FF000000
FF000000
FF000000
FF000000
FF000000
FF000000
FF000000
FF000000
FF000000
FF000000
FF000000
FF000000
FF000000
FF000000
FFFFFF00
FFFFFF00
FFFFFF00
FFFFFF00
FFFFFF00
FFFFFF00
FFFFFF00
FFFFFF00
FF000000
FF000000
FF000000
FF000000
FF000000
FF000000
FF000000
FF000000
FF000000
FF000000
FF000000
FF000000
FF000000
FF000000
FF000000
FF000000
FFFFFFFF
FFFFFFFF
FFFFFFFF
FFFFFFFF
FFFFFFFF
FFFFFFFF
FFFFFFFF
FFFFFFFF
ENDCHAR
STARTCHAR 00C9
ENCODING 201
SWIDTH 281 0
DWIDTH 36 0
BBX 32 84 0 0
BITMAP
00003F00
00007E00
00007E00
0000FC00
0000FC00
0001F800
0001F800
0003F000
0003F000
0007E000
0007E000
000FC000
000FC000
001F8000
001F8000
003F0000
003F0000
007E0000
007E0000
00FC0000
00000000
00000000
00000000
00000000
00000000
00000000
00000000
00000000
FFFFFFFF
FFFFFFFF
FFFFFFFF
FFFFFFFF
FFFFFFFF
FFFFFFFF
FFFFFFFF
FFFFFFFF
FF000000
FF000000
FF000000
FF000000
FF000000
FF000000
FF000000
FF000000
FF000000
FF000000
FF000000
FF000000
FF000000
FF000000
FF000000
FF000000
FFFFFF00
FFFFFF00
FFFFFF00
FFFFFF00
FFFFFF00
FFFFFF00
FFFFFF00
FFFFFF00
FF000000
FF000000
FF000000
FF000000
FF000000
FF000000
FF000000
FF000000
FF000000
FF000000
FF000000
FF000000
FF000000
FF000000
FF000000
FF000000
FFFFFFFF
FFFFFFFF
FFFFFFFF
FFFFFFFF
FFFFFFFF
FFFFFFFF
FFFFFFFF
FFFFFFFF
ENDCHAR
STARTCHAR 00CA
ENCODING 202
SWIDTH 281 0
DWIDTH 36 0
BBX 32 84 0 0
BITMAP
00010000
00018000
00018000
0003C000
0003C000
0007E000
0007E000
000FF000
000FF000
001FF800
001FF800
003FFC00
003FFC00
007E7E00
007E7E00
00FC3F00
00FC3F00
01F81F80
01F81F80
03F00FC0
00000000
00000000
00000000
00000000
00000000
00000000
00000000
00000000
FFFFFFFF
FFFFFFFF
FFFFFFFF
FFFFFFFF
FFFFFFFF
FFFFFFFF
FFFFFFFF
FFFFFFFF
FF000000
FF000000
FF000000
FF000000
FF000000
FF000000
FF000000
FF000000
FF000000
FF000000
FF000000
FF000000
FF000000
FF000000
FF000000
FF000000
FFFFFF00
FFFFFF00
FFFFFF00
FFFFFF00
FFFFFF00
FFFFFF00
FFFFFF00
FFFFFF00
FF000000
FF000000
FF000000
FF000000
FF000000
FF000000
FF000000
FF000000
FF000000
FF000000
FF000000
FF000000
FF000000
FF000000
FF000000
FF000000
FFFFFFFF
FFFFFFFF
FFFFFFFF
FFFFFFFF
FFFFFFFF
FFFFFFFF
FFFFFFFF
FFFFFFFF
ENDCHAR
STARTCHAR 00CB
ENCODING 203
SWIDTH 281 0
DWIDTH 36 0
BBX 32 72 0 0
BITMAP
0FF00FF0
0FF00FF0
0FF00FF0
0FF00FF0
0FF00FF0
0FF00FF0
0FF00FF0
0FF00FF0
00000000
00000000
00000000
00000000
00000000
00000000
00000000
00000000
FFFFFFFF
FFFFFFFF
FFFFFFFF
FFFFFFFF
FFFFFFFF
FFFFFFFF
FFFFFFFF
FFFFFFFF
FF000000
FF000000
FF000000
FF000000
FF000000
FF000000
FF000000
FF000000
FF000000
FF000000
FF000000
FF000000
FF000000
FF000000
FF000000
FF000000
FFFFFF00
FFFFFF00
FFFFFF00
FFFFFF00
FFFFFF00
FFFFFF00
FFFFFF00
FFFFFF00
FF000000
FF000000
FF000000
FF000000
FF000000
FF000000
FF000000
FF000000
FF000000
FF000000
FF000000
FF000000
FF000000
FF000000
FF000000
FF000000
FFFFFFFF
FFFFFFFF
FFFFFFFF
FFFFFFFF
FFFFFFFF
FFFFFFFF
FFFFFFFF
FFFFFFFF
ENDCHAR
STARTCHAR 00CC
ENCODING 204
SWIDTH 281 0
DWIDTH 36 0
BBX 32 84 0 0
BITMAP
00FC0000
007E0000
007E0000
003F0000
003F0000
001F8000
001F8000
000FC000
000FC000
0007E000
0007E000
0003F000
0003F000
0001F800
0001F800
0000FC00
0000FC00
00007E00
00007E00
00003F00
00000000
00000000
00000000
00000000
00000000
00000000
00000000
00000000
FFFFFFFF
FFFFFFFF
FFFFFFFF
FFFFFFFF
FFFFFFFF
FFFFFFFF
FFFFFFFF
FFFFFFFF
000FF000
000FF000
000FF000
000FF000
000FF000
000FF000
000FF000
000FF000
000FF000
000FF000
000FF000
000FF000
000FF000
000FF000
000FF000
000FF000
000FF000
000FF000
000FF000
000FF000
000FF000
000FF000
000FF000
000FF000
000FF000
000FF000
000FF000
000FF000
000FF000
000FF000
000FF000
000FF000
000FF000
000FF000
000FF000
000FF000
000FF000
000FF000
000FF000
000FF000
FFFFFFFF
FFFFFFFF
FFFFFFFF
FFFFFFFF
FFFFFFFF
FFFFFFFF
FFFFFFFF
FFFFFFFF
ENDCHAR
STARTCHAR 00CD
ENCODING 205
SWIDTH 281 0
DWIDTH 36 0
BBX 32 84 0 0
BITMAP
00003F00
00007E00
00007E00
0000FC00
0000FC00
0001F800
0001F800
0003F000
0003F000
0007E000
0007E000
000FC000
000FC000
001F8000
001F8000
003F0000
003F0000
007E0000
007E0000
00FC0000
00000000
00000000
00000000
00000000
00000000
00000000
00000000
00000000
FFFFFFFF
FFFFFFFF
FFFFFFFF
FFFFFFFF
FFFFFFFF
FFFFFFFF
FFFFFFFF
FFFFFFFF
000FF000
000FF000
000FF000
000FF000
000FF000
000FF000
000FF000
000FF000
000FF000
000FF000
000FF000
000FF000
000FF000
000FF000
000FF000
000FF000
000FF000
000FF000
000FF000
000FF000
000FF000
000FF000
000FF000
000FF000
000FF000
000FF000
000FF000
000FF000
000FF000
000FF000
000FF000
000FF000
000FF000
000FF000
000FF000
000FF000
000FF000
000FF000
000FF000
000FF000
FFFFFFFF
FFFFFFFF
FFFFFFFF
FFFFFFFF
FFFFFFFF
FFFFFFFF
FFFFFFFF
FFFFFFFF
ENDCHAR
STARTCHAR 00CE
ENCODING 206
SWIDTH 281 0
DWIDTH 36 0
BBX 32 84 0 0
BITMAP
00010000
00018000
00018000
0003C000
0003C000
0007E000
0007E000
000FF000
000FF000
001FF800
001FF800
003FFC00
003FFC00
007E7E00
007E7E00
00FC3F00
00FC3F00
01F81F80
01F81F80
03F00FC0
00000000
00000000
00000000
00000000
00000000
00000000
00000000
00000000
FFFFFFFF
FFFFFFFF
FFFFFFFF
FFFFFFFF
FFFFFFFF
FFFFFFFF
FFFFFFFF
FFFFFFFF
000FF000
000FF000
000FF000
000FF000
000FF000
000FF000
000FF000
000FF000
000FF000
000FF000
000FF000
000FF000
000FF000
000FF000
000FF000
000FF000
000FF000
000FF000
000FF000
000FF000
000FF000
000FF000
000FF000
000FF000
000FF000
000FF000
000FF000
000FF000
000FF000
000FF000
000FF000
000FF000
000FF000
000FF000
000FF000
000FF000
000FF000
000FF000
000FF000
000FF000
FFFFFFFF
FFFFFFFF
FFFFFFFF
FFFFFFFF
FFFFFFFF
FFFFFFFF
FFFFFFFF
FFFFFFFF
ENDCHAR
STARTCHAR 00CF
ENCODING 207
SWIDTH 281 0
DWIDTH 36 0
BBX 32 72 0 0
BITMAP
0FF00FF0
0FF00FF0
0FF00FF0
0FF00FF0
0FF00FF0
0FF00FF0
0FF00FF0
0FF00FF0
00000000
00000000
00000000
00000000
00000000
00000000
00000000
00000000
FFFFFFFF
FFFFFFFF
FFFFFFFF
FFFFFFFF
FFFFFFFF
FFFFFFFF
FFFFFFFF
FFFFFFFF
000FF000
000FF000
000FF000
000FF000
000FF000
000FF000
000FF000
000FF000
000FF000
000FF000
000FF000
000FF000
000FF000
000FF000
000FF000
000FF000
000FF000
000FF000
000FF000
000FF000
000FF000
000FF000
000FF000
000FF000
000FF000
000FF000
000FF000
000FF000
000FF000
000FF000
000FF000
000FF000
000FF000
000FF000
000FF000
000FF000
000FF000
000FF000
000FF000
000FF000
FFFFFFFF
FFFFFFFF
FFFFFFFF
FFFFFFFF
FFFFFFFF
FFFFFFFF
FFFFFFFF
FFFFFFFF
ENDCHAR
STARTCHAR 00D0
ENCODING 208
SWIDTH 281 0
DWIDTH 36 0
BBX 32 56 0 0
BITMAP
0FFFF800
0FFFFC00
0FFFFE00
0FFFFF00
0FFFFF80
0FFFFFC0
0FFFFFE0
0FFFFFF0
0FF0FFF8
0FF07FFC
0FF03FFE
0FF01FFF
0FF00FFF
0FF007FF
0FF003FF
0FF001FF
0FF000FF
0FF000FF
0FF000FF
0FF000FF
0FF000FF
0FF000FF
0FF000FF
0FF000FF
FFFFF0FF
FFFFF0FF
FFFFF0FF
FFFFF0FF
FFFFF0FF
FFFFF0FF
FFFFF0FF
FFFFF0FF
0FF000FF
0FF000FF
0FF000FF
0FF000FF
0FF000FF
0FF000FF
0FF000FF
0FF000FF
0FF001FF
0FF003FF
0FF007FF
0FF00FFF
0FF01FFF
0FF03FFE
0FF07FFC
0FF0FFF8
0FFFFFF0
0FFFFFE0
0FFFFFC0
0FFFFF80
0FFFFF00
0FFFFE00
0FFFFC00
0FFFF800
ENDCHAR
STARTCHAR 00D1
ENCODING 209
SWIDTH 281 0
DWIDTH 36 0
BBX 32 80 0 0
BITMAP
01F803F0
03FC03F0
07FE03F0
0FFF03F0
0FFF83F0
0FFFC3F0
0FFFE3F0
0FFFF3F0
0FCFFFF0
0FC7FFF0
0FC3FFF0
0FC1FFF0
0FC0FFF0
0FC07FE0
0FC03FC0
0FC01F80
00000000
00000000
00000000
00000000
00000000
00000000
00000000
00000000
FC0000FF
FE0000FF
FE0000FF
FF0000FF
FF0000FF
FF8000FF
FF8000FF
FFC000FF
FFC000FF
FFE000FF
FFE000FF
FFF000FF
FFF000FF
FFF800FF
FFF800FF
FFFC00FF
FFFC00FF
FFFE00FF
FFFE00FF
FFFF00FF
FFFF00FF
FF7F80FF
FF7F80FF
FF3FC0FF
FF3FC0FF
FF1FE0FF
FF1FE0FF
FF0FF0FF
FF0FF0FF
FF07F8FF
FF07F8FF
FF03FCFF
FF03FCFF
FF01FEFF
FF01FEFF
FF00FFFF
FF00FFFF
FF007FFF
FF007FFF
FF003FFF
FF003FFF
FF001FFF
FF001FFF
FF000FFF
FF000FFF
FF0007FF
FF0007FF
FF0003FF
FF0003FF
FF0001FF
FF0001FF
FF0000FF
FF0000FF
FF00007F
FF00007F
FF00003F
ENDCHAR
STARTCHAR 00D2
ENCODING 210
SWIDTH 281 0
DWIDTH 36 0
BBX 32 84 0 0
BITMAP
00FC0000
007E0000
007E0000
003F0000
003F0000
001F8000
001F8000
000FC000
000FC000
0007E000
0007E000
0003F000
0003F000
0001F800
0001F800
0000FC00
0000FC00
00007E00
00007E00
00003F00
00000000
00000000
00000000
00000000
00000000
00000000
00000000
00000000
01FFFF80
03FFFFC0
07FFFFE0
0FFFFFF0
1FFFFFF8
3FFFFFFC
7FFFFFFE
FFFFFFFF
FFF00FFF
FFE007FF
FFC003FF
FF8001FF
FF0000FF
FF0000FF
FF0000FF
FF0000FF
FF0000FF
FF0000FF
FF0000FF
FF0000FF
FF0000FF
FF0000FF
FF0000FF
FF0000FF
FF0000FF
FF0000FF
FF0000FF
FF0000FF
FF0000FF
FF0000FF
FF0000FF
FF0000FF
FF0000FF
FF0000FF
FF0000FF
FF0000FF
FF0000FF
FF0000FF
FF0000FF
FF0000FF
FF0000FF
FF0000FF
FF0000FF
FF0000FF
FF8001FF
FFC003FF
FFE007FF
FFF00FFF
FFFFFFFF
7FFFFFFE
3FFFFFFC
1FFFFFF8
0FFFFFF0
07FFFFE0
03FFFFC0
01FFFF80
ENDCHAR
STARTCHAR 00D3
ENCODING 211
SWIDTH 281 0
DWIDTH 36 0
BBX 32 84 0 0
BITMAP
00003F00
00007E00
00007E00
0000FC00
0000FC00
0001F800
0001F800
0003F000
0003F000
0007E000
0007E000
000FC000
000FC000
001F8000
001F8000
003F0000
003F0000
007E0000
007E0000
00FC0000
00000000
00000000
00000000
00000000
00000000
00000000
00000000
00000000
01FFFF80
03FFFFC0
07FFFFE0
0FFFFFF0
1FFFFFF8
3FFFFFFC
7FFFFFFE
FFFFFFFF
FFF00FFF
FFE007FF
FFC003FF
FF8001FF
FF0000FF
FF0000FF
FF0000FF
FF0000FF
FF0000FF
FF0000FF
FF0000FF
FF0000FF
FF0000FF
FF0000FF
FF0000FF
FF0000FF
FF0000FF
FF0000FF
FF0000FF
FF0000FF
FF0000FF
FF0000FF
FF0000FF
FF0000FF
FF0000FF
FF0000FF
FF0000FF
FF0000FF
FF0000FF
FF0000FF
FF0000FF
FF0000FF
FF0000FF
FF0000FF
FF0000FF
FF0000FF
FF8001FF
FFC003FF
FFE007FF
FFF00FFF
FFFFFFFF
7FFFFFFE
3FFFFFFC
1FFFFFF8
0FFFFFF0
07FFFFE0
03FFFFC0
01FFFF80
ENDCHAR
STARTCHAR 00D4
ENCODING 212
SWIDTH 281 0
DWIDTH 36 0
BBX 32 84 0 0
BITMAP
00010000
00018000
00018000
0003C000
0003C000
0007E000
0007E000
000FF000
000FF000
001FF800
001FF800
003FFC00
003FFC00
007E7E00
007E7E00
00FC3F00
00FC3F00
01F81F80
01F81F80
03F00FC0
00000000
00000000
00000000
00000000
00000000
00000000
00000000
00000000
01FFFF80
03FFFFC0
07FFFFE0
0FFFFFF0
1FFFFFF8
3FFFFFFC
7FFFFFFE
FFFFFFFF
FFF00FFF
FFE007FF
FFC003FF
FF8001FF
FF0000FF
FF0000FF
FF0000FF
FF0000FF
FF0000FF
FF0000FF
FF0000FF
FF0000FF
FF0000FF
FF0000FF
FF0000FF
FF0000FF
FF0000FF
FF0000FF
FF0000FF
FF0000FF
FF0000FF
FF0000FF
FF0000FF
FF0000FF
FF0000FF
FF0000FF
FF0000FF
FF0000FF
FF0000FF
FF0000FF
FF0000FF
FF0000FF
FF0000FF
FF0000FF
FF0000FF
FF0000FF
FF8001FF
FFC003FF
FFE007FF
FFF00FFF
FFFFFFFF
7FFFFFFE
3FFFFFFC
1FFFFFF8
0FFFFFF0
07FFFFE0
03FFFFC0
01FFFF80
ENDCHAR
STARTCHAR 00D5
ENCODING 213
SWIDTH 281 0
DWIDTH 36 0
BBX 32 80 0 0
BITMAP
01F803F0
03FC03F0
07FE03F0
0FFF03F0
0FFF83F0
0FFFC3F0
0FFFE3F0
0FFFF3F0
0FCFFFF0
0FC7FFF0
0FC3FFF0
0FC1FFF0
0FC0FFF0
0FC07FE0
0FC03FC0
0FC01F80
00000000
00000000
00000000
00000000
00000000
00000000
00000000
00000000
01FFFF80
03FFFFC0
07FFFFE0
0FFFFFF0
1FFFFFF8
3FFFFFFC
7FFFFFFE
FFFFFFFF
FFF00FFF
FFE007FF
FFC003FF
FF8001FF
FF0000FF
FF0000FF
FF0000FF
FF0000FF
FF0000FF
FF0000FF
FF0000FF
FF0000FF
FF0000FF
FF0000FF
FF0000FF
FF0000FF
FF0000FF
FF0000FF
FF0000FF
FF0000FF
FF0000FF
FF0000FF
FF0000FF
FF0000FF
FF0000FF
FF0000FF
FF0000FF
FF0000FF
FF0000FF
FF0000FF
FF0000FF
FF0000FF
FF0000FF
FF0000FF
FF0000FF
FF0000FF
FF8001FF
FFC003FF
FFE007FF
FFF00FFF
FFFFFFFF
7FFFFFFE
3FFFFFFC
1FFFFFF8
0FFFFFF0
07FFFFE0
03FFFFC0
01FFFF80
ENDCHAR
STARTCHAR 00D6
ENCODING 214
SWIDTH 281 0
DWIDTH 36 0
BBX 32 72 0 0
BITMAP
0FF00FF0
0FF00FF0
0FF00FF0
0FF00FF0
0FF00FF0
0FF00FF0
0FF00FF0
0FF00FF0
00000000
00000000
00000000
00000000
00000000
00000000
00000000
00000000
01FFFF80
03FFFFC0
07FFFFE0
0FFFFFF0
1FFFFFF8
3FFFFFFC
7FFFFFFE
FFFFFFFF
FFF00FFF
FFE007FF
FFC003FF
FF8001FF
FF0000FF
FF0000FF
FF0000FF
FF0000FF
FF0000FF
FF0000FF
FF0000FF
FF0000FF
FF0000FF
FF0000FF
FF0000FF
FF0000FF
FF0000FF
FF0000FF
FF0000FF
FF0000FF
FF0000FF
FF0000FF
FF0000FF
FF0000FF
FF0000FF
FF0000FF
FF0000FF
FF0000FF
FF0000FF
FF0000FF
FF0000FF
FF0000FF
FF0000FF
FF0000FF
FF0000FF
FF0000FF
FF8001FF
FFC003FF
FFE007FF
FFF00FFF
FFFFFFFF
7FFFFFFE
3FFFFFFC
1FFFFFF8
0FFFFFF0
07FFFFE0
03FFFFC0
01FFFF80
ENDCHAR
STARTCHAR 00D7
ENCODING 215
SWIDTH 281 0
DWIDTH 36 0
BBX 24 32 4 12
BITMAP
FF00FF
7F81FE
7F81FE
3FC3FC
3FC3FC
1FE7F8
1FE7F8
0FFFF0
0FFFF0
07FFE0
07FFE0
03FFC0
03FFC0
01FF80
01FF80
00FF00
00FF00
01FF80
01FF80
03FFC0
03FFC0
07FFE0
07FFE0
0FFFF0
0FFFF0
1FE7F8
1FE7F8
3FC3FC
3FC3FC
7F81FE
7F81FE
FF00FF
ENDCHAR
STARTCHAR 00D8
ENCODING 216
SWIDTH 281 0
DWIDTH 36 0
BBX 32 56 0 0
BITMAP
01FFFF80
03FFFFC0
07FFFFE0
0FFFFFF0
1FFFFFF8
3FFFFFFC
7FFFFFFE
FFFFFFFF
FFF003FF
FFE007FF
FFC007FF
FF800FFF
FF000FFF
FF001FFF
FF001FFF
FF003FFF
FF003FFF
FF007FFF
FF007FFF
FF00FFFF
FF00FFFF
FF01FEFF
FF01FEFF
FF03FCFF
FF03FCFF
FF07F8FF
FF07F8FF
FF0FF0FF
FF0FF0FF
FF1FE0FF
FF1FE0FF
FF3FC0FF
FF3FC0FF
FF7F80FF
FF7F80FF
FFFF00FF
FFFF00FF
FFFE00FF
FFFE00FF
FFFC00FF
FFFC00FF
FFF800FF
FFF800FF
FFF000FF
FFF001FF
FFE003FF
FFE007FF
FFC00FFF
FFFFFFFF
7FFFFFFE
3FFFFFFC
1FFFFFF8
0FFFFFF0
07FFFFE0
03FFFFC0
01FFFF80
ENDCHAR
STARTCHAR 00D9
ENCODING 217
SWIDTH 281 0
DWIDTH 36 0
BBX 32 84 0 0
BITMAP
00FC0000
007E0000
007E0000
003F0000
003F0000
001F8000
001F8000
000FC000
000FC000
0007E000
0007E000
0003F000
0003F000
0001F800
0001F800
0000FC00
0000FC00
00007E00
00007E00
00003F00
00000000
00000000
00000000
00000000
00000000
00000000
00000000
00000000
FF0000FF
FF0000FF
FF0000FF
FF0000FF
FF0000FF
FF0000FF
FF0000FF
FF0000FF
FF0000FF
FF0000FF
FF0000FF
FF0000FF
FF0000FF
FF0000FF
FF0000FF
FF0000FF
FF0000FF
FF0000FF
FF0000FF
FF0000FF
FF0000FF
FF0000FF
FF0000FF
FF0000FF
FF0000FF
FF0000FF
FF0000FF
FF0000FF
FF0000FF
FF0000FF
FF0000FF
FF0000FF
FF0000FF
FF0000FF
FF0000FF
FF0000FF
FF0000FF
FF0000FF
FF0000FF
FF0000FF
FF0000FF
FF0000FF
FF0000FF
FF0000FF
FF8001FF
FFC003FF
FFE007FF
FFF00FFF
FFFFFFFF
7FFFFFFE
3FFFFFFC
1FFFFFF8
0FFFFFF0
07FFFFE0
03FFFFC0
01FFFF80
ENDCHAR
STARTCHAR 00DA
ENCODING 218
SWIDTH 281 0
DWIDTH 36 0
BBX 32 84 0 0
BITMAP
00003F00
00007E00
00007E00
0000FC00
0000FC00
0001F800
0001F800
0003F000
0003F000
0007E000
0007E000
000FC000
000FC000
001F8000
001F8000
003F0000
003F0000
007E0000
007E0000
00FC0000
00000000
00000000
00000000
00000000
00000000
00000000
00000000
00000000
FF0000FF
FF0000FF
FF0000FF
FF0000FF
FF0000FF
FF0000FF
FF0000FF
FF0000FF
FF0000FF
FF0000FF
FF0000FF
FF0000FF
FF0000FF
FF0000FF
FF0000FF
FF0000FF
FF0000FF
FF0000FF
FF0000FF
FF0000FF
FF0000FF
FF0000FF
FF0000FF
FF0000FF
FF0000FF
FF0000FF
FF0000FF
FF0000FF
FF0000FF
FF0000FF
FF0000FF
FF0000FF
FF0000FF
FF0000FF
FF0000FF
FF0000FF
FF0000FF
FF0000FF
FF0000FF
FF0000FF
FF0000FF
FF0000FF
FF0000FF
FF0000FF
FF8001FF
FFC003FF
FFE007FF
FFF00FFF
FFFFFFFF
7FFFFFFE
3FFFFFFC
1FFFFFF8
0FFFFFF0
07FFFFE0
03FFFFC0
01FFFF80
ENDCHAR
STARTCHAR 00DB
ENCODING 219
SWIDTH 281 0
DWIDTH 36 0
BBX 32 84 0 0
BITMAP
00010000
00018000
00018000
0003C000
0003C000
0007E000
0007E000
000FF000
000FF000
001FF800
001FF800
003FFC00
003FFC00
007E7E00
007E7E00
00FC3F00
00FC3F00
01F81F80
01F81F80
03F00FC0
00000000
00000000
00000000
00000000
00000000
00000000
00000000
00000000
FF0000FF
FF0000FF
FF0000FF
FF0000FF
FF0000FF
FF0000FF
FF0000FF
FF0000FF
FF0000FF
FF0000FF
FF0000FF
FF0000FF
FF0000FF
FF0000FF
FF0000FF
FF0000FF
FF0000FF
FF0000FF
FF0000FF
FF0000FF
FF0000FF
FF0000FF
FF0000FF
FF0000FF
FF0000FF
FF0000FF
FF0000FF
FF0000FF
FF0000FF
FF0000FF
FF0000FF
FF0000FF
FF0000FF
FF0000FF
FF0000FF
FF0000FF
FF0000FF
FF0000FF
FF0000FF
FF0000FF
FF0000FF
FF0000FF
FF0000FF
FF0000FF
FF8001FF
FFC003FF
FFE007FF
FFF00FFF
FFFFFFFF
7FFFFFFE
3FFFFFFC
1FFFFFF8
0FFFFFF0
07FFFFE0
03FFFFC0
01FFFF80
ENDCHAR
STARTCHAR 00DC
ENCODING 220
SWIDTH 281 0
DWIDTH 36 0
BBX 32 72 0 0
BITMAP
0FF00FF0
0FF00FF0
0FF00FF0
0FF00FF0
0FF00FF0
0FF00FF0
0FF00FF0
0FF00FF0
00000000
00000000
00000000
00000000
00000000
00000000
00000000
00000000
FF0000FF
FF0000FF
FF0000FF
FF0000FF
FF0000FF
FF0000FF
FF0000FF
FF0000FF
FF0000FF
FF0000FF
FF0000FF
FF0000FF
FF0000FF
FF0000FF
FF0000FF
FF0000FF
FF0000FF
FF0000FF
FF0000FF
FF0000FF
FF0000FF
FF0000FF
FF0000FF
FF0000FF
FF0000FF
FF0000FF
FF0000FF
FF0000FF
FF0000FF
FF0000FF
FF0000FF
FF0000FF
FF0000FF
FF0000FF
FF0000FF
FF0000FF
FF0000FF
FF0000FF
FF0000FF
FF0000FF
FF0000FF
FF0000FF
FF0000FF
FF0000FF
FF8001FF
FFC003FF
FFE007FF
FFF00FFF
FFFFFFFF
7FFFFFFE
3FFFFFFC
1FFFFFF8
0FFFFFF0
07FFFFE0
03FFFFC0
01FFFF80
ENDCHAR
STARTCHAR 00DD
ENCODING 221
SWIDTH 281 0
DWIDTH 36 0
BBX 32 84 0 0
BITMAP
00003F00
00007E00
00007E00
0000FC00
0000FC00
0001F800
0001F800
0003F000
0003F000
0007E000
0007E000
000FC000
000FC000
001F8000
001F8000
003F0000
003F0000
007E0000
007E0000
00FC0000
00000000
00000000
00000000
00000000
00000000
00000000
00000000
00000000
FF0000FF
FF0000FF
FF0000FF
FF0000FF
FF0000FF
7F8001FE
7F8001FE
3FC003FC
3FC003FC
1FE007F8
1FE007F8
0FF00FF0
0FF00FF0
07F81FE0
07F81FE0
03FC3FC0
03FC3FC0
01FE7F80
01FE7F80
00FFFF00
00FFFF00
007FFE00
007FFE00
003FFC00
003FFC00
001FF800
001FF800
000FF000
000FF000
000FF000
000FF000
000FF000
000FF000
000FF000
000FF000
000FF000
000FF000
000FF000
000FF000
000FF000
000FF000
000FF000
000FF000
000FF000
000FF000
000FF000
000FF000
000FF000
000FF000
000FF000
000FF000
000FF000
000FF000
000FF000
000FF000
000FF000
ENDCHAR
STARTCHAR 00DE
ENCODING 222
SWIDTH 281 0
DWIDTH 36 0
BBX 32 56 0 0
BITMAP
FF000000
FF000000
FF000000
FF000000
FF000000
FF000000
FF000000
FF000000
FF000000
FF000000
FF000000
FF000000
FF1FFF80
FF3FFFC0
FF7FFFE0
FFFFFFF0
FFFFFFF8
FFFFFFFC
FFFFFFFE
FFFFFFFF
FFF00FFF
FFE007FF
FFC003FF
FF8001FF
FF0000FF
FF0000FF
FF0000FF
FF0000FF
FF0000FF
FF0000FF
FF0000FF
FF0000FF
FF0000FF
FF0000FF
FF0000FF
FF0000FF
FF8001FF
FFC003FF
FFE007FF
FFF00FFF
FFFFFFFF
FFFFFFFE
FFFFFFFC
FFFFFFF8
FFFFFFF0
FF7FFFE0
FF3FFFC0
FF1FFF80
FF000000
FF000000
FF000000
FF000000
FF000000
FF000000
FF000000
FF000000
ENDCHAR
STARTCHAR 00DF
ENCODING 223
SWIDTH 281 0
DWIDTH 36 0
BBX 32 56 0 0
BITMAP
01FFF800
03FFFC00
07FFFE00
0FFFFF00
1FFFFF80
3FFFFFC0
7FFFFFE0
FFFFFFF0
FFF0FFF0
FFE07FF0
FFC03FF0
FF801FF0
FF001FF0
FF003FF0
FF007FF0
FF00FFF0
FF01FFF0
FF03FFE0
FF07FFC0
FF0FFF80
FF0FFF00
FF0FFE00
FF0FFC00
FF0FF800
FF0FF800
FF0FFC00
FF0FFE00
FF0FFF00
FF0FFF80
FF07FFC0
FF03FFE0
FF01FFF0
FF00FFF8
FF007FFC
FF003FFE
FF001FFF
FF000FFF
FF0007FF
FF0003FF
FF0001FF
FF0000FF
FF0000FF
FF0000FF
FF0000FF
FF0001FF
FF0003FF
FF0807FF
FF0E0FFF
FF0FFFFF
FF0FFFFE
FF0FFFFC
FF0FFFF8
FF0FFFF0
FF0FFFE0
FF07FFC0
FF01FF80
ENDCHAR
STARTCHAR 00E0
ENCODING 224
SWIDTH 281 0
DWIDTH 36 0
BBX 32 68 0 0
BITMAP
00FC0000
007E0000
007E0000
003F0000
003F0000
001F8000
001F8000
000FC000
000FC000
0007E000
0007E000
0003F000
0003F000
0001F800
0001F800
0000FC00
0000FC00
00007E00
00007E00
00003F00
00000000
00000000
00000000
00000000
00000000
00000000
00000000
00000000
01FFF8FF
03FFFCFF
07FFFEFF
0FFFFFFF
1FFFFFFF
3FFFFFFF
7FFFFFFF
FFFFFFFF
FFF00FFF
FFE007FF
FFC003FF
FF8001FF
FF0000FF
FF0000FF
FF0000FF
FF0000FF
FF0000FF
FF0000FF
FF0000FF
FF0000FF
FF0000FF
FF0000FF
FF0000FF
FF0000FF
FF0000FF
FF0000FF
FF0000FF
FF0000FF
FF8001FF
FFC003FF
FFE007FF
FFF00FFF
FFFFFFFF
7FFFFFFF
3FFFFFFF
1FFFFFFF
0FFFFFFF
07FFFEFF
03FFFCFF
01FFF8FF
ENDCHAR
STARTCHAR 00E1
ENCODING 225
SWIDTH 281 0
DWIDTH 36 0
BBX 32 68 0 0
BITMAP
00003F00
00007E00
00007E00
0000FC00
0000FC00
0001F800
0001F800
0003F000
0003F000
0007E000
0007E000
000FC000
000FC000
001F8000
001F8000
003F0000
003F0000
007E0000
007E0000
00FC0000
00000000
00000000
00000000
00000000
00000000
00000000
00000000
00000000
01FFF8FF
03FFFCFF
07FFFEFF
0FFFFFFF
1FFFFFFF
3FFFFFFF
7FFFFFFF
FFFFFFFF
FFF00FFF
FFE007FF
FFC003FF
FF8001FF
FF0000FF
FF0000FF
FF0000FF
FF0000FF
FF0000FF
FF0000FF
FF0000FF
FF0000FF
FF0000FF
FF0000FF
FF0000FF
FF0000FF
FF0000FF
FF0000FF
FF0000FF
FF0000FF
FF8001FF
FFC003FF
FFE007FF
FFF00FFF
FFFFFFFF
7FFFFFFF
3FFFFFFF
1FFFFFFF
0FFFFFFF
07FFFEFF
03FFFCFF
01FFF8FF
ENDCHAR
STARTCHAR 00E2
ENCODING 226
SWIDTH 281 0
DWIDTH 36 0
BBX 32 68 0 0
BITMAP
00010000
00018000
00018000
0003C000
0003C000
0007E000
0007E000
000FF000
000FF000
001FF800
001FF800
003FFC00
003FFC00
007E7E00
007E7E00
00FC3F00
00FC3F00
01F81F80
01F81F80
03F00FC0
00000000
00000000
00000000
00000000
00000000
00000000
00000000
00000000
01FFF8FF
03FFFCFF
07FFFEFF
0FFFFFFF
1FFFFFFF
3FFFFFFF
7FFFFFFF
FFFFFFFF
FFF00FFF
FFE007FF
FFC003FF
FF8001FF
FF0000FF
FF0000FF
FF0000FF
FF0000FF
FF0000FF
FF0000FF
FF0000FF
FF0000FF
FF0000FF
FF0000FF
FF0000FF
FF0000FF
FF0000FF
FF0000FF
FF0000FF
FF0000FF
FF8001FF
FFC003FF
FFE007FF
FFF00FFF
FFFFFFFF
7FFFFFFF
3FFFFFFF
1FFFFFFF
0FFFFFFF
07FFFEFF
03FFFCFF
01FFF8FF
ENDCHAR
STARTCHAR 00E3
ENCODING 227
SWIDTH 281 0
DWIDTH 36 0
BBX 32 64 0 0
BITMAP
01F803F0
03FC03F0
07FE03F0
0FFF03F0
0FFF83F0
0FFFC3F0
0FFFE3F0
0FFFF3F0
0FCFFFF0
0FC7FFF0
0FC3FFF0
0FC1FFF0
0FC0FFF0
0FC07FE0
0FC03FC0
0FC01F80
00000000
00000000
00000000
00000000
00000000
00000000
00000000
00000000
01FFF8FF
03FFFCFF
07FFFEFF
0FFFFFFF
1FFFFFFF
3FFFFFFF
7FFFFFFF
FFFFFFFF
FFF00FFF
FFE007FF
FFC003FF
FF8001FF
FF0000FF
FF0000FF
FF0000FF
FF0000FF
FF0000FF
FF0000FF
FF0000FF
FF0000FF
FF0000FF
FF0000FF
FF0000FF
FF0000FF
FF0000FF
FF0000FF
FF0000FF
FF0000FF
FF8001FF
FFC003FF
FFE007FF
FFF00FFF
FFFFFFFF
7FFFFFFF
3FFFFFFF
1FFFFFFF
0FFFFFFF
07FFFEFF
03FFFCFF
01FFF8FF
ENDCHAR
STARTCHAR 00E4
ENCODING 228
SWIDTH 281 0
DWIDTH 36 0
BBX 32 56 0 0
BITMAP
0FF00FF0
0FF00FF0
0FF00FF0
0FF00FF0
0FF00FF0
0FF00FF0
0FF00FF0
0FF00FF0
00000000
00000000
00000000
00000000
00000000
00000000
00000000
00000000
01FFF8FF
03FFFCFF
07FFFEFF
0FFFFFFF
1FFFFFFF
3FFFFFFF
7FFFFFFF
FFFFFFFF
FFF00FFF
FFE007FF
FFC003FF
FF8001FF
FF0000FF
FF0000FF
FF0000FF
FF0000FF
FF0000FF
FF0000FF
FF0000FF
FF0000FF
FF0000FF
FF0000FF
FF0000FF
FF0000FF
FF0000FF
FF0000FF
FF0000FF
FF0000FF
FF8001FF
FFC003FF
FFE007FF
FFF00FFF
FFFFFFFF
7FFFFFFF
3FFFFFFF
1FFFFFFF
0FFFFFFF
07FFFEFF
03FFFCFF
01FFF8FF
ENDCHAR
STARTCHAR 00E5
ENCODING 229
SWIDTH 281 0
DWIDTH 36 0
BBX 32 64 0 0
BITMAP
001FF800
003FFC00
007FFE00
00FFFF00
00FC3F00
00F81F00
00F00F00
00F00F00
00F00F00
00F00F00
00F81F00
00FC3F00
00FFFF00
007FFE00
003FFC00
001FF800
00000000
00000000
00000000
00000000
00000000
00000000
00000000
00000000
01FFF8FF
03FFFCFF
07FFFEFF
0FFFFFFF
1FFFFFFF
3FFFFFFF
7FFFFFFF
FFFFFFFF
FFF00FFF
FFE007FF
FFC003FF
FF8001FF
FF0000FF
FF0000FF
FF0000FF
FF0000FF
FF0000FF
FF0000FF
FF0000FF
FF0000FF
FF0000FF
FF0000FF
FF0000FF
FF0000FF
FF0000FF
FF0000FF
FF0000FF
FF0000FF
FF8001FF
FFC003FF
FFE007FF
FFF00FFF
FFFFFFFF
7FFFFFFF
3FFFFFFF
1FFFFFFF
0FFFFFFF
07FFFEFF
03FFFCFF
01FFF8FF
ENDCHAR
STARTCHAR 00E7
ENCODING 231
SWIDTH 281 0
DWIDTH 36 0
BBX 32 54 0 -14
BITMAP
01FFFF80
03FFFFC0
07FFFFE0
0FFFFFF0
1FFFFFF8
3FFFFFFC
7FFFFFFE
FFFFFFFF
FFF00FFF
FFE007FF
FFC003FF
FF8001FF
FF0000FF
FF0000FF
FF000000
FF000000
FF000000
FF000000
FF000000
FF000000
FF000000
FF000000
FF000000
FF000000
FF000000
FF000000
FF0000FF
FF0000FF
FF8001FF
FFC003FF
FFE007FF
FFF00FFF
FFFFFFFF
7FFFFFFE
3FFFFFFC
1FFFFFF8
0FFFFFF0
07FFFFE0
03FFFFC0
01FFFF80
000FF000
000FF000
000FF800
0007FC00
0003FE00
0001FF00
0000FF00
0000FF00
00FFFF00
00FFFF00
00FFFF00
00FFFE00
00FFFC00
00FFF800
ENDCHAR
STARTCHAR 00E8
ENCODING 232
SWIDTH 281 0
DWIDTH 36 0
BBX 32 68 0 0
BITMAP
00FC0000
007E0000
007E0000
003F0000
003F0000
001F8000
001F8000
000FC000
000FC000
0007E000
0007E000
0003F000
0003F000
0001F800
0001F800
0000FC00
0000FC00
00007E00
00007E00
00003F00
00000000
00000000
00000000
00000000
00000000
00000000
00000000
00000000
01FFFF80
03FFFFC0
07FFFFE0
0FFFFFF0
1FFFFFF8
3FFFFFFC
7FFFFFFE
FFFFFFFF
FFF00FFF
FFE007FF
FFC003FF
FF8001FF
FF0000FF
FF0000FF
FF0000FF
FF0000FF
FFFFFFFF
FFFFFFFF
FFFFFFFF
FFFFFFFF
FFFFFFFF
FFFFFFFF
FFFFFFFF
FFFFFFFF
FF000000
FF000000
FF000000
FF000000
FF8001FF
FFC003FF
FFE007FF
FFF00FFF
FFFFFFFF
7FFFFFFE
3FFFFFFC
1FFFFFF8
0FFFFFF0
07FFFFE0
03FFFFC0
01FFFF80
ENDCHAR
STARTCHAR 00E9
ENCODING 233
SWIDTH 281 0
DWIDTH 36 0
BBX 32 68 0 0
BITMAP
00003F00
00007E00
00007E00
0000FC00
0000FC00
0001F800
0001F800
0003F000
0003F000
0007E000
0007E000
000FC000
000FC000
001F8000
001F8000
003F0000
003F0000
007E0000
007E0000
00FC0000
00000000
00000000
00000000
00000000
00000000
00000000
00000000
00000000
01FFFF80
03FFFFC0
07FFFFE0
0FFFFFF0
1FFFFFF8
3FFFFFFC
7FFFFFFE
FFFFFFFF
FFF00FFF
FFE007FF
FFC003FF
FF8001FF
FF0000FF
FF0000FF
FF0000FF
FF0000FF
FFFFFFFF
FFFFFFFF
FFFFFFFF
FFFFFFFF
FFFFFFFF
FFFFFFFF
FFFFFFFF
FFFFFFFF
FF000000
FF000000
FF000000
FF000000
FF8001FF
FFC003FF
FFE007FF
FFF00FFF
FFFFFFFF
7FFFFFFE
3FFFFFFC
1FFFFFF8
0FFFFFF0
07FFFFE0
03FFFFC0
01FFFF80
ENDCHAR
STARTCHAR 00EA
ENCODING 234
SWIDTH 281 0
DWIDTH 36 0
BBX 32 68 0 0
BITMAP
00010000
00018000
00018000
0003C000
0003C000
0007E000
0007E000
000FF000
000FF000
001FF800
001FF800
003FFC00
003FFC00
007E7E00
007E7E00
00FC3F00
00FC3F00
01F81F80
01F81F80
03F00FC0
00000000
00000000
00000000
00000000
00000000
00000000
00000000
00000000
01FFFF80
03FFFFC0
07FFFFE0
0FFFFFF0
1FFFFFF8
3FFFFFFC
7FFFFFFE
FFFFFFFF
FFF00FFF
FFE007FF
FFC003FF
FF8001FF
FF0000FF
FF0000FF
FF0000FF
FF0000FF
FFFFFFFF
FFFFFFFF
FFFFFFFF
FFFFFFFF
FFFFFFFF
FFFFFFFF
FFFFFFFF
FFFFFFFF
FF000000
FF000000
FF000000
FF000000
FF8001FF
FFC003FF
FFE007FF
FFF00FFF
FFFFFFFF
7FFFFFFE
3FFFFFFC
1FFFFFF8
0FFFFFF0
07FFFFE0
03FFFFC0
01FFFF80
ENDCHAR
STARTCHAR 00EB
ENCODING 235
SWIDTH 281 0
DWIDTH 36 0
BBX 32 56 0 0
BITMAP
0FF00FF0
0FF00FF0
0FF00FF0
0FF00FF0
0FF00FF0
0FF00FF0
0FF00FF0
0FF00FF0
00000000
00000000
00000000
00000000
00000000
00000000
00000000
00000000
01FFFF80
03FFFFC0
07FFFFE0
0FFFFFF0
1FFFFFF8
3FFFFFFC
7FFFFFFE
FFFFFFFF
FFF00FFF
FFE007FF
FFC003FF
FF8001FF
FF0000FF
FF0000FF
FF0000FF
FF0000FF
FFFFFFFF
FFFFFFFF
FFFFFFFF
FFFFFFFF
FFFFFFFF
FFFFFFFF
FFFFFFFF
FFFFFFFF
FF000000
FF000000
FF000000
FF000000
FF8001FF
FFC003FF
FFE007FF
FFF00FFF
FFFFFFFF
7FFFFFFE
3FFFFFFC
1FFFFFF8
0FFFFFF0
07FFFFE0
03FFFFC0
01FFFF80
ENDCHAR
STARTCHAR 00EC
ENCODING 236
SWIDTH 281 0
DWIDTH 36 0
BBX 32 68 0 0
BITMAP
00FC0000
007E0000
007E0000
003F0000
003F0000
001F8000
001F8000
000FC000
000FC000
0007E000
0007E000
0003F000
0003F000
0001F800
0001F800
0000FC00
0000FC00
00007E00
00007E00
00003F00
00000000
00000000
00000000
00000000
00000000
00000000
00000000
00000000
00FFF000
00FFF000
00FFF000
00FFF000
00FFF000
00FFF000
00FFF000
00FFF000
000FF000
000FF000
000FF000
000FF000
000FF000
000FF000
000FF000
000FF000
000FF000
000FF000
000FF000
000FF000
000FF000
000FF000
000FF000
000FF000
000FF000
000FF000
000FF000
000FF000
000FF000
000FF000
000FF000
000FF000
FFFFFFFF
FFFFFFFF
FFFFFFFF
FFFFFFFF
FFFFFFFF
FFFFFFFF
FFFFFFFF
FFFFFFFF
ENDCHAR
STARTCHAR 00ED
ENCODING 237
SWIDTH 281 0
DWIDTH 36 0
BBX 32 68 0 0
BITMAP
00003F00
00007E00
00007E00
0000FC00
0000FC00
0001F800
0001F800
0003F000
0003F000
0007E000
0007E000
000FC000
000FC000
001F8000
001F8000
003F0000
003F0000
007E0000
007E0000
00FC0000
00000000
00000000
00000000
00000000
00000000
00000000
00000000
00000000
00FFF000
00FFF000
00FFF000
00FFF000
00FFF000
00FFF000
00FFF000
00FFF000
000FF000
000FF000
000FF000
000FF000
000FF000
000FF000
000FF000
000FF000
000FF000
000FF000
000FF000
000FF000
000FF000
000FF000
000FF000
000FF000
000FF000
000FF000
000FF000
000FF000
000FF000
000FF000
000FF000
000FF000
FFFFFFFF
FFFFFFFF
FFFFFFFF
FFFFFFFF
FFFFFFFF
FFFFFFFF
FFFFFFFF
FFFFFFFF
ENDCHAR
STARTCHAR 00EE
ENCODING 238
SWIDTH 281 0
DWIDTH 36 0
BBX 32 68 0 0
BITMAP
00010000
00018000
00018000
0003C000
0003C000
0007E000
0007E000
000FF000
000FF000
001FF800
001FF800
003FFC00
003FFC00
007E7E00
007E7E00
00FC3F00
00FC3F00
01F81F80
01F81F80
03F00FC0
00000000
00000000
00000000
00000000
00000000
00000000
00000000
00000000
00FFF000
00FFF000
00FFF000
00FFF000
00FFF000
00FFF000
00FFF000
00FFF000
000FF000
000FF000
000FF000
000FF000
000FF000
000FF000
000FF000
000FF000
000FF000
000FF000
000FF000
000FF000
000FF000
000FF000
000FF000
000FF000
000FF000
000FF000
000FF000
000FF000
000FF000
000FF000
000FF000
000FF000
FFFFFFFF
FFFFFFFF
FFFFFFFF
FFFFFFFF
FFFFFFFF
FFFFFFFF
FFFFFFFF
FFFFFFFF
ENDCHAR
STARTCHAR 00EF
ENCODING 239
SWIDTH 281 0
DWIDTH 36 0
BBX 32 56 0 0
BITMAP
0FF00FF0
0FF00FF0
0FF00FF0
0FF00FF0
0FF00FF0
0FF00FF0
0FF00FF0
0FF00FF0
00000000
00000000
00000000
00000000
00000000
00000000
00000000
00000000
00FFF000
00FFF000
00FFF000
00FFF000
00FFF000
00FFF000
00FFF000
00FFF000
000FF000
000FF000
000FF000
000FF000
000FF000
000FF000
000FF000
000FF000
000FF000
000FF000
000FF000
000FF000
000FF000
000FF000
000FF000
000FF000
000FF000
000FF000
000FF000
000FF000
000FF000
000FF000
000FF000
000FF000
FFFFFFFF
FFFFFFFF
FFFFFFFF
FFFFFFFF
FFFFFFFF
FFFFFFFF
FFFFFFFF
FFFFFFFF
ENDCHAR
STARTCHAR 00F0
ENCODING 240
SWIDTH 281 0
DWIDTH 36 0
BBX 32 60 0 0
BITMAP
00100000
00780000
01F80000
07FC0000
0FFC0100
07FE0780
07FE1F80
03FF7FC0
03FFFFC0
01FFFFE0
01FFFFE0
00FFFFF0
01FFFFE0
07FFFF80
1FFFFE00
7FFFF800
FFFFF000
7FFFF800
7FFFF800
3FFFFC00
3FEFFC00
1F87FE00
1E07FE00
0803FF00
0003FF00
0001FF80
0001FF80
0000FFC0
01FFFFC0
03FFFFE0
07FFFFE0
0FFFFFF0
1FFFFFF0
3FFFFFF8
7FFFFFF8
FFFFFFFC
FFF00FFC
FFE007FE
FFC007FE
FF8003FF
FF0003FF
FF0001FF
FF0001FF
FF0000FF
FF0000FF
FF0000FF
FF0000FF
FF0000FF
FF8001FF
FFC003FF
FFE007FF
FFF00FFF
FFFFFFFF
7FFFFFFE
3FFFFFFC
1FFFFFF8
0FFFFFF0
07FFFFE0
03FFFFC0
01FFFF80
ENDCHAR
STARTCHAR 00F1
ENCODING 241
SWIDTH 281 0
DWIDTH 36 0
BBX 32 64 0 0
BITMAP
01F803F0
03FC03F0
07FE03F0
0FFF03F0
0FFF83F0
0FFFC3F0
0FFFE3F0
0FFFF3F0
0FCFFFF0
0FC7FFF0
0FC3FFF0
0FC1FFF0
0FC0FFF0
0FC07FE0
0FC03FC0
0FC01F80
00000000
00000000
00000000
00000000
00000000
00000000
00000000
00000000
FF1FFF80
FF3FFFC0
FF7FFFE0
FFFFFFF0
FFFFFFF8
FFFFFFFC
FFFFFFFE
FFFFFFFF
FFF00FFF
FFE007FF
FFC003FF
FF8001FF
FF0000FF
FF0000FF
FF0000FF
FF0000FF
FF0000FF
FF0000FF
FF0000FF
FF0000FF
FF0000FF
FF0000FF
FF0000FF
FF0000FF
FF0000FF
FF0000FF
FF0000FF
FF0000FF
FF0000FF
FF0000FF
FF0000FF
FF0000FF
FF0000FF
FF0000FF
FF0000FF
FF0000FF
FF0000FF
FF0000FF
FF0000FF
FF0000FF
ENDCHAR
STARTCHAR 00F2
ENCODING 242
SWIDTH 281 0
DWIDTH 36 0
BBX 32 68 0 0
BITMAP
00FC0000
007E0000
007E0000
003F0000
003F0000
001F8000
001F8000
000FC000
000FC000
0007E000
0007E000
0003F000
0003F000
0001F800
0001F800
0000FC00
0000FC00
00007E00
00007E00
00003F00
00000000
00000000
00000000
00000000
00000000
00000000
00000000
00000000
01FFFF80
03FFFFC0
07FFFFE0
0FFFFFF0
1FFFFFF8
3FFFFFFC
7FFFFFFE
FFFFFFFF
FFF00FFF
FFE007FF
FFC003FF
FF8001FF
FF0000FF
FF0000FF
FF0000FF
FF0000FF
FF0000FF
FF0000FF
FF0000FF
FF0000FF
FF0000FF
FF0000FF
FF0000FF
FF0000FF
FF0000FF
FF0000FF
FF0000FF
FF0000FF
FF8001FF
FFC003FF
FFE007FF
FFF00FFF
FFFFFFFF
7FFFFFFE
3FFFFFFC
1FFFFFF8
0FFFFFF0
07FFFFE0
03FFFFC0
01FFFF80
ENDCHAR
STARTCHAR 00F3
ENCODING 243
SWIDTH 281 0
DWIDTH 36 0
BBX 32 68 0 0
BITMAP
00003F00
00007E00
00007E00
0000FC00
0000FC00
0001F800
0001F800
0003F000
0003F000
0007E000
0007E000
000FC000
000FC000
001F8000
001F8000
003F0000
003F0000
007E0000
007E0000
00FC0000
00000000
00000000
00000000
00000000
00000000
00000000
00000000
00000000
01FFFF80
03FFFFC0
07FFFFE0
0FFFFFF0
1FFFFFF8
3FFFFFFC
7FFFFFFE
FFFFFFFF
FFF00FFF
FFE007FF
FFC003FF
FF8001FF
FF0000FF
FF0000FF
FF0000FF
FF0000FF
FF0000FF
FF0000FF
FF0000FF
FF0000FF
FF0000FF
FF0000FF
FF0000FF
FF0000FF
FF0000FF
FF0000FF
FF0000FF
FF0000FF
FF8001FF
FFC003FF
FFE007FF
FFF00FFF
FFFFFFFF
7FFFFFFE
3FFFFFFC
1FFFFFF8
0FFFFFF0
07FFFFE0
03FFFFC0
01FFFF80
ENDCHAR
STARTCHAR 00F4
ENCODING 244
SWIDTH 281 0
DWIDTH 36 0
BBX 32 68 0 0
BITMAP
00010000
00018000
00018000
0003C000
0003C000
0007E000
0007E000
000FF000
000FF000
001FF800
001FF800
003FFC00
003FFC00
007E7E00
007E7E00
00FC3F00
00FC3F00
01F81F80
01F81F80
03F00FC0
00000000
00000000
00000000
00000000
00000000
00000000
00000000
00000000
01FFFF80
03FFFFC0
07FFFFE0
0FFFFFF0
1FFFFFF8
3FFFFFFC
7FFFFFFE
FFFFFFFF
FFF00FFF
FFE007FF
FFC003FF
FF8001FF
FF0000FF
FF0000FF
FF0000FF
FF0000FF
FF0000FF
FF0000FF
FF0000FF
FF0000FF
FF0000FF
FF0000FF
FF0000FF
FF0000FF
FF0000FF
FF0000FF
FF0000FF
FF0000FF
FF8001FF
FFC003FF
FFE007FF
FFF00FFF
FFFFFFFF
7FFFFFFE
3FFFFFFC
1FFFFFF8
0FFFFFF0
07FFFFE0
03FFFFC0
01FFFF80
ENDCHAR
STARTCHAR 00F5
ENCODING 245
SWIDTH 281 0
DWIDTH 36 0
BBX 32 64 0 0
BITMAP
01F803F0
03FC03F0
07FE03F0
0FFF03F0
0FFF83F0
0FFFC3F0
0FFFE3F0
0FFFF3F0
0FCFFFF0
0FC7FFF0
0FC3FFF0
0FC1FFF0
0FC0FFF0
0FC07FE0
0FC03FC0
0FC01F80
00000000
00000000
00000000
00000000
00000000
00000000
00000000
00000000
01FFFF80
03FFFFC0
07FFFFE0
0FFFFFF0
1FFFFFF8
3FFFFFFC
7FFFFFFE
FFFFFFFF
FFF00FFF
FFE007FF
FFC003FF
FF8001FF
FF0000FF
FF0000FF
FF0000FF
FF0000FF
FF0000FF
FF0000FF
FF0000FF
FF0000FF
FF0000FF
FF0000FF
FF0000FF
FF0000FF
FF0000FF
FF0000FF
FF0000FF
FF0000FF
FF8001FF
FFC003FF
FFE007FF
FFF00FFF
FFFFFFFF
7FFFFFFE
3FFFFFFC
1FFFFFF8
0FFFFFF0
07FFFFE0
03FFFFC0
01FFFF80
ENDCHAR
STARTCHAR 00F6
ENCODING 246
SWIDTH 281 0
DWIDTH 36 0
BBX 32 56 0 0
BITMAP
0FF00FF0
0FF00FF0
0FF00FF0
0FF00FF0
0FF00FF0
0FF00FF0
0FF00FF0
0FF00FF0
00000000
00000000
00000000
00000000
00000000
00000000
00000000
00000000
01FFFF80
03FFFFC0
07FFFFE0
0FFFFFF0
1FFFFFF8
3FFFFFFC
7FFFFFFE
FFFFFFFF
FFF00FFF
FFE007FF
FFC003FF
FF8001FF
FF0000FF
FF0000FF
FF0000FF
FF0000FF
FF0000FF
FF0000FF
FF0000FF
FF0000FF
FF0000FF
FF0000FF
FF0000FF
FF0000FF
FF0000FF
FF0000FF
FF0000FF
FF0000FF
FF8001FF
FFC003FF
FFE007FF
FFF00FFF
FFFFFFFF
7FFFFFFE
3FFFFFFC
1FFFFFF8
0FFFFFF0
07FFFFE0
03FFFFC0
01FFFF80
ENDCHAR
STARTCHAR 00F7
ENCODING 247
SWIDTH 281 0
DWIDTH 36 0
BBX 32 40 0 8
BITMAP
000FF000
000FF000
000FF000
000FF000
000FF000
000FF000
000FF000
000FF000
00000000
00000000
00000000
00000000
00000000
00000000
00000000
00000000
FFFFFFFF
FFFFFFFF
FFFFFFFF
FFFFFFFF
FFFFFFFF
FFFFFFFF
FFFFFFFF
FFFFFFFF
00000000
00000000
00000000
00000000
00000000
00000000
00000000
00000000
000FF000
000FF000
000FF000
000FF000
000FF000
000FF000
000FF000
000FF000
ENDCHAR
STARTCHAR 00F8
ENCODING 248
SWIDTH 281 0
DWIDTH 36 0
BBX 32 40 0 0
BITMAP
01FFFF80
03FFFFC0
07FFFFE0
0FFFFFF0
1FFFFFF8
3FFFFFFC
7FFFFFFE
FFFFFFFF
FFF03FFF
FFE07FFF
FFC07FFF
FF80FFFF
FF00FFFF
FF01FEFF
FF01FEFF
FF03FCFF
FF03FCFF
FF07F8FF
FF07F8FF
FF0FF0FF
FF0FF0FF
FF1FE0FF
FF1FE0FF
FF3FC0FF
FF3FC0FF
FF7F80FF
FF7F80FF
FFFF00FF
FFFF01FF
FFFE03FF
FFFE07FF
FFFC0FFF
FFFFFFFF
7FFFFFFE
3FFFFFFC
1FFFFFF8
0FFFFFF0
07FFFFE0
03FFFFC0
01FFFF80
ENDCHAR
STARTCHAR 00F9
ENCODING 249
SWIDTH 281 0
DWIDTH 36 0
BBX 32 68 0 0
BITMAP
00FC0000
007E0000
007E0000
003F0000
003F0000
001F8000
001F8000
000FC000
000FC000
0007E000
0007E000
0003F000
0003F000
0001F800
0001F800
0000FC00
0000FC00
00007E00
00007E00
00003F00
00000000
00000000
00000000
00000000
00000000
00000000
00000000
00000000
FF0000FF
FF0000FF
FF0000FF
FF0000FF
FF0000FF
FF0000FF
FF0000FF
FF0000FF
FF0000FF
FF0000FF
FF0000FF
FF0000FF
FF0000FF
FF0000FF
FF0000FF
FF0000FF
FF0000FF
FF0000FF
FF0000FF
FF0000FF
FF0000FF
FF0000FF
FF0000FF
FF0000FF
FF0000FF
FF0000FF
FF0000FF
FF0000FF
FF8001FF
FFC003FF
FFE007FF
FFF00FFF
FFFFFFFF
7FFFFFFF
3FFFFFFF
1FFFFFFF
0FFFFFFF
07FFFEFF
03FFFCFF
01FFF8FF
ENDCHAR
STARTCHAR 00FA
ENCODING 250
SWIDTH 281 0
DWIDTH 36 0
BBX 32 68 0 0
BITMAP
00003F00
00007E00
00007E00
0000FC00
0000FC00
0001F800
0001F800
0003F000
0003F000
0007E000
0007E000
000FC000
000FC000
001F8000
001F8000
003F0000
003F0000
007E0000
007E0000
00FC0000
00000000
00000000
00000000
00000000
00000000
00000000
00000000
00000000
FF0000FF
FF0000FF
FF0000FF
FF0000FF
FF0000FF
FF0000FF
FF0000FF
FF0000FF
FF0000FF
FF0000FF
FF0000FF
FF0000FF
FF0000FF
FF0000FF
FF0000FF
FF0000FF
FF0000FF
FF0000FF
FF0000FF
FF0000FF
FF0000FF
FF0000FF
FF0000FF
FF0000FF
FF0000FF
FF0000FF
FF0000FF
FF0000FF
FF8001FF
FFC003FF
FFE007FF
FFF00FFF
FFFFFFFF
7FFFFFFF
3FFFFFFF
1FFFFFFF
0FFFFFFF
07FFFEFF
03FFFCFF
01FFF8FF
ENDCHAR
STARTCHAR 00FB
ENCODING 251
SWIDTH 281 0
DWIDTH 36 0
BBX 32 68 0 0
BITMAP
00010000
00018000
00018000
0003C000
0003C000
0007E000
0007E000
000FF000
000FF000
001FF800
001FF800
003FFC00
003FFC00
007E7E00
007E7E00
00FC3F00
00FC3F00
01F81F80
01F81F80
03F00FC0
00000000
00000000
00000000
00000000
00000000
00000000
00000000
00000000
FF0000FF
FF0000FF
FF0000FF
FF0000FF
FF0000FF
FF0000FF
FF0000FF
FF0000FF
FF0000FF
FF0000FF
FF0000FF
FF0000FF
FF0000FF
FF0000FF
FF0000FF
FF0000FF
FF0000FF
FF0000FF
FF0000FF
FF0000FF
FF0000FF
FF0000FF
FF0000FF
FF0000FF
FF0000FF
FF0000FF
FF0000FF
FF0000FF
FF8001FF
FFC003FF
FFE007FF
FFF00FFF
FFFFFFFF
7FFFFFFF
3FFFFFFF
1FFFFFFF
0FFFFFFF
07FFFEFF
03FFFCFF
01FFF8FF
ENDCHAR
STARTCHAR 00FC
ENCODING 252
SWIDTH 281 0
DWIDTH 36 0
BBX 32 56 0 0
BITMAP
0FF00FF0
0FF00FF0
0FF00FF0
0FF00FF0
0FF00FF0
0FF00FF0
0FF00FF0
0FF00FF0
00000000
00000000
00000000
00000000
00000000
00000000
00000000
00000000
FF0000FF
FF0000FF
FF0000FF
FF0000FF
FF0000FF
FF0000FF
FF0000FF
FF0000FF
FF0000FF
FF0000FF
FF0000FF
FF0000FF
FF0000FF
FF0000FF
FF0000FF
FF0000FF
FF0000FF
FF0000FF
FF0000FF
FF0000FF
FF0000FF
FF0000FF
FF0000FF
FF0000FF
FF0000FF
FF0000FF
FF0000FF
FF0000FF
FF8001FF
FFC003FF
FFE007FF
FFF00FFF
FFFFFFFF
7FFFFFFF
3FFFFFFF
1FFFFFFF
0FFFFFFF
07FFFEFF
03FFFCFF
01FFF8FF
ENDCHAR
STARTCHAR 00FD
ENCODING 253
SWIDTH 281 0
DWIDTH 36 0
BBX 32 88 0 -20
BITMAP
00003F00
00007E00
00007E00
0000FC00
0000FC00
0001F800
0001F800
0003F000
0003F000
0007E000
0007E000
000FC000
000FC000
001F8000
001F8000
003F0000
003F0000
007E0000
007E0000
00FC0000
00000000
00000000
00000000
00000000
00000000
00000000
00000000
00000000
FF0000FF
FF0000FF
FF0000FF
FF0000FF
FF0000FF
FF0000FF
FF0000FF
FF0000FF
FF0000FF
FF0000FF
FF0000FF
FF0000FF
FF0000FF
FF0000FF
FF0000FF
FF0000FF
FF0000FF
7F8001FE
7F8001FE
3FC003FC
3FC003FC
1FE007F8
1FE007F8
0FF00FF0
0FF00FF0
07F81FE0
07F81FE0
03FC3FC0
03FC3FC0
01FE7F80
01FE7F80
00FFFF00
00FFFF00
007FFE00
007FFE00
003FFC00
003FFC00
001FF800
001FF800
000FF000
000FF000
001FE000
001FE000
003FC000
003FC000
007F8000
007F8000
00FF0000
00FF0000
01FE0000
01FE0000
03FC0000
03FC0000
07F80000
07F80000
0FF00000
0FF00000
1FE00000
1FE00000
3FC00000
ENDCHAR
STARTCHAR 00FE
ENCODING 254
SWIDTH 281 0
DWIDTH 36 0
BBX 32 76 0 -20
BITMAP
FF000000
FF000000
FF000000
FF000000
FF000000
FF000000
FF000000
FF000000
FF000000
FF000000
FF000000
FF000000
FF000000
FF000000
FF000000
FF000000
FF1FFF80
FF3FFFC0
FF7FFFE0
FFFFFFF0
FFFFFFF8
FFFFFFFC
FFFFFFFE
FFFFFFFF
FFF00FFF
FFE007FF
FFC003FF
FF8001FF
FF0000FF
FF0000FF
FF0000FF
FF0000FF
FF0000FF
FF0000FF
FF0000FF
FF0000FF
FF0000FF
FF0000FF
FF0000FF
FF0000FF
FF0000FF
FF0000FF
FF0000FF
FF0000FF
FF8001FF
FFC003FF
FFE007FF
FFF00FFF
FFFFFFFF
FFFFFFFE
FFFFFFFC
FFFFFFF8
FFFFFFF0
FF7FFFE0
FF3FFFC0
FF1FFF80
FF000000
FF000000
FF000000
FF000000
FF000000
FF000000
FF000000
FF000000
FF000000
FF000000
FF000000
FF000000
FF000000
FF000000
FF000000
FF000000
FF000000
FF000000
FF000000
FF000000
ENDCHAR
STARTCHAR 00FF
ENCODING 255
SWIDTH 281 0
DWIDTH 36 0
BBX 32 76 0 -20
BITMAP
0FF00FF0
0FF00FF0
0FF00FF0
0FF00FF0
0FF00FF0
0FF00FF0
0FF00FF0
0FF00FF0
00000000
00000000
00000000
00000000
00000000
00000000
00000000
00000000
FF0000FF
FF0000FF
FF0000FF
FF0000FF
FF0000FF
FF0000FF
FF0000FF
FF0000FF
FF0000FF
FF0000FF
FF0000FF
FF0000FF
FF0000FF
FF0000FF
FF0000FF
FF0000FF
FF0000FF
7F8001FE
7F8001FE
3FC003FC
3FC003FC
1FE007F8
1FE007F8
0FF00FF0
0FF00FF0
07F81FE0
07F81FE0
03FC3FC0
03FC3FC0
01FE7F80
01FE7F80
00FFFF00
00FFFF00
007FFE00
007FFE00
003FFC00
003FFC00
001FF800
001FF800
000FF000
000FF000
001FE000
001FE000
003FC000
003FC000
007F8000
007F8000
00FF0000
00FF0000
01FE0000
01FE0000
03FC0000
03FC0000
07F80000
07F80000
0FF00000
0FF00000
1FE00000
1FE00000
3FC00000
ENDCHAR
STARTCHAR 0153
ENCODING 339
SWIDTH 281 0
DWIDTH 36 0
BBX 32 40 0 0
BITMAP
01F81F80
03FC3FC0
07FE7FE0
0FFFFFF0
1FFFFFF8
3FFFFFFC
7FFFFFFE
FFFFFFFF
FFFFFFFF
FFFFFFFF
FFFFFFFF
FF9FF9FF
FF0FF0FF
FF0FF0FF
FF0FF0FF
FF0FF0FF
FF0FFFFF
FF0FFFFF
FF0FFFFF
FF0FFFFF
FF0FFFFF
FF0FFFFF
FF0FFFFF
FF0FFFFF
FF0FF000
FF0FF000
FF0FF000
FF0FF000
FF9FF9FF
FFFFFFFF
FFFFFFFF
FFFFFFFF
FFFFFFFF
7FFFFFFE
3FFFFFFC
1FFFFFF8
0FFFFFF0
07FE7FE0
03FC3FC0
01F81F80
ENDCHAR
STARTCHAR 0160
ENCODING 352
SWIDTH 281 0
DWIDTH 36 0
BBX 32 84 0 0
BITMAP
03F00FC0
01F81F80
01F81F80
00FC3F00
00FC3F00
007E7E00
007E7E00
003FFC00
003FFC00
001FF800
001FF800
000FF000
000FF000
0007E000
0007E000
0003C000
0003C000
00018000
00018000
00010000
00000000
00000000
00000000
00000000
00000000
00000000
00000000
00000000
01FFFF80
03FFFFC0
07FFFFE0
0FFFFFF0
1FFFFFF8
3FFFFFFC
7FFFFFFE
FFFFFFFF
FFF00FFF
FFE007FF
FFC003FF
FF8001FF
FF0000FF
FF0000FF
FF0000FF
FF0000FF
FF000000
FF000000
FF000000
FF000000
FF800000
FFC00000
FFE00000
FFF00000
FFFFFF80
7FFFFFC0
3FFFFFE0
1FFFFFF0
0FFFFFF8
07FFFFFC
03FFFFFE
01FFFFFF
00000FFF
000007FF
000003FF
000001FF
000000FF
000000FF
000000FF
000000FF
FF0000FF
FF0000FF
FF0000FF
FF0000FF
FF8001FF
FFC003FF
FFE007FF
FFF00FFF
FFFFFFFF
7FFFFFFE
3FFFFFFC
1FFFFFF8
0FFFFFF0
07FFFFE0
03FFFFC0
01FFFF80
ENDCHAR
STARTCHAR 0161
ENCODING 353
SWIDTH 281 0
DWIDTH 36 0
BBX 32 68 0 0
BITMAP
03F00FC0
01F81F80
01F81F80
00FC3F00
00FC3F00
007E7E00
007E7E00
003FFC00
003FFC00
001FF800
001FF800
000FF000
000FF000
0007E000
0007E000
0003C000
0003C000
00018000
00018000
00010000
00000000
00000000
00000000
00000000
00000000
00000000
00000000
00000000
01FFFF80
03FFFFC0
07FFFFE0
0FFFFFF0
1FFFFFF8
3FFFFFFC
7FFFFFFE
FFFFFFFF
FFF00FFF
FFE007FF
FFC003FF
FF8001FF
FF8000FF
FFC000FF
FFE00000
FFF00000
FFFFFF80
7FFFFFC0
3FFFFFE0
1FFFFFF0
0FFFFFF8
07FFFFFC
03FFFFFE
01FFFFFF
00000FFF
000007FF
FF0003FF
FF0001FF
FF8001FF
FFC003FF
FFE007FF
FFF00FFF
FFFFFFFF
7FFFFFFE
3FFFFFFC
1FFFFFF8
0FFFFFF0
07FFFFE0
03FFFFC0
01FFFF80
ENDCHAR
STARTCHAR 0178
ENCODING 376
SWIDTH 281 0
DWIDTH 36 0
BBX 32 72 0 0
BITMAP
0FF00FF0
0FF00FF0
0FF00FF0
0FF00FF0
0FF00FF0
0FF00FF0
0FF00FF0
0FF00FF0
00000000
00000000
00000000
00000000
00000000
00000000
00000000
00000000
FF0000FF
FF0000FF
FF0000FF
FF0000FF
FF0000FF
7F8001FE
7F8001FE
3FC003FC
3FC003FC
1FE007F8
1FE007F8
0FF00FF0
0FF00FF0
07F81FE0
07F81FE0
03FC3FC0
03FC3FC0
01FE7F80
01FE7F80
00FFFF00
00FFFF00
007FFE00
007FFE00
003FFC00
003FFC00
001FF800
001FF800
000FF000
000FF000
000FF000
000FF000
000FF000
000FF000
000FF000
000FF000
000FF000
000FF000
000FF000
000FF000
000FF000
000FF000
000FF000
000FF000
000FF000
000FF000
000FF000
000FF000
000FF000
000FF000
000FF000
000FF000
000FF000
000FF000
000FF000
000FF000
000FF000
ENDCHAR
STARTCHAR 017D
ENCODING 381
SWIDTH 281 0
DWIDTH 36 0
BBX 32 84 0 0
BITMAP
03F00FC0
01F81F80
01F81F80
00FC3F00
00FC3F00
007E7E00
007E7E00
003FFC00
003FFC00
001FF800
001FF800
000FF000
000FF000
0007E000
0007E000
0003C000
0003C000
00018000
00018000
00010000
00000000
00000000
00000000
00000000
00000000
00000000
00000000
00000000
FFFFFFFF
FFFFFFFF
FFFFFFFF
FFFFFFFF
FFFFFFFF
FFFFFFFE
FFFFFFFE
FFFFFFFC
000003FC
000007F8
000007F8
00000FF0
00000FF0
00001FE0
00001FE0
00003FC0
00003FC0
00007F80
00007F80
0000FF00
0000FF00
0001FE00
0001FE00
0003FC00
0003FC00
0007F800
0007F800
000FF000
000FF000
001FE000
001FE000
003FC000
003FC000
007F8000
007F8000
00FF0000
00FF0000
01FE0000
01FE0000
03FC0000
03FC0000
07F80000
07F80000
0FF00000
0FF00000
1FE00000
1FE00000
3FC00000
3FFFFFFF
7FFFFFFF
7FFFFFFF
FFFFFFFF
FFFFFFFF
FFFFFFFF
FFFFFFFF
FFFFFFFF
ENDCHAR
STARTCHAR 017E
ENCODING 382
SWIDTH 281 0
DWIDTH 36 0
BBX 32 68 0 0
BITMAP
03F00FC0
01F81F80
01F81F80
00FC3F00
00FC3F00
007E7E00
007E7E00
003FFC00
003FFC00
001FF800
001FF800
000FF000
000FF000
0007E000
0007E000
0003C000
0003C000
00018000
00018000
00010000
00000000
00000000
00000000
00000000
00000000
00000000
00000000
00000000
FFFFFFFF
FFFFFFFF
FFFFFFFF
FFFFFFFF
FFFFFFFF
FFFFFFFF
FFFFFFFF
FFFFFFFF
000007FF
00000FFF
00001FFF
00003FFE
00007FFC
0000FFF8
0001FFF0
0003FFE0
0007FFC0
000FFF80
001FFF00
003FFE00
007FFC00
00FFF800
01FFF000
03FFE000
07FFC000
0FFF8000
1FFF0000
3FFE0000
7FFC0000
FFF80000
FFF00000
FFE00000
FFFFFFFF
FFFFFFFF
FFFFFFFF
FFFFFFFF
FFFFFFFF
FFFFFFFF
FFFFFFFF
FFFFFFFF
ENDCHAR
STARTCHAR 0192
ENCODING 402
SWIDTH 281 0
DWIDTH 36 0
BBX 32 20 0 36
BITMAP
FFF0F00F
FFF0F81F
FFF0F81F
FFF0FC3F
0F00FC3F
0F00FE7F
0F00FE7F
0F00FFFF
0F00FFFF
0F00F7EF
0F00F7EF
0F00F3CF
0F00F3CF
0F00F18F
0F00F18F
0F00F10F
0F00F00F
0F00F00F
0F00F00F
0F00F00F
ENDCHAR
STARTCHAR 2018
ENCODING 8216
SWIDTH 281 0
DWIDTH 36 0
BBX 8 20 12 36
BITMAP
03
07
07
0F
0F
1E
1E
3C
3C
78
78
F0
FF
FF
FF
FF
FF
FF
FF
FF
ENDCHAR
STARTCHAR 2019
ENCODING 8217
SWIDTH 281 0
DWIDTH 36 0
BBX 8 20 12 36
BITMAP
FF
FF
FF
FF
FF
FF
FF
FF
0F
1E
1E
3C
3C
78
78
F0
F0
E0
E0
C0
ENDCHAR
STARTCHAR 201C
ENCODING 8220
SWIDTH 281 0
DWIDTH 36 0
BBX 20 20 8 36
BITMAP
030030
070070
070070
0F00F0
0F00F0
1E01E0
1E01E0
3C03C0
3C03C0
780780
780780
F00F00
FF0FF0
FF0FF0
FF0FF0
FF0FF0
FF0FF0
FF0FF0
FF0FF0
FF0FF0
ENDCHAR
STARTCHAR 201D
ENCODING 8221
SWIDTH 281 0
DWIDTH 36 0
BBX 20 20 4 36
BITMAP
FF0FF0
FF0FF0
FF0FF0
FF0FF0
FF0FF0
FF0FF0
FF0FF0
FF0FF0
0F00F0
1E01E0
1E01E0
3C03C0
3C03C0
780780
780780
F00F00
F00F00
E00E00
E00E00
C00C00
ENDCHAR
STARTCHAR 2020
ENCODING 8224
SWIDTH 281 0
DWIDTH 36 0
BBX 24 76 4 -20
BITMAP
00FF00
00FF00
00FF00
00FF00
00FF00
00FF00
00FF00
00FF00
00FF00
00FF00
00FF00
00FF00
FFFFFF
FFFFFF
FFFFFF
FFFFFF
FFFFFF
FFFFFF
FFFFFF
FFFFFF
00FF00
00FF00
00FF00
00FF00
00FF00
00FF00
00FF00
00FF00
00FF00
00FF00
00FF00
00FF00
00FF00
00FF00
00FF00
00FF00
00FF00
00FF00
00FF00
00FF00
00FF00
00FF00
00FF00
00FF00
00FF00
00FF00
00FF00
00FF00
00FF00
00FF00
00FF00
00FF00
00FF00
00FF00
00FF00
00FF00
00FF00
00FF00
00FF00
00FF00
00FF00
00FF00
00FF00
00FF00
00FF00
00FF00
00FF00
00FF00
00FF00
00FF00
00FF00
00FF00
00FF00
00FF00
00FF00
00FF00
ENDCHAR
STARTCHAR 2022
ENCODING 8226
SWIDTH 281 0
DWIDTH 36 0
BBX 32 32 0 12
BITMAP
00010000
00018000
00018000
0003C000
0003C000
0007E000
0387E1C0
03EFF7C0
03FFFFC0
01FFFF80
01FFFF80
00FFFF00
01FFFF80
07FFFFE0
1FFFFFF8
7FFFFFFE
FFFFFFFF
1FFFFFF8
07FFFFE0
01FFFF80
00FFFF00
01FFFF80
01FFFF80
03FFFFC0
03EFF7C0
0387E1C0
0007E000
0003C000
0003C000
00018000
00018000
00010000
ENDCHAR
STARTCHAR 20AC
ENCODING 8364
SWIDTH 281 0
DWIDTH 36 0
BBX 32 56 0 0
BITMAP
0001FF80
0003FFC0
0007FFE0
000FFFF0
001FFFF8
003FFFFC
007FFFFE
00FFFFFF
00FFC3FF
00FF81FF
00FF00FF
00FF00FF
00FF0000
00FF0000
00FF0000
00FF0000
0FFFFFFC
1FFFFFF8
1FFFFFF8
3FFFFFF0
3FFFFFF0
7FFFFFE0
7FFFFFE0
FFFFFFC0
00FF0000
00FF0000
00FF0000
00FF0000
00FF0000
00FF0000
00FF0000
00FF0000
0FFFFFC0
1FFFFF80
1FFFFF80
3FFFFF00
3FFFFF00
7FFFFE00
7FFFFE00
FFFFFC00
00FF0000
00FF0000
00FF0000
00FF0000
00FF00FF
00FF00FF
00FF81FF
00FFC3FF
00FFFFFF
007FFFFE
003FFFFC
001FFFF8
000FFFF0
0007FFE0
0003FFC0
0001FF80
ENDCHAR
STARTCHAR 2122
ENCODING 8482
SWIDTH 3218 0
DWIDTH 412 0
BBX 404 92 4 -8
BITMAP
FFFFFFFFFFFFFFFFFFFFFFFFFFFFFFFFFFFFFFFFFFFFFFFFFFFFFFFFFFFFFFFFFFFFFFFFFFFFFFFFFFFFFFFFFFFFFFFFFFFFF0
FFFFFFFFFFFFFFFFFFFFFFFFFFFFFFFFFFFFFFFFFFFFFFFFFFFFFFFFFFFFFFFFFFFFFFFFFFFFFFFFFFFFFFFFFFFFFFFFFFFFF0
FFFFFFFFFFFFFFFFFFFFFFFFFFFFFFFFFFFFFFFFFFFFFFFFFFFFFFFFFFFFFFFFFFFFFFFFFFFFFFFFFFFFFFFFFFFFFFFFFFFFF0
FFFFFFFFFFFFFFFFFFFFFFFFFFFFFFFFFFFFFFFFFFFFFFFFFFFFFFFFFFFFFFFFFFFFFFFFFFFFFFFFFFFFFFFFFFFFFFFFFFFFF0
F000000000000000000000000000000000000000000000000000000000000000000000000000000000000000000000000000F0
F000000000000000000000000000000000000000000000000000000000000000000000000000000000000000000000000000F0
F000000000000000000000000000000000000000000000000000000000000000000000000000000000000000000000000000F0
F000000000000000000000000000000000000000000000000000000000000000000000000000000000000000000000000000F0
F000000000000000000000000000000000000000000000000000000000000000000000000000000000000000000000000000F0
F000000000000000000000000000000000000000000000000000000000000000000000000000000000000000000000000000F0
F000000000000000000000000000000000000000000000000000000000000000000000000000000000000000000000000000F0
F000000000000000000000000000000000000000000000000000000000000000000000000000000000000000000000000000F0
F001F80000FC00000000F0000F000000000F80000000000F00000F000F0F00001F800000F00000000000F000000000000000F0
F003FC0001FC00000000F0000F000000000FC0000000000F00000F000F0F00003FE00000F00000000000F000000000000000F0
F007FE0001FC00000000F0000F000000000FE0000000000F00000F000F0F00007FF00000F00000000000F000000000000000F0
F00FFF0003FC00000000F0000F000000000FF0000000000F00000F000F0F0000FFF00000F00000000000F000000000000000F0
F00F0F0003C000000000F0000F000000000FF8000000000000000F000F0F0000F0700000F00000000000F000000000000000F0
F00F0F0003C000000000F0000F000000000F7C000000000000000F000F0F0000F0100000F00000000000F000000000000000F0
F00F0F0003C000000000F0000F000000000F3E000000000000000F000F0F0000F0000000F00000000000F000000000000000F0
F00F0F0003C000000000F0000F000000000F1F000000000000000F000F0F0000F0000000F00000000000F000000000000000F0
F00F0F000FFC1F80F183FF000F180F0F000F0F018F0F180F01F80F000F0F0000F0001F80F1801F801F80F180F1801F80F100F0
F00F0F000FFC3FC0F7C3FF000F7C0F0F000F0F03EF0F7C0F03FC0F000F0F0000F0003FE0F7C03FC03FE0F7C0F7C03FC0F700F0
F00FFF000FFC7FE0FFE3FF000FFE0F0F000F0F07FF0FFE0F07FE0F000FFF0000FF807FF0FFE07FE07FF0FFE0FFE07FE0FF00F0
F00FFF000FFCFFF0FFF3FF000FFF0F0F000F0F0FFF0FFF0F0FFF0F000FFF0000FFE0FFF0FFF0FFF0FFF0FFF0FFF0FFF0FF00F0
F00FFF0003C0F0F0FEF0F0000FEF0F0F000F0F0F7F0FEF0F0F0F0F000FFF00007FF0F070FEF0F0F0F070FEF0FEF0F0F0FE00F0
F00FFF0003C0F0F0F8F0F0000F8F0F0F000F0F0F1F0F8F0F0F0F0F000FFF00001FF0F010F8F0F0F0F010F8F0F8F0F0F0F800F0
F00F0F0003C0F0F0F0F0F0000F0F0F0F000F0F0F0F0F0F0F0FFF0F000F0F000000F0F000F0F0FFF0F000F0F0F0F0FFF0F000F0
F00F0F0003C0F0F0F0F0F0000F0F0F0F000F0F0F0F0F0F0F0FFF0F000F0F000000F0F000F0F0FFF0F000F0F0F0F0FFF0F000F0
F00F0F0003C0F0F0F0F0F0000F0F0F0F000F1F0F0F0F0F0F0FFF0F000F0F000000F0F000F0F0FFF0F000F0F0F0F0FFF0F000F0
F00F0F0003C0F0F0F0F0F0000F0F0F0F000F3E0F0F0F0F0F0FFF0F000F0F000000F0F000F0F0FFF0F000F0F0F0F0FFF0F000F0
F00F0F0003C0F0F0F0F0F0000F8F0F0F000F7C0F1F0F0F0F0F000F000F0F000080F0F010F0F0F000F010F0F0F0F0F000F000F0
F00F0F0003C0F0F0F0F0F0000FEF0F0F000FF80F7F0F0F0F0F000F000F0F0000E0F0F070F0F0F000F070F0F0F0F0F000F000F0
F00F0F0003C0FFF0F0F0FF000FFF0FFF000FF00FFF0F0F0F0FFF0F000F0F3C00FFF0FFF0F0F0FFF0FFF0F0F0F0F0FFF0F000F0
F00F0F0003C07FE0F0F07F000FFE07FE000FE007FF0F0F0F07FE0F000F0F3C00FFE07FF0F0F07FE07FF0F0F0F0F07FE0F000F0
F00F0F0003C03FC0F0F07F000F7C03FE000FC003EF0F0F0F03FC0F000F0F3C007FC03FE0F0F03FC03FE0F0F0F0F03FC0F000F0
F00F0F0003C01F80F0F03F000F1801FC000F80018F0F0F0F01F80F000F0F3C001F801F80F0F01F801F80F0F0F0F01F80F000F0
F000000000000000000000000000003C00000000000000000000000000000000000000000000000000000000000000000000F0
F000000000000000000000000000007800000000000000000000000000000000000000000000000000000000000000000000F0
F000000000000000000000000000007800000000000000000000000000000000000000000000000000000000000000000000F0
F00000000000000000000000000000F000000000000000000000000000000000000000000000000000000000000000000000F0
F00000000000000000000000000000F000000000000000000000000000000000000000000000000000000000000000000000F0
F00000000000000000000000000001E000000000000000000000000000000000000000000000000000000000000000000000F0
F00000000000000000000000000001E000000000000000000000000000000000000000000000000000000000000000000000F0
F00000000000000000000000000003C000000000000000000000000000000000000000000000000000000000000000000000F0
F000000000000000000000000000000000000000000000000000000000000000000000000000000000000000000000000000F0
F000000000000000000000000000000000000000000000000000000000000000000000000000000000000000000000000000F0
F000000000000000000000000000000000000000000000000000000000000000000000000000000000000000000000000000F0
F000000000000000000000000000000000000000000000000000000000000000000000000000000000000000000000000000F0
F000000000000000000000000000000000000000000000000000000000000000000000000000000000000000000000000000F0
F000000000000000000000000000000000000000000000000000000000000000000000000000000000000000000000000000F0
F000000000000000000000000000000000000000000000000000000000000000000000000000000000000000000000000000F0
F000000000000000000000000000000000000000000000000000000000000000000000000000000000000000000000000000F0
F000000000000000000001F00F0F000000000000000000000000000000000000000000000F0F00F800000000000000000000F0
F000000000000000000003F00F0F000000000000000000000000000000000000000000000F0F00FC00000000000000000000F0
F000000000000000000007F00F0F000000000000000000000000000000000000000000000F0F00FE00000000000000000000F0
F00000000000000000000FF00F0F000000000000000000000000000000000000000000000F0F00FF00000000000000000000F0
F00000000000000000000F000F0F00FC00000000F0000000000F0F000000000F000000000F0F000F00000000000000000000F0
F00000000000000000000F000F0F01FC00000000F0000000000F0F000000000F000000000F0F000F00000000000000000000F0
F00000000000000000000F000F0F01FC00000000F0000000000F0F000000000F000000000F0F000F00000000000000000000F0
F00000000000000000000F000F0F03FC00000000F0000000000F0F000000000F000000000F0F000F00000000000000000000F0
F00000000000000000000F00000003C000000000F0000000000F0F000000000F000000000000000F00000000000000000000F0
F00000000000000000000F00000003C000000000F0000000000F0F000000000F000000000000000F00000000000000000000F0
F00000000000000000000F00000003C000000000F0000000000F0F000000000F000000000000000F00000000000000000000F0
F00000000000000000000F00000003C000000000F0000000000F0F000000000F000000000000000F00000000000000000000F0
F00000000000000000000F0000000FFC1F80F183FF01F801F80F0F01F801F83FF01F80F10000000F00000000000000000000F0
F00000000000000000000F0000000FFC3FC0F7C3FF03FE03FC0F0F03FC03FE3FF03FC0F70000000F00000000000000000000F0
F00000000000000000000F0000000FFC7FE0FFE3FF07FF07FE0F0F07FE07FF3FF07FE0FF0000000F00000000000000000000F0
F00000000000000000000F0000000FFCFFF0FFF3FF0FFF0FFF0F0F0FFF0FFF3FF0FFF0FF0000000F00000000000000000000F0
F00000000000000000000F00000003C0F0F0FEF0F00F070F0F0F0F0F0F0F070F00F0F0FE0000000F00000000000000000000F0
F00000000000000000000F00000003C0F0F0F8F0F00F010F0F0F0F0F0F0F010F00F0F0F80000000F00000000000000000000F0
F00000000000000000000F00000003C0F0F0F0F0F00F000F0F0F0F0FFF0F000F00F0F0F00000000F00000000000000000000F0
F00000000000000000000F00000003C0F0F0F0F0F00F000F0F0F0F0FFF0F000F00F0F0F00000000F00000000000000000000F0
F00000000000000000000F00000003C0F0F0F0F0F00F000F0F0F0F0FFF0F000F00F0F0F00000000F00000000000000000000F0
F00000000000000000000F00000003C0F0F0F0F0F00F000F0F0F0F0FFF0F000F00F0F0F00000000F00000000000000000000F0
F00000000000000000000F00000003C0F0F0F0F0F00F010F0F0F0F0F000F010F00F0F0F00000000F00000000000000000000F0
F00000000000000000000F00000003C0F0F0F0F0F00F070F0F0F0F0F000F070F00F0F0F00000000F00000000000000000000F0
F00000000000000000000FF0000003C0FFF0F0F0FF0FFF0FFF0F0F0FFF0FFF0FF0FFF0F0000000FF00000000000000000000F0
F000000000000000000007F0000003C07FE0F0F07F07FF07FE0F0F07FE07FF07F07FE0F0000000FE00000000000000000000F0
F000000000000000000003F0000003C03FC0F0F07F03FE03FC0F0F03FC03FE07F03FC0F0000000FC00000000000000000000F0
F000000000000000000001F0000003C01F80F0F03F01F801F80F0F01F801F803F01F80F0000000F800000000000000000000F0
F000000000000000000000000000000000000000000000000000000000000000000000000000000000000000000000000000F0
F000000000000000000000000000000000000000000000000000000000000000000000000000000000000000000000000000F0
F000000000000000000000000000000000000000000000000000000000000000000000000000000000000000000000000000F0
F000000000000000000000000000000000000000000000000000000000000000000000000000000000000000000000000000F0
F000000000000000000000000000000000000000000000000000000000000000000000000000000000000000000000000000F0
F000000000000000000000000000000000000000000000000000000000000000000000000000000000000000000000000000F0
F000000000000000000000000000000000000000000000000000000000000000000000000000000000000000000000000000F0
F000000000000000000000000000000000000000000000000000000000000000000000000000000000000000000000000000F0
FFFFFFFFFFFFFFFFFFFFFFFFFFFFFFFFFFFFFFFFFFFFFFFFFFFFFFFFFFFFFFFFFFFFFFFFFFFFFFFFFFFFFFFFFFFFFFFFFFFFF0
FFFFFFFFFFFFFFFFFFFFFFFFFFFFFFFFFFFFFFFFFFFFFFFFFFFFFFFFFFFFFFFFFFFFFFFFFFFFFFFFFFFFFFFFFFFFFFFFFFFFF0
FFFFFFFFFFFFFFFFFFFFFFFFFFFFFFFFFFFFFFFFFFFFFFFFFFFFFFFFFFFFFFFFFFFFFFFFFFFFFFFFFFFFFFFFFFFFFFFFFFFFF0
FFFFFFFFFFFFFFFFFFFFFFFFFFFFFFFFFFFFFFFFFFFFFFFFFFFFFFFFFFFFFFFFFFFFFFFFFFFFFFFFFFFFFFFFFFFFFFFFFFFFF0
ENDCHAR
ENDFONT
